<svg xmlns="http://www.w3.org/2000/svg" width="663" height="322" fill="none"><rect width="290.526" height="290.526" x=".747" y="30.996" fill="#FBF9FA" rx="145.263"/><path fill="#717171" d="M215.818 197.327h-2.905l-.554 1.341h-1.484l2.789-6.258h1.43l2.798 6.258h-1.52l-.554-1.341Zm-.456-1.1-.992-2.395-.992 2.395h1.984Zm7.999-2.368v4.004c0 .882-.23 1.538-.689 1.967-.459.429-1.129.644-2.011.644-.465 0-.906-.057-1.323-.17-.417-.113-.763-.277-1.037-.492l.554-1.001c.203.167.459.298.769.393.31.102.62.152.93.152.482 0 .837-.11 1.063-.331.233-.214.349-.542.349-.983v-.206c-.364.4-.87.599-1.52.599-.441 0-.846-.095-1.215-.286a2.249 2.249 0 0 1-.868-.822 2.293 2.293 0 0 1-.321-1.216c0-.459.107-.864.321-1.216.215-.351.504-.622.868-.813a2.539 2.539 0 0 1 1.215-.295c.698 0 1.228.229 1.592.688v-.616h1.323Zm-2.638 3.432c.37 0 .671-.107.903-.322.239-.22.358-.506.358-.858 0-.351-.119-.634-.358-.849-.232-.221-.533-.331-.903-.331-.369 0-.673.11-.911.331-.239.215-.358.498-.358.849 0 .352.119.638.358.858.238.215.542.322.911.322Zm8.646-1.01c0 .018-.008.143-.026.376h-3.639c.066.297.221.533.465.706.245.173.548.259.912.259.25 0 .471-.036.662-.107.196-.078.378-.197.545-.358l.742.805c-.453.518-1.115.777-1.985.777-.542 0-1.022-.104-1.439-.313a2.346 2.346 0 0 1-.965-.885 2.419 2.419 0 0 1-.34-1.278c0-.471.11-.894.331-1.269.226-.382.533-.677.92-.885a2.697 2.697 0 0 1 1.314-.322c.471 0 .897.101 1.279.304.381.203.679.495.894.876.22.375.33.813.33 1.314Zm-2.494-1.439c-.315 0-.581.089-.795.268a1.142 1.142 0 0 0-.394.733h2.369a1.13 1.13 0 0 0-.393-.724 1.162 1.162 0 0 0-.787-.277Zm6.346-1.055c.596 0 1.076.179 1.439.536.37.358.554.888.554 1.592v2.753h-1.394v-2.539c0-.381-.083-.664-.25-.849-.167-.191-.409-.286-.724-.286-.352 0-.632.11-.841.331-.208.214-.313.536-.313.965v2.378h-1.394v-4.809h1.332v.563a1.8 1.8 0 0 1 .688-.465c.274-.113.575-.17.903-.17Zm5.634 4.952c-.512 0-.974-.104-1.385-.313a2.433 2.433 0 0 1-.957-.885 2.428 2.428 0 0 1-.34-1.278c0-.477.114-.903.34-1.278a2.37 2.37 0 0 1 .957-.876 2.943 2.943 0 0 1 1.385-.322c.507 0 .948.107 1.323.322.382.208.659.509.831.903l-1.081.581c-.25-.441-.611-.662-1.082-.662-.363 0-.664.119-.903.358-.238.238-.357.563-.357.974 0 .411.119.736.357.975.239.238.54.357.903.357.477 0 .838-.22 1.082-.661l1.081.59a1.91 1.91 0 0 1-.831.894c-.375.214-.816.321-1.323.321Zm7.661-4.88-2.172 5.104c-.221.554-.495.944-.822 1.171-.322.226-.713.34-1.172.34-.25 0-.497-.039-.742-.117a1.63 1.63 0 0 1-.598-.321l.509-.993a1.207 1.207 0 0 0 .787.304c.19 0 .345-.047.465-.143.119-.089.226-.241.321-.456l.018-.044-2.083-4.845h1.44l1.349 3.262 1.359-3.262h1.341Zm-49.675 9.551c.555 0 1.034.093 1.44.277.411.185.727.447.947.787.221.34.331.742.331 1.207 0 .459-.11.861-.331 1.207-.22.339-.536.602-.947.786-.406.179-.885.269-1.44.269h-1.26v1.725h-1.448v-6.258h2.708Zm-.08 3.353c.435 0 .766-.093.992-.278.227-.19.34-.458.34-.804 0-.352-.113-.62-.34-.805-.226-.19-.557-.286-.992-.286h-1.18v2.173h1.18Zm5.065-1.27c.167-.232.391-.408.671-.527.286-.119.614-.179.983-.179v1.287a4.99 4.99 0 0 0-.313-.018c-.399 0-.712.114-.938.34-.227.221-.34.554-.34 1.001v2.271h-1.394v-4.809h1.331v.634Zm4.728 4.246c-.506 0-.962-.104-1.367-.313a2.384 2.384 0 0 1-.939-.885 2.419 2.419 0 0 1-.34-1.278c0-.477.113-.903.34-1.278.226-.376.539-.668.939-.876a2.87 2.87 0 0 1 1.367-.322c.507 0 .96.107 1.359.322.399.208.712.5.939.876.226.375.339.801.339 1.278s-.113.903-.339 1.278c-.227.376-.54.671-.939.885a2.885 2.885 0 0 1-1.359.313Zm0-1.144c.358 0 .65-.119.876-.357.233-.245.349-.57.349-.975s-.116-.727-.349-.965c-.226-.245-.518-.367-.876-.367-.357 0-.652.122-.885.367-.232.238-.348.56-.348.965 0 .405.116.73.348.975.233.238.528.357.885.357Zm5.894 1.144c-.513 0-.975-.104-1.386-.313a2.437 2.437 0 0 1-.956-.885 2.419 2.419 0 0 1-.34-1.278c0-.477.113-.903.34-1.278.232-.376.551-.668.956-.876a2.944 2.944 0 0 1 1.386-.322c.506 0 .947.107 1.323.322.381.208.658.509.831.903l-1.082.581c-.25-.441-.61-.662-1.081-.662a1.22 1.22 0 0 0-.903.358c-.239.238-.358.563-.358.974 0 .411.119.736.358.975.238.238.539.357.903.357.476 0 .837-.22 1.081-.661l1.082.59a1.92 1.92 0 0 1-.831.894c-.376.214-.817.321-1.323.321Zm7.607-2.458c0 .018-.009.143-.027.376h-3.638c.065.297.22.533.465.706.244.173.548.259.911.259.251 0 .471-.036.662-.107.197-.078.378-.197.545-.358l.742.805c-.453.518-1.114.777-1.984.777-.543 0-1.022-.104-1.44-.313a2.346 2.346 0 0 1-.965-.885 2.419 2.419 0 0 1-.34-1.278c0-.471.111-.894.331-1.269.226-.382.533-.677.921-.885a2.692 2.692 0 0 1 1.314-.322c.471 0 .897.101 1.278.304.382.203.68.495.894.876.221.375.331.813.331 1.314Zm-2.494-1.439c-.316 0-.581.089-.796.268a1.145 1.145 0 0 0-.393.733h2.369a1.16 1.16 0 0 0-1.18-1.001Zm5.04 3.897c-.399 0-.789-.047-1.171-.143-.381-.101-.685-.226-.912-.375l.465-1.001c.215.137.474.25.778.339.304.084.602.126.894.126.59 0 .885-.146.885-.438 0-.138-.081-.236-.241-.295-.161-.06-.409-.111-.742-.152a7.267 7.267 0 0 1-.975-.206 1.55 1.55 0 0 1-.67-.411c-.185-.197-.277-.477-.277-.841 0-.303.086-.572.259-.804.179-.238.435-.423.769-.554.339-.131.739-.197 1.197-.197.34 0 .677.039 1.011.116.339.072.619.173.84.304l-.465.992a2.779 2.779 0 0 0-1.386-.357c-.297 0-.521.042-.67.125-.149.083-.223.191-.223.322 0 .149.08.253.241.313.161.059.417.116.769.17.393.065.715.137.965.214.25.072.468.206.653.402.184.197.277.471.277.823 0 .298-.09.563-.268.795-.179.233-.441.415-.787.546-.34.125-.745.187-1.216.187Zm4.749 0c-.399 0-.789-.047-1.171-.143-.381-.101-.685-.226-.912-.375l.465-1.001c.215.137.474.25.778.339.304.084.602.126.894.126.59 0 .885-.146.885-.438 0-.138-.081-.236-.241-.295-.161-.06-.409-.111-.742-.152a7.267 7.267 0 0 1-.975-.206 1.55 1.55 0 0 1-.67-.411c-.185-.197-.277-.477-.277-.841 0-.303.086-.572.259-.804.179-.238.435-.423.769-.554.339-.131.739-.197 1.197-.197.34 0 .677.039 1.011.116.339.072.619.173.84.304l-.465.992a2.779 2.779 0 0 0-1.386-.357c-.297 0-.521.042-.67.125-.149.083-.223.191-.223.322 0 .149.08.253.241.313.161.059.417.116.769.17.393.065.715.137.965.214.25.072.468.206.653.402.184.197.277.471.277.823 0 .298-.09.563-.268.795-.179.233-.441.415-.787.546-.34.125-.745.187-1.216.187Zm8.792.036c-.65 0-1.237-.14-1.761-.42a3.17 3.17 0 0 1-1.225-1.153 3.21 3.21 0 0 1-.438-1.663c0-.614.146-1.165.438-1.654a3.15 3.15 0 0 1 1.225-1.162 3.677 3.677 0 0 1 1.761-.42c.649 0 1.233.14 1.752.42.518.28.926.668 1.224 1.162.298.489.447 1.04.447 1.654a3.16 3.16 0 0 1-.447 1.663 3.175 3.175 0 0 1-1.224 1.153 3.63 3.63 0 0 1-1.752.42Zm0-1.234c.369 0 .703-.083 1.001-.25.298-.173.53-.411.697-.715a2.06 2.06 0 0 0 .259-1.037 2.06 2.06 0 0 0-.259-1.037 1.767 1.767 0 0 0-.697-.706 1.958 1.958 0 0 0-1.001-.259c-.37 0-.704.086-1.002.259a1.828 1.828 0 0 0-.706.706c-.167.304-.25.65-.25 1.037 0 .387.083.733.25 1.037.173.304.408.542.706.715.298.167.632.25 1.002.25Zm12.137-3.682-1.743 4.809h-1.341l-1.082-2.986-1.117 2.986h-1.341l-1.734-4.809h1.314l1.135 3.253 1.18-3.253h1.18l1.144 3.253 1.171-3.253h1.234Zm3.571-.072c.596 0 1.076.179 1.44.536.369.358.554.888.554 1.592v2.753h-1.395v-2.539c0-.381-.083-.664-.25-.849-.167-.191-.408-.286-.724-.286-.352 0-.632.11-.84.331-.209.214-.313.536-.313.965v2.378h-1.395v-4.809h1.332v.563a1.8 1.8 0 0 1 .688-.465c.275-.113.576-.17.903-.17Zm8.021 2.494c0 .018-.009.143-.027.376h-3.638c.066.297.221.533.465.706.244.173.548.259.912.259.25 0 .471-.036.661-.107a1.67 1.67 0 0 0 .546-.358l.742.805c-.453.518-1.115.777-1.985.777-.542 0-1.022-.104-1.439-.313a2.355 2.355 0 0 1-.966-.885 2.427 2.427 0 0 1-.339-1.278c0-.471.11-.894.33-1.269.227-.382.534-.677.921-.885a2.692 2.692 0 0 1 1.314-.322c.471 0 .897.101 1.279.304.381.203.679.495.893.876.221.375.331.813.331 1.314Zm-2.494-1.439c-.316 0-.581.089-.795.268a1.142 1.142 0 0 0-.394.733h2.369a1.138 1.138 0 0 0-.393-.724 1.164 1.164 0 0 0-.787-.277Zm4.755-.349a1.55 1.55 0 0 1 .67-.527c.286-.119.614-.179.983-.179v1.287a4.99 4.99 0 0 0-.313-.018c-.399 0-.712.114-.938.34-.227.221-.34.554-.34 1.001v2.271H260.8v-4.809h1.332v.634Z"/><path fill="#717171" fill-rule="evenodd" d="M227.8 152.834c-1.312.202-2.823 1.06-3.937 2.235-.986 1.039-1.461 1.911-1.72 3.158-.169.813-.058 2.241.255 3.28.037.123.02.138-.158.138-.382 0-.623.394-.623 1.02 0 .573.389 2.001.73 2.683.16.319.489.704.603.704.037 0 .127.231.201.514.3 1.143.876 2.15 1.742 3.042 1.895 1.955 4.338 2.294 6.493.9 1.334-.863 2.423-2.373 2.853-3.957.104-.381.164-.501.277-.552.463-.208 1.142-1.921 1.245-3.144.063-.74-.181-1.21-.627-1.21-.087 0-.158-.01-.158-.022 0-.013.054-.24.119-.505.199-.813.272-1.634.238-2.686-.035-1.094-.115-1.473-.452-2.152-.26-.526-.75-.999-1.21-1.167-.238-.088-.379-.199-.607-.477a5.419 5.419 0 0 0-.668-.661c-.441-.352-1.575-.909-2.142-1.051-.48-.121-1.913-.173-2.454-.09Zm-4.132 17.907c-.472.332-1.943 1.113-2.828 1.499a22.53 22.53 0 0 1-2.859 1.03c-1.636.484-2.377 1.437-2.644 3.401a8.15 8.15 0 0 0-.037 1.339c.047.965.224 2.713.295 2.896.037.096.346.276 1.064.622 2.665 1.283 5.506 2.053 8.997 2.438 1.385.153 4.675.153 6.089 0 3.463-.376 6.488-1.202 9.092-2.485l.943-.464.071-.429c.153-.924.286-2.757.25-3.427-.07-1.289-.491-2.43-1.13-3.058-.42-.414-.886-.643-1.925-.95a21.787 21.787 0 0 1-2.918-1.1c-.667-.308-1.943-1.005-2.383-1.302-.148-.1-.277-.172-.287-.16-.011.011-.401 1.219-.869 2.683-1.207 3.783-1.979 6.121-2.02 6.12-.02 0-.278-.682-.575-1.515l-.54-1.514.315-.483c1.138-1.748 1.018-2.837-.351-3.187-.94-.239-2.049.033-2.391.588-.35.566-.145 1.447.605 2.599l.315.483-.54 1.514c-.297.833-.555 1.515-.574 1.515-.043.001-.683-1.934-1.928-5.829-.525-1.641-.969-2.983-.987-2.981a1.566 1.566 0 0 0-.25.157Z" clip-rule="evenodd"/><path fill="#717171" d="M67.766 138.435a3.654 3.654 0 0 1-1.734-.411 3.19 3.19 0 0 1-1.216-1.153 3.228 3.228 0 0 1-.438-1.672c0-.62.146-1.174.438-1.663a3.103 3.103 0 0 1 1.216-1.153c.518-.28 1.1-.42 1.743-.42a3.61 3.61 0 0 1 1.466.286c.44.191.81.465 1.108.822l-.93.859c-.422-.489-.947-.733-1.573-.733-.387 0-.733.086-1.037.259a1.81 1.81 0 0 0-.715.706 2.12 2.12 0 0 0-.25 1.037c0 .387.083.733.25 1.037.173.304.412.542.715.715.304.167.65.25 1.037.25.626 0 1.15-.247 1.574-.742l.93.859c-.299.363-.668.64-1.11.831a3.674 3.674 0 0 1-1.474.286Zm3.463-6.74h1.395v6.633h-1.395v-6.633Zm2.689 1.823h1.394v4.81h-1.394v-4.81Zm.697-.67c-.256 0-.465-.075-.626-.224a.724.724 0 0 1-.241-.554c0-.22.08-.405.241-.554.161-.149.37-.224.626-.224s.465.072.626.215c.16.143.241.322.241.536 0 .233-.08.426-.241.581-.161.149-.37.224-.626.224Zm6.703 3.093c0 .018-.01.143-.027.375h-3.639c.066.298.22.534.465.707.245.172.548.259.912.259.25 0 .47-.036.662-.108a1.65 1.65 0 0 0 .545-.357l.742.804c-.453.519-1.115.778-1.985.778-.542 0-1.022-.104-1.439-.313a2.349 2.349 0 0 1-.965-.885 2.424 2.424 0 0 1-.34-1.278c0-.471.11-.894.33-1.269.227-.382.534-.677.921-.885a2.694 2.694 0 0 1 1.314-.322c.471 0 .897.101 1.279.304.381.202.68.494.894.876.22.375.33.813.33 1.314Zm-2.495-1.439a1.2 1.2 0 0 0-.795.268 1.142 1.142 0 0 0-.394.733h2.37a1.135 1.135 0 0 0-.394-.724 1.163 1.163 0 0 0-.787-.277Zm6.346-1.055c.596 0 1.076.179 1.44.536.369.358.553.888.553 1.591v2.754h-1.394v-2.539c0-.382-.083-.665-.25-.849-.167-.191-.409-.286-.724-.286-.352 0-.632.11-.84.33-.21.215-.314.537-.314.966v2.378h-1.394v-4.81h1.332v.563c.185-.202.414-.357.688-.464.274-.114.575-.17.903-.17Zm6.36 4.648a1.485 1.485 0 0 1-.51.233 2.685 2.685 0 0 1-.626.071c-.572 0-1.016-.146-1.332-.438-.31-.292-.465-.721-.465-1.287v-1.976h-.742v-1.072h.742v-1.171h1.395v1.171h1.198v1.072H89.99v1.958c0 .203.05.361.152.474.107.107.256.161.447.161.22 0 .408-.06.563-.179l.375.983Z"/><path fill="#717171" fill-rule="evenodd" d="M76.95 93.611c-1.312.202-2.823 1.06-3.937 2.235-.986 1.04-1.46 1.911-1.72 3.158-.17.813-.058 2.241.255 3.28.037.123.02.138-.158.138-.382 0-.623.394-.623 1.02 0 .573.389 2.001.73 2.683.16.319.49.704.603.704.037 0 .127.231.202.514.3 1.143.876 2.15 1.74 3.042 1.896 1.955 4.34 2.294 6.494.9 1.334-.863 2.423-2.373 2.853-3.957.104-.381.164-.501.278-.552.463-.208 1.14-1.921 1.245-3.144.062-.74-.181-1.21-.628-1.21-.087 0-.158-.01-.158-.022 0-.012.054-.24.119-.505.2-.813.272-1.634.238-2.686-.035-1.094-.115-1.472-.451-2.152-.26-.526-.751-.999-1.21-1.167-.239-.088-.38-.199-.607-.477a5.415 5.415 0 0 0-.669-.66c-.44-.353-1.574-.91-2.142-1.052-.48-.12-1.913-.173-2.454-.09Zm-4.132 17.907c-.472.332-1.943 1.113-2.827 1.499-.946.413-1.734.697-2.86 1.03-1.636.484-2.377 1.437-2.643 3.401-.047.341-.06.852-.037 1.339.046.965.224 2.713.294 2.897.037.095.346.275 1.064.621 2.665 1.283 5.506 2.053 8.997 2.438 1.386.153 4.675.153 6.09 0 3.462-.376 6.488-1.202 9.091-2.485l.943-.464.071-.428c.153-.925.287-2.758.25-3.428-.07-1.289-.491-2.43-1.13-3.058-.42-.413-.885-.643-1.925-.95a21.928 21.928 0 0 1-2.918-1.099c-.667-.309-1.942-1.006-2.383-1.303-.148-.1-.277-.172-.287-.16-.01.011-.401 1.219-.868 2.683-1.208 3.783-1.98 6.121-2.02 6.12-.02 0-.28-.682-.576-1.514l-.54-1.515.315-.483c1.138-1.748 1.018-2.837-.351-3.186-.94-.24-2.049.032-2.391.587-.35.567-.145 1.447.605 2.599l.315.483-.54 1.515c-.296.832-.555 1.514-.574 1.514-.043.001-.683-1.934-1.928-5.829-.525-1.641-.969-2.982-.987-2.981-.018.002-.13.072-.25.157Z" clip-rule="evenodd"/><path fill="#717171" d="M64.968 261.019h-2.905l-.554 1.341h-1.484l2.789-6.257h1.43l2.798 6.257h-1.52l-.554-1.341Zm-.456-1.099-.992-2.396-.992 2.396h1.984Zm7.999-2.369v4.004c0 .882-.23 1.538-.689 1.967-.459.429-1.129.644-2.011.644a5.04 5.04 0 0 1-1.323-.17c-.417-.113-.763-.277-1.037-.492l.554-1.001c.203.167.46.298.77.393.309.102.619.152.929.152.483 0 .837-.11 1.064-.33.232-.215.348-.543.348-.984v-.205c-.363.399-.87.599-1.52.599a2.62 2.62 0 0 1-1.215-.286 2.257 2.257 0 0 1-.867-.823 2.289 2.289 0 0 1-.322-1.216c0-.459.107-.864.322-1.215.214-.352.503-.623.867-.814.37-.197.775-.295 1.216-.295.697 0 1.227.23 1.59.688v-.616h1.324Zm-2.637 3.432c.37 0 .67-.107.903-.321.238-.221.357-.507.357-.859 0-.351-.12-.634-.358-.849-.232-.22-.533-.331-.902-.331-.37 0-.674.111-.912.331-.239.215-.358.498-.358.849 0 .352.12.638.358.859.238.214.542.321.912.321Zm8.646-1.01c0 .018-.01.143-.027.376h-3.638c.065.298.22.533.464.706.245.173.549.259.912.259.25 0 .471-.036.662-.107a1.67 1.67 0 0 0 .545-.358l.742.805c-.453.518-1.115.777-1.985.777-.542 0-1.022-.104-1.439-.312a2.362 2.362 0 0 1-.965-.885 2.43 2.43 0 0 1-.34-1.279c0-.47.11-.894.33-1.269.227-.381.534-.676.921-.885a2.694 2.694 0 0 1 1.315-.322c.47 0 .897.101 1.278.304.381.203.68.495.894.876.22.376.33.814.33 1.314Zm-2.494-1.439a1.2 1.2 0 0 0-.796.268 1.142 1.142 0 0 0-.393.733h2.368a1.134 1.134 0 0 0-.393-.724 1.162 1.162 0 0 0-.786-.277Zm6.345-1.055c.596 0 1.076.179 1.44.537.369.357.554.887.554 1.591v2.753H82.97v-2.539c0-.381-.083-.664-.25-.849-.167-.191-.408-.286-.724-.286-.352 0-.632.11-.84.331-.21.214-.313.536-.313.965v2.378h-1.395v-4.809h1.332v.563c.185-.203.414-.358.688-.465.274-.113.575-.17.903-.17Zm5.634 4.952c-.512 0-.974-.104-1.385-.312a2.455 2.455 0 0 1-.957-.885 2.429 2.429 0 0 1-.34-1.279c0-.476.114-.903.34-1.278a2.39 2.39 0 0 1 .957-.876 2.945 2.945 0 0 1 1.385-.322c.507 0 .948.107 1.323.322.382.209.659.51.832.903l-1.082.581c-.25-.441-.61-.662-1.082-.662-.363 0-.664.12-.902.358-.239.238-.358.563-.358.974 0 .412.12.736.358.975.238.238.539.357.902.357.477 0 .838-.22 1.082-.661l1.082.59c-.173.381-.45.679-.832.894-.375.214-.816.321-1.323.321Zm7.661-4.88-2.172 5.104c-.22.554-.495.945-.822 1.171-.322.226-.712.34-1.171.34-.25 0-.498-.039-.742-.116a1.648 1.648 0 0 1-.6-.322l.51-.993a1.205 1.205 0 0 0 .787.304c.19 0 .346-.047.465-.143.119-.089.226-.241.322-.456l.017-.044-2.082-4.845h1.439l1.35 3.262 1.358-3.262h1.341ZM73.41 184.089c.572-.892 1.779-1.798 2.815-2.111 1.164-.352 2.789.022 3.655.84.323.305.752.645.953.754.68.371.911.973.911 2.375 0 .69-.042 1.441-.093 1.67-.08.352-.052.426.185.487.255.066.273.141.208.854-.064.701-.26 1.248-.815 2.27a36.33 36.33 0 0 0-.548 1.092c-.658 1.36-2.218 2.472-3.467 2.472-.677 0-1.707-.464-2.375-1.07-.612-.555-1.406-1.815-1.406-2.231 0-.082-.147-.34-.327-.574-.322-.419-.737-1.706-.737-2.286 0-.163.118-.406.261-.539.24-.221.25-.312.118-1.105-.171-1.022.033-1.915.662-2.898Z"/><path fill="#717171" d="M70.91 196.049c.62-.26 1.576-.702 2.124-.982.549-.279 1.006-.5 1.016-.49.011.009.445 1.349.965 2.977s.97 2.983.997 3.011c.028.028.206-.404.394-.961l.343-1.012-.328-.611c-.624-1.163-.312-2.001.744-2.001 1.298 0 1.643.681.975 1.927l-.345.645.305.967c.168.531.345.99.393 1.02.047.029.16-.197.25-.503.09-.307.52-1.667.956-3.023l.791-2.465 1.226.617c.674.34 1.686.816 2.249 1.059 1.986.858 2.34 1.516 2.49 4.641.055 1.125.06 2.091.014 2.146-.047.055-4.211.085-9.254.066l-9.168-.034-.04-.924c-.065-1.452.2-3.453.558-4.232.385-.833.884-1.225 2.345-1.838ZM61.78 203.667c-.804-.646-.752-1.886.099-2.354.706-.388 1.696-.072 1.991.635.223.536.063 1.303-.347 1.656-.426.368-1.324.4-1.743.063ZM91.632 203.896c-1.25-.334-1.374-2.157-.18-2.642.961-.391 1.92.244 1.925 1.276.005 1.01-.78 1.624-1.745 1.366ZM55.63 211.558c-1.357 0-1.925-1.669-.853-2.506.938-.732 2.419.138 2.244 1.318-.096.652-.724 1.188-1.391 1.188ZM97.584 210.006c.1-.42.533-.937.915-1.094.384-.158.554-.148 1.046.056.432.179.883.858.883 1.33 0 .642-.788 1.392-1.463 1.392-.815 0-1.565-.914-1.381-1.684ZM52.95 221.329c-1.672.688-2.8-1.728-1.19-2.548.604-.308 1.16-.205 1.627.304.655.714.427 1.889-.437 2.244ZM100.779 220.397c-.101-.503.178-1.205.595-1.495.841-.585 2.061.006 2.204 1.068.068.508.033.599-.394 1.024-.381.378-.569.465-1.004.465-.659 0-1.282-.472-1.401-1.062ZM48.217 227.457c.556-1.184 1.79-2.313 3.009-2.751.706-.254 2.098-.204 2.833.1.261.109.733.428 1.048.709.316.281.737.613.937.738.812.505 1.137 1.696.908 3.327-.13.922-.12 1.009.133 1.26.228.227.258.371.185.89-.101.721-.646 2.007-.85 2.007-.078 0-.141.109-.141.243 0 .499-.823 1.866-1.471 2.445-1.419 1.266-3.052 1.316-4.605.139-.567-.428-1.206-1.362-1.465-2.139-.114-.342-.323-.749-.464-.904-.332-.364-.639-1.386-.639-2.128 0-.465.053-.599.253-.651.216-.056.236-.127.133-.482-.23-.799-.14-2.084.196-2.803ZM97.802 227.5c.573-1.244 1.753-2.332 3.025-2.793.7-.253 2.095-.207 2.818.093.253.105.772.466 1.153.801.38.336.747.611.813.611.068 0 .271.194.454.431.443.577.628 1.757.471 3.003-.107.847-.094.981.11 1.129.165.12.225.33.209.74-.027.691-.53 2.08-.789 2.179-.102.039-.186.174-.186.3 0 .441-.813 1.837-1.349 2.319-.73.654-1.768 1.117-2.508 1.119-.815.001-2.06-.603-2.705-1.313-.49-.54-1.147-1.734-1.15-2.091 0-.094-.123-.3-.272-.459-.556-.593-.89-2.507-.489-2.798.16-.116.185-.377.13-1.345-.063-1.085-.038-1.27.265-1.926Z"/><path fill="#717171" d="M46.446 238.579c.837-.349 1.761-.78 2.054-.956.292-.176.596-.321.675-.321.079-.001.55 1.291 1.049 2.87.498 1.579.936 2.924.973 2.989.037.064.232-.331.433-.878l.365-.996-.384-.757c-.449-.883-.471-1.114-.147-1.511.293-.36 1.268-.491 1.754-.235.585.306.634.77.18 1.682l-.402.803.358 1.007c.197.553.39.952.428.887.039-.066.474-1.397.966-2.958.492-1.561.916-2.861.944-2.89.027-.029.664.245 1.415.609.751.363 1.72.802 2.154.976.434.173 1.033.553 1.333.843.798.775 1.012 1.55 1.102 3.994l.073 2.013H43.21l.075-2.013c.129-3.439.5-4.046 3.162-5.158ZM95.595 238.774c.72-.308 1.698-.761 2.173-1.007.476-.246.927-.452 1.004-.457.077-.005.518 1.194.98 2.664.73 2.317.952 3.116 1.117 3.104.103-.007.183-.328.349-.792l.367-1.022-.379-.746c-.443-.871-.465-1.103-.141-1.499.293-.36 1.268-.491 1.754-.235.587.308.635.769.173 1.693l-.407.815.373 1.008c.222.599.404.927.449.81.042-.109.471-1.446.954-2.971.483-1.524.903-2.797.933-2.828.03-.03.608.216 1.285.547.676.331 1.751.849 2.39 1.15 1.86.877 2.2 1.579 2.326 4.795l.076 1.947H92.812l.072-2.013c.117-3.317.5-4.017 2.711-4.963ZM66.85 246.748c-1.328-.247-1.61-2.051-.413-2.638.515-.252.644-.254 1.207-.021.468.194.869.778.869 1.265 0 .814-.869 1.542-1.663 1.394ZM86.802 246.62c-1.05-.562-1.008-1.999.075-2.551.411-.21.563-.208 1.113.02 1.231.511 1.092 2.218-.213 2.606-.462.137-.597.127-.975-.075ZM76.167 248.376c-.704-.831-.3-1.904.856-2.275.503-.161 1.281.292 1.534.893.614 1.46-1.357 2.6-2.39 1.382Z"/><path fill="#717171" fill-rule="evenodd" d="M72.33 211.507c1.259-.545 2.32-.817 3.907-.999.384-.044 2.265.016 2.736.088 1.564.237 3.139.796 4.435 1.575 2.791 1.676 4.773 4.337 5.54 7.439.172.693.31 1.523.31 1.863 0 .119.019.185.047.168.031-.019.047.265.047.817 0 .513-.018.857-.047.875-.026.016-.047.115-.047.22 0 .306-.134 1.144-.281 1.753a11.895 11.895 0 0 1-3.213 5.707c-1.867 1.859-4.168 3.009-6.838 3.419-.775.119-2.632.117-3.42-.004-3.508-.535-6.479-2.44-8.434-5.409-1.646-2.499-2.27-5.617-1.734-8.647.421-2.374 1.609-4.631 3.351-6.366 1.046-1.042 2.361-1.944 3.64-2.499Zm2.878 4.829a7.49 7.49 0 0 1 2.267-.592c1.338-.139 3.529.29 4.112.805.173.153.192.192.188.376-.007.262-.533 1.475-.705 1.626-.166.145-.337.136-1.099-.06-.926-.239-1.358-.304-2.02-.304-1.543 0-2.54.538-3.155 1.702l-.167.315 3.031.027.114.132c.108.125.114.165.114.742 0 .586-.005.615-.116.726l-.116.115h-3.401v.799h3.401l.116.116c.112.111.116.138.116.754 0 .615-.004.642-.116.754l-.116.115h-1.559c-1.105 0-1.559.015-1.559.052 0 .028.082.224.182.434.614 1.296 1.619 1.871 3.262 1.866.66-.001 1.038-.059 2.015-.304.785-.197.91-.205 1.074-.063.13.113.655 1.261.71 1.55.045.239-.072.434-.344.571-.635.32-1.75.604-2.704.688-1.534.136-3.177-.274-4.37-1.09-1.018-.696-1.865-1.894-2.278-3.222l-.15-.482h-.73c-.757 0-.96-.042-1.025-.214-.016-.042-.03-.35-.03-.685 0-.584.005-.614.116-.724.112-.112.138-.116.78-.116h.665l-.027-.775-.677-.024c-.444-.015-.659-.016-.761-.123-.102-.105-.095-.313-.094-.739 0-.409 0-.627.11-.744.126-.133.397-.132.982-.133h.77l.136-.387c.553-1.573 1.684-2.861 3.058-3.484Zm-10.023 6.609c-.009.239-.016.043-.016-.435s.007-.674.016-.434c.008.239.008.63 0 .869Z" clip-rule="evenodd"/><path fill="#F96559" d="m121.427 129.328 5.587 3.225v-6.451l-5.587 3.226Zm35.199 0h.558v-.559h-.558v.559Zm0 119.004v.558h.558v-.558h-.558Zm-35.199 0 5.587 3.225v-6.451l-5.587 3.226Zm5.029-118.446h30.17v-1.117h-30.17v1.117Zm29.611-.558v119.004h1.117V129.328h-1.117Zm.559 118.445h-30.17v1.117h30.17v-1.117Z"/><path fill="#F96559" d="m177.856 188.55-5.587-3.225v6.451l5.587-3.226Zm-21.23.559h16.202v-1.117h-16.202v1.117Z"/><g clip-path="url(#a)"><rect width="290.526" height="290.526" x="371.727" y="30.996" fill="#FBF9FA" rx="145.263"/><path fill="#EFEFEF" d="M550.511 30.996h111.741v290.526H550.511z"/><path fill="#717171" d="m469.021 292.53-1.206-1.743h-1.332v1.743h-1.448v-6.258h2.708c.554 0 1.034.093 1.439.278.412.184.727.447.948.786.22.34.331.742.331 1.207 0 .465-.114.867-.34 1.207-.221.334-.536.59-.948.769l1.404 2.011h-1.556Zm-.026-3.987c0-.352-.114-.62-.34-.805-.227-.19-.557-.286-.992-.286h-1.18v2.182h1.18c.435 0 .765-.096.992-.286.226-.191.34-.459.34-.805Zm7.226 1.6c0 .018-.009.143-.027.376h-3.638c.065.298.22.533.464.706.245.173.549.259.912.259.251 0 .471-.036.662-.107.196-.078.378-.197.545-.358l.742.805c-.453.518-1.114.777-1.985.777-.542 0-1.022-.104-1.439-.312a2.36 2.36 0 0 1-.965-.885 2.425 2.425 0 0 1-.34-1.279c0-.471.11-.894.331-1.269.226-.382.533-.677.921-.885a2.692 2.692 0 0 1 1.314-.322c.471 0 .897.101 1.278.304.381.203.679.495.894.876.22.376.331.814.331 1.314Zm-2.494-1.439c-.316 0-.581.089-.796.268a1.14 1.14 0 0 0-.393.733h2.369a1.16 1.16 0 0 0-1.18-1.001Zm6.265-1.055c.447 0 .852.104 1.216.313.369.203.658.492.867.867.208.37.313.802.313 1.296 0 .495-.105.93-.313 1.305-.209.37-.498.659-.867.867a2.452 2.452 0 0 1-1.216.304c-.614 0-1.097-.193-1.448-.581v2.244h-1.395v-6.543h1.332v.554c.346-.417.849-.626 1.511-.626Zm-.242 3.808c.358 0 .65-.119.876-.357.233-.245.349-.57.349-.975s-.116-.727-.349-.965c-.226-.245-.518-.367-.876-.367-.357 0-.652.122-.885.367-.226.238-.339.56-.339.965 0 .405.113.73.339.975.233.238.528.357.885.357Zm5.86 1.144a2.95 2.95 0 0 1-1.368-.312 2.411 2.411 0 0 1-.939-.885 2.434 2.434 0 0 1-.34-1.279c0-.477.114-.903.34-1.278.227-.376.54-.668.939-.876a2.872 2.872 0 0 1 1.368-.322c.506 0 .959.107 1.358.322.4.208.712.5.939.876.226.375.34.801.34 1.278s-.114.903-.34 1.279c-.227.375-.539.67-.939.885a2.895 2.895 0 0 1-1.358.312Zm0-1.144c.357 0 .649-.119.876-.357.232-.245.348-.57.348-.975s-.116-.727-.348-.965a1.14 1.14 0 0 0-.876-.367c-.358 0-.653.122-.885.367-.233.238-.349.56-.349.965 0 .405.116.73.349.975.232.238.527.357.885.357Zm4.901-3.102c.167-.232.39-.408.67-.527.286-.119.614-.179.983-.179v1.287a5.011 5.011 0 0 0-.312-.018c-.4 0-.713.114-.939.34-.227.221-.34.554-.34 1.001v2.271h-1.394v-4.809h1.332v.634Zm5.75 3.942a1.487 1.487 0 0 1-.509.233 2.633 2.633 0 0 1-.626.071c-.572 0-1.016-.146-1.332-.438-.31-.292-.465-.721-.465-1.287v-1.975h-.742v-1.073h.742v-1.171h1.395v1.171h1.198v1.073h-1.198v1.957c0 .203.05.361.152.474.107.107.256.161.447.161.22 0 .408-.06.563-.179l.375.983Zm.783-4.576h1.395v4.809h-1.395v-4.809Zm.697-.671c-.256 0-.464-.074-.625-.223a.726.726 0 0 1-.242-.555c0-.22.081-.405.242-.554.161-.149.369-.223.625-.223.257 0 .465.071.626.214a.689.689 0 0 1 .242.537.774.774 0 0 1-.242.581c-.161.149-.369.223-.626.223Zm4.915.599c.596 0 1.076.179 1.439.536.37.358.555.888.555 1.592v2.753h-1.395v-2.539c0-.381-.083-.664-.25-.849-.167-.191-.408-.286-.724-.286-.352 0-.632.11-.841.331-.208.214-.313.536-.313.965v2.378h-1.394v-4.809h1.332v.563a1.8 1.8 0 0 1 .688-.465c.274-.113.575-.17.903-.17Zm8.271.072v4.004c0 .882-.229 1.538-.688 1.967-.459.429-1.129.644-2.011.644-.465 0-.906-.057-1.323-.17-.418-.113-.763-.277-1.037-.492l.554-1.001c.203.167.459.298.769.393.31.102.619.152.929.152.483 0 .838-.11 1.064-.331.233-.214.349-.542.349-.983v-.205c-.364.399-.87.598-1.52.598a2.61 2.61 0 0 1-1.216-.286 2.253 2.253 0 0 1-.867-.822 2.294 2.294 0 0 1-.322-1.216c0-.459.108-.864.322-1.215.215-.352.504-.623.867-.814.37-.197.775-.295 1.216-.295.697 0 1.228.23 1.591.688v-.616h1.323Zm-2.637 3.432c.37 0 .671-.107.903-.322.238-.22.358-.506.358-.858 0-.351-.12-.634-.358-.849-.232-.22-.533-.331-.903-.331-.369 0-.673.111-.912.331-.238.215-.357.498-.357.849 0 .352.119.638.357.858.239.215.543.322.912.322ZM558.303 122.014h1.448v6.257h-1.448v-6.257Zm5.758 1.376c.596 0 1.075.179 1.439.537.369.357.554.888.554 1.591v2.753h-1.394v-2.539c0-.381-.084-.664-.251-.849-.167-.191-.408-.286-.724-.286-.351 0-.631.11-.84.331-.209.214-.313.536-.313.965v2.378h-1.394v-4.809h1.332v.563c.184-.203.414-.358.688-.465.274-.113.575-.17.903-.17Zm6.359 4.649a1.505 1.505 0 0 1-.509.232 2.639 2.639 0 0 1-.626.072c-.572 0-1.016-.146-1.332-.438-.31-.292-.465-.721-.465-1.288v-1.975h-.742v-1.073h.742v-1.171h1.395v1.171h1.197v1.073h-1.197v1.957c0 .203.05.361.152.474.107.108.256.161.447.161.22 0 .408-.059.563-.179l.375.984Zm5.346-2.155c0 .018-.009.143-.027.376H572.1c.066.298.221.533.465.706.245.173.549.259.912.259.25 0 .471-.036.662-.107.196-.078.378-.197.545-.358l.742.805c-.453.518-1.115.778-1.985.778-.542 0-1.022-.105-1.439-.313a2.36 2.36 0 0 1-.965-.885 2.425 2.425 0 0 1-.34-1.279c0-.47.11-.893.331-1.269a2.35 2.35 0 0 1 .92-.885 2.71 2.71 0 0 1 1.315-.322c.47 0 .896.102 1.278.304.381.203.679.495.894.876.22.376.331.814.331 1.314Zm-2.495-1.439c-.315 0-.581.09-.795.268a1.136 1.136 0 0 0-.393.733h2.368a1.13 1.13 0 0 0-.393-.724 1.162 1.162 0 0 0-.787-.277Zm8.384-.983v4.005c0 .882-.229 1.537-.688 1.966-.459.429-1.129.644-2.011.644-.465 0-.906-.057-1.323-.17-.418-.113-.763-.277-1.037-.492l.554-1.001c.203.167.459.298.769.393.31.102.619.152.929.152.483 0 .838-.11 1.064-.33.233-.215.349-.543.349-.984v-.205c-.364.399-.87.599-1.52.599-.441 0-.846-.096-1.216-.286a2.263 2.263 0 0 1-.867-.823 2.291 2.291 0 0 1-.322-1.216c0-.458.108-.864.322-1.215.215-.352.504-.623.867-.814.37-.196.775-.295 1.216-.295.697 0 1.228.23 1.591.689v-.617h1.323Zm-2.637 3.432c.37 0 .671-.107.903-.321.238-.221.358-.507.358-.859 0-.351-.12-.634-.358-.849-.232-.22-.533-.33-.903-.33-.369 0-.673.11-.912.33-.238.215-.357.498-.357.849 0 .352.119.638.357.859.239.214.543.321.912.321Zm5.267-2.798c.167-.232.391-.408.671-.527.286-.119.613-.179.983-.179v1.288a4.99 4.99 0 0 0-.313-.018c-.399 0-.712.113-.939.339-.226.221-.339.555-.339 1.002v2.27h-1.395v-4.809h1.332v.634Zm4.397-.706c.745 0 1.317.179 1.716.537.399.351.599.885.599 1.6v2.744h-1.305v-.599c-.262.447-.751.671-1.466.671-.37 0-.691-.063-.966-.188a1.432 1.432 0 0 1-.616-.519 1.346 1.346 0 0 1-.215-.75c0-.447.167-.799.501-1.055.339-.257.861-.385 1.564-.385h1.108c0-.304-.092-.536-.277-.697-.184-.167-.461-.25-.831-.25-.256 0-.51.041-.76.125a1.938 1.938 0 0 0-.626.322l-.5-.975c.262-.184.575-.327.938-.429.37-.101.748-.152 1.136-.152Zm-.108 4.014c.239 0 .45-.054.635-.161a.92.92 0 0 0 .393-.492v-.491h-.956c-.572 0-.858.188-.858.563 0 .179.068.322.205.429.143.101.337.152.581.152Zm6.787.635a1.501 1.501 0 0 1-.51.232 2.624 2.624 0 0 1-.625.072c-.572 0-1.016-.146-1.332-.438-.31-.292-.465-.721-.465-1.288v-1.975h-.742v-1.073h.742v-1.171h1.394v1.171h1.198v1.073h-1.198v1.957c0 .203.051.361.152.474.108.108.257.161.447.161a.893.893 0 0 0 .564-.179l.375.984Zm.783-4.577h1.394v4.809h-1.394v-4.809Zm.697-.671c-.256 0-.465-.074-.626-.223a.724.724 0 0 1-.241-.554c0-.221.08-.406.241-.555.161-.149.37-.223.626-.223s.465.071.626.214a.688.688 0 0 1 .241.537c0 .232-.08.426-.241.581-.161.149-.37.223-.626.223Zm4.28 5.552c-.506 0-.962-.105-1.368-.313a2.402 2.402 0 0 1-.938-.885 2.425 2.425 0 0 1-.34-1.279c0-.476.113-.902.34-1.278.226-.375.539-.667.938-.876a2.889 2.889 0 0 1 1.368-.322c.507 0 .96.108 1.359.322.399.209.712.501.938.876.227.376.34.802.34 1.278 0 .477-.113.903-.34 1.279-.226.375-.539.67-.938.885a2.897 2.897 0 0 1-1.359.313Zm0-1.145c.358 0 .65-.119.876-.357.233-.245.349-.569.349-.975 0-.405-.116-.727-.349-.965-.226-.244-.518-.366-.876-.366s-.653.122-.885.366c-.232.238-.349.56-.349.965 0 .406.117.73.349.975.232.238.527.357.885.357Zm6.492-3.808c.596 0 1.076.179 1.44.537.369.357.554.888.554 1.591v2.753h-1.395v-2.539c0-.381-.083-.664-.25-.849-.167-.191-.408-.286-.724-.286-.352 0-.632.11-.84.331-.209.214-.313.536-.313.965v2.378h-1.395v-4.809h1.332v.563c.185-.203.414-.358.689-.465.274-.113.575-.17.902-.17Zm4.876 4.953c-.399 0-.79-.048-1.171-.143-.382-.102-.685-.227-.912-.376l.465-1.001c.214.137.474.25.778.34.304.083.602.125.894.125.59 0 .885-.146.885-.438 0-.137-.081-.236-.242-.295-.161-.06-.408-.11-.742-.152a7.128 7.128 0 0 1-.974-.206 1.54 1.54 0 0 1-.671-.411c-.184-.197-.277-.477-.277-.84 0-.304.087-.572.26-.805.178-.238.435-.423.768-.554.34-.131.739-.197 1.198-.197.34 0 .677.039 1.01.116.34.072.62.173.841.304l-.465.993a2.77 2.77 0 0 0-1.386-.358c-.298 0-.521.042-.67.125-.149.084-.224.191-.224.322 0 .149.081.253.242.313.161.06.417.116.768.17.394.065.716.137.966.214.25.072.468.206.652.403.185.196.278.47.278.822 0 .298-.09.563-.269.796-.178.232-.441.414-.786.545-.34.125-.745.188-1.216.188Zm-49.477 4.671h2.843c.679 0 1.278.131 1.797.393.524.256.93.62 1.216 1.091.292.47.438 1.019.438 1.644 0 .626-.146 1.174-.438 1.645a2.907 2.907 0 0 1-1.216 1.1c-.519.256-1.118.384-1.797.384h-2.843v-6.257Zm2.772 5.068c.625 0 1.123-.173 1.492-.518.376-.352.564-.826.564-1.422s-.188-1.066-.564-1.412c-.369-.352-.867-.527-1.492-.527h-1.323v3.879h1.323Zm9.226-1.198c0 .018-.009.143-.026.376h-3.639c.066.298.221.533.465.706.245.173.548.259.912.259.25 0 .471-.036.661-.107a1.67 1.67 0 0 0 .546-.358l.742.805c-.453.518-1.115.778-1.985.778-.542 0-1.022-.105-1.439-.313a2.36 2.36 0 0 1-.965-.885 2.425 2.425 0 0 1-.34-1.279c0-.47.11-.893.331-1.269a2.35 2.35 0 0 1 .92-.885 2.709 2.709 0 0 1 1.314-.322c.471 0 .897.102 1.279.304.381.203.679.495.894.876.22.376.33.814.33 1.314Zm-2.494-1.439c-.315 0-.581.09-.795.268a1.142 1.142 0 0 0-.394.733h2.369a1.13 1.13 0 0 0-.393-.724 1.164 1.164 0 0 0-.787-.277Zm8.109-.983-2.029 4.809h-1.439l-2.021-4.809h1.44l1.332 3.272 1.376-3.272h1.341Zm5.149 2.422c0 .018-.009.143-.027.376h-3.638c.066.298.221.533.465.706.244.173.548.259.912.259.25 0 .471-.036.661-.107a1.67 1.67 0 0 0 .546-.358l.742.805c-.453.518-1.115.778-1.985.778-.542 0-1.022-.105-1.439-.313a2.368 2.368 0 0 1-.966-.885 2.433 2.433 0 0 1-.339-1.279c0-.47.11-.893.33-1.269a2.36 2.36 0 0 1 .921-.885 2.703 2.703 0 0 1 1.314-.322c.471 0 .897.102 1.279.304.381.203.679.495.893.876.221.376.331.814.331 1.314Zm-2.494-1.439c-.316 0-.581.09-.795.268a1.142 1.142 0 0 0-.394.733h2.369a1.138 1.138 0 0 0-.393-.724 1.164 1.164 0 0 0-.787-.277Zm3.423-2.807h1.394v6.633h-1.394v-6.633Zm4.977 6.705c-.507 0-.963-.105-1.368-.313a2.402 2.402 0 0 1-.938-.885 2.425 2.425 0 0 1-.34-1.279c0-.476.113-.902.34-1.278.226-.375.539-.667.938-.876a2.883 2.883 0 0 1 1.368-.322c.506 0 .959.108 1.359.322.399.209.712.501.938.876.227.376.34.802.34 1.278 0 .477-.113.903-.34 1.279-.226.375-.539.67-.938.885-.4.208-.853.313-1.359.313Zm0-1.145c.357 0 .649-.119.876-.357.232-.245.349-.569.349-.975 0-.405-.117-.727-.349-.965a1.143 1.143 0 0 0-.876-.366c-.358 0-.653.122-.885.366-.233.238-.349.56-.349.965 0 .406.116.73.349.975.232.238.527.357.885.357Zm6.412-3.808a2.4 2.4 0 0 1 1.215.313c.37.203.659.492.868.867.208.37.312.802.312 1.296 0 .495-.104.93-.312 1.306a2.253 2.253 0 0 1-.868.867 2.457 2.457 0 0 1-1.215.304c-.614 0-1.097-.194-1.448-.581v2.243h-1.395v-6.543h1.332v.554c.346-.417.849-.626 1.511-.626Zm-.242 3.808c.358 0 .65-.119.876-.357.233-.245.349-.569.349-.975 0-.405-.116-.727-.349-.965-.226-.244-.518-.366-.876-.366-.357 0-.652.122-.885.366-.226.238-.339.56-.339.965 0 .406.113.73.339.975.233.238.528.357.885.357Zm8.282-1.314c0 .018-.009.143-.027.376h-3.638c.065.298.22.533.465.706.244.173.548.259.912.259.25 0 .47-.036.661-.107.197-.078.378-.197.545-.358l.742.805c-.453.518-1.114.778-1.984.778-.543 0-1.022-.105-1.439-.313a2.362 2.362 0 0 1-.966-.885 2.434 2.434 0 0 1-.34-1.279c0-.47.111-.893.331-1.269a2.36 2.36 0 0 1 .921-.885 2.703 2.703 0 0 1 1.314-.322c.471 0 .897.102 1.278.304.382.203.68.495.894.876.221.376.331.814.331 1.314Zm-2.494-1.439c-.316 0-.581.09-.796.268a1.145 1.145 0 0 0-.393.733h2.369a1.138 1.138 0 0 0-.393-.724 1.164 1.164 0 0 0-.787-.277Zm4.754-.349c.167-.232.391-.408.671-.527.286-.119.614-.179.983-.179v1.288a4.99 4.99 0 0 0-.313-.018c-.399 0-.712.113-.938.339-.227.221-.34.555-.34 1.002v2.27h-1.395v-4.809h1.332v.634ZM609.326 195.986c-.203.25-.45.441-.742.572a2.253 2.253 0 0 1-.948.197c-.465 0-.885-.102-1.26-.304-.376-.197-.805-.548-1.288-1.055a3.556 3.556 0 0 1-1.519-.545 3.13 3.13 0 0 1-1.037-1.127 3.242 3.242 0 0 1-.367-1.537c0-.614.146-1.165.438-1.654a3.142 3.142 0 0 1 1.225-1.162 3.677 3.677 0 0 1 1.761-.42c.649 0 1.234.14 1.752.42a3.149 3.149 0 0 1 1.672 2.816c0 .727-.206 1.365-.617 1.913a3.148 3.148 0 0 1-1.618 1.144c.149.155.292.265.429.331.143.071.295.107.456.107.387 0 .727-.155 1.019-.465l.644.769Zm-5.695-3.799c0 .387.084.733.25 1.037.173.304.409.542.707.715.298.167.631.25 1.001.25.369 0 .703-.083 1.001-.25.298-.173.53-.411.697-.715.173-.304.26-.65.26-1.037 0-.388-.087-.733-.26-1.037a1.767 1.767 0 0 0-.697-.706 1.958 1.958 0 0 0-1.001-.26c-.37 0-.703.087-1.001.26a1.83 1.83 0 0 0-.707.706c-.166.304-.25.649-.25 1.037Zm11.217-1.681v4.81h-1.323v-.573c-.185.209-.406.37-.662.483a2.133 2.133 0 0 1-.831.161c-.632 0-1.132-.182-1.502-.545-.369-.364-.554-.903-.554-1.618v-2.718h1.394v2.512c0 .775.325 1.162.975 1.162.333 0 .602-.107.804-.322.203-.22.304-.545.304-.974v-2.378h1.395Zm3.231-.071c.745 0 1.318.179 1.717.536.399.352.599.885.599 1.6v2.745h-1.305v-.599c-.263.447-.751.67-1.466.67-.37 0-.692-.063-.966-.188a1.44 1.44 0 0 1-.617-.518 1.351 1.351 0 0 1-.214-.751c0-.447.167-.799.5-1.055.34-.256.862-.384 1.565-.384H619c0-.304-.092-.537-.277-.698-.185-.166-.462-.25-.831-.25-.256 0-.51.042-.76.125a1.958 1.958 0 0 0-.626.322l-.5-.974c.262-.185.575-.328.938-.429.37-.102.748-.152 1.135-.152Zm-.107 4.013c.239 0 .45-.053.635-.16a.928.928 0 0 0 .393-.492v-.492h-.956c-.572 0-.858.188-.858.563 0 .179.068.322.205.429.143.102.337.152.581.152Zm3.685-5.765h1.394v6.633h-1.394v-6.633Zm2.689 1.823h1.394v4.81h-1.394v-4.81Zm.697-.67c-.256 0-.465-.075-.626-.224a.723.723 0 0 1-.241-.554c0-.22.08-.405.241-.554.161-.149.37-.224.626-.224s.465.072.626.215a.687.687 0 0 1 .241.536c0 .233-.08.426-.241.581-.161.149-.37.224-.626.224Zm5.093 5.247a1.506 1.506 0 0 1-.509.233 2.686 2.686 0 0 1-.626.071c-.572 0-1.016-.146-1.332-.438-.31-.292-.465-.721-.465-1.287v-1.976h-.742v-1.072h.742v-1.172h1.395v1.172h1.198v1.072h-1.198v1.958c0 .203.05.36.152.474.107.107.256.161.447.161.22 0 .408-.06.563-.179l.375.983Zm5.469-4.577-2.172 5.105c-.22.554-.494.944-.822 1.171-.322.226-.712.339-1.171.339a2.42 2.42 0 0 1-.742-.116 1.628 1.628 0 0 1-.599-.322l.509-.992a1.216 1.216 0 0 0 .787.304.723.723 0 0 0 .465-.143c.119-.089.226-.241.322-.456l.018-.045-2.083-4.845h1.439l1.35 3.263 1.359-3.263h1.34Zm-36.485 14.469h-2.906l-.554 1.341h-1.484l2.789-6.258h1.43l2.798 6.258h-1.519l-.554-1.341Zm-.456-1.1-.993-2.396-.992 2.396h1.985Zm4.655 2.512c-.4 0-.79-.048-1.171-.143-.382-.101-.686-.226-.912-.375l.465-1.002a3 3 0 0 0 .777.34c.304.084.602.125.894.125.59 0 .885-.146.885-.438 0-.137-.08-.235-.241-.295a3.632 3.632 0 0 0-.742-.152 7.145 7.145 0 0 1-.974-.205 1.546 1.546 0 0 1-.671-.412c-.185-.196-.277-.476-.277-.84 0-.304.086-.572.259-.804.179-.239.435-.424.769-.555.34-.131.739-.196 1.198-.196.34 0 .676.038 1.01.116.34.071.62.173.84.304l-.465.992a2.775 2.775 0 0 0-1.385-.357c-.298 0-.522.041-.671.125-.149.083-.223.19-.223.322 0 .148.08.253.241.312.161.06.418.117.769.17.393.066.715.137.966.215.25.071.467.205.652.402.185.197.277.471.277.822 0 .298-.089.564-.268.796-.179.232-.441.414-.787.545-.339.125-.745.188-1.215.188Zm4.749 0c-.4 0-.79-.048-1.171-.143-.382-.101-.686-.226-.912-.375l.465-1.002a3 3 0 0 0 .777.34c.304.084.602.125.894.125.59 0 .885-.146.885-.438 0-.137-.08-.235-.241-.295a3.632 3.632 0 0 0-.742-.152 7.145 7.145 0 0 1-.974-.205 1.546 1.546 0 0 1-.671-.412c-.185-.196-.277-.476-.277-.84 0-.304.086-.572.259-.804.179-.239.435-.424.769-.555.34-.131.739-.196 1.198-.196.34 0 .676.038 1.01.116.34.071.62.173.84.304l-.465.992a2.778 2.778 0 0 0-1.385-.357c-.298 0-.522.041-.671.125-.149.083-.223.19-.223.322 0 .148.08.253.241.312.161.06.417.117.769.17.393.066.715.137.966.215.25.071.467.205.652.402.185.197.277.471.277.822 0 .298-.089.564-.268.796-.179.232-.441.414-.787.545-.339.125-.745.188-1.215.188Zm7.976-4.881v4.81h-1.323v-.573c-.185.209-.406.37-.662.483a2.133 2.133 0 0 1-.831.161c-.632 0-1.132-.182-1.502-.545-.369-.364-.554-.903-.554-1.618v-2.718h1.394v2.512c0 .775.325 1.162.975 1.162.333 0 .602-.107.804-.322.203-.22.304-.545.304-.974v-2.378h1.395Zm2.624.635c.166-.233.39-.408.67-.527.286-.12.614-.179.983-.179v1.287a4.99 4.99 0 0 0-.313-.018c-.399 0-.712.113-.938.34-.227.22-.34.554-.34 1.001v2.271h-1.394v-4.81h1.332v.635Zm4.396-.706c.745 0 1.317.179 1.717.536.399.352.598.885.598 1.6v2.745h-1.305v-.599c-.262.447-.751.67-1.466.67-.369 0-.691-.063-.965-.188a1.44 1.44 0 0 1-.617-.518 1.352 1.352 0 0 1-.215-.751c0-.447.167-.799.501-1.055.34-.256.861-.384 1.564-.384h1.109c0-.304-.092-.537-.277-.698-.185-.166-.462-.25-.832-.25-.256 0-.509.042-.759.125a1.947 1.947 0 0 0-.626.322l-.501-.974c.262-.185.575-.328.939-.429a4.243 4.243 0 0 1 1.135-.152Zm-.107 4.013c.238 0 .45-.053.635-.16a.937.937 0 0 0 .393-.492v-.492h-.957c-.572 0-.858.188-.858.563 0 .179.069.322.206.429.143.102.337.152.581.152Zm6.608-4.013c.596 0 1.075.179 1.439.536.369.358.554.888.554 1.591v2.754h-1.394v-2.539c0-.382-.084-.665-.251-.849-.167-.191-.408-.286-.724-.286-.351 0-.631.11-.84.33-.209.215-.313.537-.313.966v2.378h-1.394v-4.81h1.332v.563c.184-.202.414-.357.688-.464.274-.114.575-.17.903-.17Zm5.634 4.952c-.513 0-.975-.104-1.386-.313a2.437 2.437 0 0 1-.956-.885 2.419 2.419 0 0 1-.34-1.278c0-.477.113-.903.34-1.278.232-.376.551-.668.956-.876a2.944 2.944 0 0 1 1.386-.322c.506 0 .947.107 1.323.322.381.208.658.509.831.902l-1.081.581c-.251-.441-.611-.661-1.082-.661a1.22 1.22 0 0 0-.903.358c-.238.238-.358.563-.358.974 0 .411.12.736.358.974.238.239.539.358.903.358.477 0 .837-.221 1.082-.662l1.081.59c-.173.382-.45.68-.831.894-.376.215-.817.322-1.323.322Zm7.607-2.458c0 .018-.009.143-.027.375h-3.638c.065.298.22.534.465.706.244.173.548.26.912.26.25 0 .47-.036.661-.108.197-.077.378-.196.545-.357l.742.804c-.453.519-1.114.778-1.984.778-.543 0-1.022-.104-1.439-.313a2.348 2.348 0 0 1-.966-.885 2.428 2.428 0 0 1-.34-1.278c0-.471.111-.894.331-1.269.227-.382.534-.677.921-.885a2.692 2.692 0 0 1 1.314-.322c.471 0 .897.101 1.278.304.382.202.68.494.894.876.221.375.331.813.331 1.314Zm-2.494-1.439c-.316 0-.581.089-.796.268a1.145 1.145 0 0 0-.393.733h2.369a1.136 1.136 0 0 0-.393-.724 1.164 1.164 0 0 0-.787-.277ZM564.031 269.172c-.65 0-1.237-.14-1.761-.421a3.163 3.163 0 0 1-1.225-1.153 3.207 3.207 0 0 1-.438-1.662c0-.614.146-1.165.438-1.654a3.142 3.142 0 0 1 1.225-1.162 3.677 3.677 0 0 1 1.761-.42c.649 0 1.233.14 1.752.42a3.146 3.146 0 0 1 1.671 2.816c0 .613-.149 1.168-.447 1.662a3.167 3.167 0 0 1-1.224 1.153c-.519.281-1.103.421-1.752.421Zm0-1.234c.369 0 .703-.083 1.001-.25.298-.173.53-.412.697-.715a2.06 2.06 0 0 0 .259-1.037c0-.388-.086-.733-.259-1.037a1.77 1.77 0 0 0-.697-.707 1.967 1.967 0 0 0-1.001-.259c-.37 0-.704.087-1.002.259a1.83 1.83 0 0 0-.706.707c-.167.304-.25.649-.25 1.037 0 .387.083.733.25 1.037a1.9 1.9 0 0 0 .706.715c.298.167.632.25 1.002.25Zm7.256-3.755c.447 0 .852.105 1.216.313.369.203.658.492.867.867.208.37.313.802.313 1.297 0 .494-.105.929-.313 1.305a2.257 2.257 0 0 1-.867.867 2.452 2.452 0 0 1-1.216.304c-.614 0-1.097-.194-1.448-.581v2.244h-1.395v-6.544h1.332v.554c.346-.417.85-.626 1.511-.626Zm-.241 3.809c.357 0 .649-.12.876-.358.232-.244.348-.569.348-.974 0-.406-.116-.727-.348-.966a1.143 1.143 0 0 0-.876-.366c-.358 0-.653.122-.885.366-.227.239-.34.56-.34.966 0 .405.113.73.34.974.232.238.527.358.885.358Zm8.281-1.314c0 .017-.009.143-.027.375h-3.638c.066.298.221.533.465.706.244.173.548.259.912.259.25 0 .471-.035.661-.107.197-.077.379-.196.546-.357l.742.804c-.453.519-1.115.778-1.985.778-.542 0-1.022-.104-1.439-.313a2.368 2.368 0 0 1-.966-.885 2.43 2.43 0 0 1-.339-1.278c0-.471.11-.894.33-1.27a2.36 2.36 0 0 1 .921-.885 2.709 2.709 0 0 1 1.314-.322c.471 0 .897.102 1.279.304.381.203.679.495.894.876.22.376.33.814.33 1.315Zm-2.494-1.44c-.316 0-.581.09-.795.269-.215.178-.346.423-.394.733h2.369a1.136 1.136 0 0 0-.393-.725 1.17 1.17 0 0 0-.787-.277Zm4.755-.348a1.55 1.55 0 0 1 .67-.528c.286-.119.614-.179.983-.179v1.288a5.011 5.011 0 0 0-.312-.018c-.4 0-.713.113-.939.34-.227.22-.34.554-.34 1.001v2.27h-1.394v-4.809h1.332v.635Zm4.396-.707c.745 0 1.317.179 1.717.537.399.351.599.885.599 1.6v2.744h-1.306v-.599c-.262.447-.751.671-1.466.671-.369 0-.691-.063-.965-.188a1.44 1.44 0 0 1-.617-.518 1.351 1.351 0 0 1-.214-.751c0-.447.166-.799.5-1.055.34-.256.861-.384 1.565-.384h1.108c0-.304-.092-.537-.277-.698-.185-.167-.462-.25-.831-.25-.257 0-.51.042-.76.125a1.947 1.947 0 0 0-.626.322l-.501-.974c.263-.185.575-.328.939-.43a4.284 4.284 0 0 1 1.135-.152Zm-.107 4.014c.238 0 .45-.053.635-.161a.926.926 0 0 0 .393-.491v-.492h-.957c-.572 0-.858.188-.858.563 0 .179.069.322.206.429.143.102.337.152.581.152Zm6.787.635a1.491 1.491 0 0 1-.51.232 2.633 2.633 0 0 1-.626.072c-.572 0-1.016-.146-1.332-.438-.31-.292-.465-.721-.465-1.287v-1.976h-.741v-1.073h.741v-1.171h1.395v1.171h1.198v1.073h-1.198v1.958c0 .202.051.36.152.473.107.108.256.161.447.161.22 0 .408-.059.563-.178l.376.983Zm.782-4.577h1.395v4.809h-1.395v-4.809Zm.698-.67c-.257 0-.465-.075-.626-.224a.724.724 0 0 1-.241-.554c0-.221.08-.405.241-.554.161-.149.369-.224.626-.224.256 0 .464.072.625.215a.687.687 0 0 1 .242.536.774.774 0 0 1-.242.581.883.883 0 0 1-.625.224Zm4.28 5.551c-.507 0-.963-.104-1.368-.313a2.411 2.411 0 0 1-.939-.885 2.43 2.43 0 0 1-.339-1.278c0-.477.113-.903.339-1.279.227-.375.54-.667.939-.876a2.883 2.883 0 0 1 1.368-.322c.506 0 .959.108 1.358.322.4.209.712.501.939.876.226.376.34.802.34 1.279 0 .476-.114.903-.34 1.278-.227.375-.539.67-.939.885a2.883 2.883 0 0 1-1.358.313Zm0-1.144c.357 0 .649-.12.876-.358.232-.244.348-.569.348-.974 0-.406-.116-.727-.348-.966a1.143 1.143 0 0 0-.876-.366c-.358 0-.653.122-.885.366-.233.239-.349.56-.349.966 0 .405.116.73.349.974.232.238.527.358.885.358Zm6.492-3.809c.596 0 1.076.179 1.439.537.37.357.554.888.554 1.591v2.753h-1.394v-2.538c0-.382-.084-.665-.25-.85-.167-.19-.409-.286-.725-.286-.351 0-.631.111-.84.331-.208.215-.313.536-.313.965v2.378h-1.394v-4.809h1.332v.563c.184-.202.414-.357.688-.465.274-.113.575-.17.903-.17Zm4.875 4.953c-.399 0-.789-.048-1.171-.143-.381-.101-.685-.227-.911-.376l.464-1.001c.215.137.474.25.778.34.304.083.602.125.894.125.59 0 .885-.146.885-.438 0-.137-.08-.235-.241-.295-.161-.06-.409-.11-.742-.152a7.146 7.146 0 0 1-.975-.206 1.537 1.537 0 0 1-.67-.411c-.185-.196-.277-.477-.277-.84 0-.304.086-.572.259-.805.179-.238.435-.423.769-.554.34-.131.739-.197 1.198-.197.339 0 .676.039 1.01.117.34.071.62.173.84.304l-.465.992a2.778 2.778 0 0 0-1.385-.358c-.298 0-.522.042-.671.125-.149.084-.223.191-.223.322 0 .149.08.254.241.313.161.06.417.116.769.17.393.066.715.137.965.215.251.071.468.205.653.402.185.196.277.471.277.822 0 .298-.089.563-.268.796-.179.232-.441.414-.787.545-.34.125-.745.188-1.216.188Zm-37.863 10.928-.009-3.754-1.841 3.093h-.653l-1.833-3.013v3.674h-1.358v-6.257h1.198l2.342 3.888 2.306-3.888h1.189l.018 6.257h-1.359Zm4.685-4.881c.745 0 1.317.179 1.716.537.399.351.599.885.599 1.6v2.744h-1.305v-.599c-.262.447-.751.671-1.466.671-.37 0-.691-.063-.965-.188a1.434 1.434 0 0 1-.617-.518 1.352 1.352 0 0 1-.215-.751c0-.447.167-.799.501-1.055.339-.256.861-.384 1.564-.384h1.109c0-.304-.093-.537-.278-.698-.184-.167-.461-.25-.831-.25-.256 0-.509.042-.76.125a1.942 1.942 0 0 0-.625.322l-.501-.974c.262-.185.575-.328.939-.43a4.278 4.278 0 0 1 1.135-.152Zm-.107 4.014c.238 0 .45-.053.634-.161a.928.928 0 0 0 .394-.491v-.492h-.957c-.572 0-.858.188-.858.563 0 .179.068.322.206.429.143.102.336.152.581.152Zm6.607-4.014c.596 0 1.076.179 1.44.537.369.357.554.888.554 1.591v2.753h-1.395v-2.538c0-.382-.083-.665-.25-.85-.167-.19-.408-.286-.724-.286-.352 0-.632.111-.84.331-.209.215-.313.536-.313.965v2.378h-1.395v-4.809h1.332v.563c.185-.202.414-.357.689-.465.274-.113.575-.17.902-.17Zm5.198 0c.745 0 1.317.179 1.716.537.399.351.599.885.599 1.6v2.744h-1.305v-.599c-.262.447-.751.671-1.466.671-.37 0-.691-.063-.966-.188a1.437 1.437 0 0 1-.616-.518 1.352 1.352 0 0 1-.215-.751c0-.447.167-.799.501-1.055.339-.256.861-.384 1.564-.384h1.108c0-.304-.092-.537-.277-.698-.184-.167-.462-.25-.831-.25-.256 0-.51.042-.76.125a1.958 1.958 0 0 0-.626.322l-.5-.974c.262-.185.575-.328.938-.43.37-.101.748-.152 1.136-.152Zm-.108 4.014c.239 0 .45-.053.635-.161a.922.922 0 0 0 .393-.491v-.492h-.956c-.572 0-.858.188-.858.563 0 .179.068.322.205.429.143.102.337.152.581.152Zm8.699-3.942v4.005c0 .882-.23 1.537-.689 1.966-.458.43-1.129.644-2.011.644-.465 0-.906-.057-1.323-.17-.417-.113-.763-.277-1.037-.491l.554-1.002c.203.167.459.298.769.394.31.101.62.152.93.152.483 0 .837-.111 1.064-.331.232-.215.348-.542.348-.983v-.206c-.363.399-.87.599-1.519.599-.441 0-.847-.095-1.216-.286a2.249 2.249 0 0 1-.867-.823 2.279 2.279 0 0 1-.322-1.215c0-.459.107-.864.322-1.216.214-.352.503-.623.867-.814a2.554 2.554 0 0 1 1.216-.295c.697 0 1.227.23 1.591.689v-.617h1.323Zm-2.637 3.433c.369 0 .67-.108.903-.322.238-.221.357-.507.357-.858 0-.352-.119-.635-.357-.85-.233-.22-.534-.33-.903-.33-.37 0-.674.11-.912.33-.238.215-.358.498-.358.85 0 .351.12.637.358.858.238.214.542.322.912.322Zm8.646-1.01c0 .017-.009.143-.027.375h-3.638c.065.298.22.533.464.706.245.173.549.259.912.259.251 0 .471-.035.662-.107.196-.077.378-.196.545-.357l.742.804c-.453.519-1.114.778-1.985.778-.542 0-1.022-.104-1.439-.313a2.36 2.36 0 0 1-.965-.885 2.421 2.421 0 0 1-.34-1.278c0-.471.11-.894.331-1.27.226-.381.533-.676.921-.885a2.703 2.703 0 0 1 1.314-.322c.471 0 .897.102 1.278.304.381.203.679.495.894.876.22.376.331.814.331 1.315Zm-2.494-1.44c-.316 0-.581.09-.796.269a1.138 1.138 0 0 0-.393.733h2.369a1.137 1.137 0 0 0-.394-.725 1.165 1.165 0 0 0-.786-.277Zm4.754-.348c.167-.233.39-.409.671-.528.286-.119.613-.179.983-.179v1.288a4.99 4.99 0 0 0-.313-.018c-.399 0-.712.113-.939.34-.226.22-.339.554-.339 1.001v2.27h-1.395v-4.809h1.332v.635ZM414.928 198.668l-.009-3.755-1.841 3.093h-.653l-1.832-3.012v3.674h-1.359v-6.258h1.198l2.342 3.889 2.306-3.889h1.189l.018 6.258h-1.359Zm6.964-1.341h-2.905l-.554 1.341h-1.484l2.789-6.258h1.43l2.798 6.258h-1.519l-.555-1.341Zm-.455-1.1-.993-2.395-.992 2.395h1.985Zm8.419-3.817c.554 0 1.034.093 1.439.277.411.185.727.447.948.787.22.34.33.742.33 1.207a2.2 2.2 0 0 1-.33 1.207 2.145 2.145 0 0 1-.948.786c-.405.179-.885.269-1.439.269h-1.261v1.725h-1.448v-6.258h2.709Zm-.081 3.353c.435 0 .766-.093.993-.278.226-.19.339-.458.339-.804 0-.352-.113-.62-.339-.805-.227-.19-.558-.286-.993-.286h-1.18v2.173h1.18Zm5.066-1.27c.167-.232.39-.408.67-.527.286-.119.614-.179.984-.179v1.287a5.03 5.03 0 0 0-.313-.018c-.4 0-.712.114-.939.34-.226.221-.34.554-.34 1.001v2.271h-1.394v-4.809h1.332v.634Zm4.728 4.246c-.507 0-.963-.104-1.368-.313a2.397 2.397 0 0 1-.939-.885 2.427 2.427 0 0 1-.339-1.278c0-.477.113-.903.339-1.278.227-.376.54-.668.939-.876a2.872 2.872 0 0 1 1.368-.322c.506 0 .959.107 1.358.322.4.208.713.5.939.876.226.375.34.801.34 1.278s-.114.903-.34 1.278a2.384 2.384 0 0 1-.939.885 2.883 2.883 0 0 1-1.358.313Zm0-1.144c.357 0 .649-.119.876-.357.232-.245.348-.57.348-.975s-.116-.727-.348-.965a1.14 1.14 0 0 0-.876-.367c-.358 0-.653.122-.885.367-.233.238-.349.56-.349.965 0 .405.116.73.349.975.232.238.527.357.885.357Zm3.211 2.879c-.488 0-.861-.09-1.117-.269l.375-1.01c.161.113.358.17.59.17a.519.519 0 0 0 .42-.179c.102-.113.152-.286.152-.518v-4.809h1.395v4.8c0 .56-.161 1.001-.483 1.323-.316.328-.76.492-1.332.492Zm1.118-7.286c-.257 0-.465-.074-.626-.223a.725.725 0 0 1-.241-.555c0-.22.08-.405.241-.554.161-.149.369-.223.626-.223.256 0 .464.071.625.214a.689.689 0 0 1 .242.537.774.774 0 0 1-.242.581c-.161.149-.369.223-.625.223Zm6.692 3.093c0 .018-.009.143-.027.376h-3.638c.065.297.22.533.465.706.244.173.548.259.911.259.251 0 .471-.036.662-.107.197-.078.378-.197.545-.358l.742.805c-.453.518-1.114.777-1.984.777-.543 0-1.022-.104-1.44-.313a2.352 2.352 0 0 1-.965-.885 2.428 2.428 0 0 1-.34-1.278c0-.471.111-.894.331-1.269.227-.382.533-.677.921-.885a2.692 2.692 0 0 1 1.314-.322c.471 0 .897.101 1.278.304.382.203.68.495.894.876.221.375.331.813.331 1.314Zm-2.494-1.439c-.316 0-.581.089-.796.268a1.145 1.145 0 0 0-.393.733h2.369a1.138 1.138 0 0 0-.393-.724 1.164 1.164 0 0 0-.787-.277Zm5.747 3.897c-.513 0-.975-.104-1.386-.313a2.447 2.447 0 0 1-.957-.885 2.427 2.427 0 0 1-.339-1.278c0-.477.113-.903.339-1.278.233-.376.552-.668.957-.876a2.944 2.944 0 0 1 1.386-.322c.506 0 .947.107 1.323.322.381.208.658.509.831.903l-1.082.581c-.25-.441-.611-.662-1.081-.662a1.22 1.22 0 0 0-.903.358c-.239.238-.358.563-.358.974 0 .411.119.736.358.975.238.238.539.357.903.357.476 0 .837-.22 1.081-.661l1.082.59a1.92 1.92 0 0 1-.831.894c-.376.214-.817.321-1.323.321Zm6.129-.304a1.483 1.483 0 0 1-.51.233 2.633 2.633 0 0 1-.626.071c-.572 0-1.016-.146-1.332-.438-.31-.292-.464-.721-.464-1.287v-1.975h-.742v-1.073h.742v-1.171h1.394v1.171h1.198v1.073h-1.198v1.957c0 .203.051.361.152.474.107.107.256.161.447.161.22 0 .408-.06.563-.179l.376.983Zm-40.011 11.233-.009-3.755-1.842 3.093h-.652l-1.833-3.012v3.674h-1.359v-6.258h1.198l2.342 3.889 2.307-3.889h1.189l.018 6.258h-1.359Zm4.685-4.881c.745 0 1.317.179 1.716.536.399.352.599.885.599 1.6v2.745h-1.305v-.599c-.262.447-.751.67-1.466.67a2.31 2.31 0 0 1-.966-.187 1.448 1.448 0 0 1-.617-.519 1.349 1.349 0 0 1-.214-.751c0-.447.167-.798.501-1.055.339-.256.861-.384 1.564-.384h1.108c0-.304-.092-.536-.277-.697-.184-.167-.462-.251-.831-.251-.256 0-.51.042-.76.126a1.936 1.936 0 0 0-.626.321l-.5-.974c.262-.185.575-.328.938-.429.37-.101.748-.152 1.136-.152Zm-.108 4.014c.239 0 .45-.054.635-.161a.92.92 0 0 0 .393-.492v-.491h-.956c-.572 0-.858.187-.858.563 0 .178.068.321.205.429.143.101.337.152.581.152Zm6.608-4.014c.596 0 1.076.179 1.439.536.37.358.555.888.555 1.592v2.753h-1.395v-2.539c0-.381-.083-.664-.25-.849-.167-.191-.408-.286-.724-.286-.352 0-.632.11-.841.331-.208.214-.312.536-.312.965v2.378h-1.395v-4.809h1.332v.563a1.8 1.8 0 0 1 .688-.465c.274-.113.575-.17.903-.17Zm5.197 0c.745 0 1.318.179 1.717.536.399.352.599.885.599 1.6v2.745h-1.305v-.599c-.263.447-.751.67-1.466.67a2.31 2.31 0 0 1-.966-.187 1.442 1.442 0 0 1-.617-.519 1.349 1.349 0 0 1-.214-.751c0-.447.167-.798.5-1.055.34-.256.862-.384 1.565-.384h1.108c0-.304-.092-.536-.277-.697-.185-.167-.462-.251-.831-.251-.256 0-.51.042-.76.126a1.936 1.936 0 0 0-.626.321l-.5-.974c.262-.185.575-.328.938-.429a4.29 4.29 0 0 1 1.135-.152Zm-.107 4.014c.239 0 .45-.054.635-.161a.92.92 0 0 0 .393-.492v-.491h-.956c-.572 0-.858.187-.858.563 0 .178.068.321.205.429.143.101.337.152.581.152Zm8.699-3.942v4.004c0 .882-.23 1.538-.689 1.967-.459.429-1.129.644-2.011.644-.465 0-.906-.057-1.323-.17-.417-.113-.763-.277-1.037-.492l.554-1.001c.203.167.459.298.769.393.31.102.62.152.93.152.482 0 .837-.11 1.063-.331.233-.214.349-.542.349-.983v-.206c-.364.4-.87.599-1.52.599-.441 0-.846-.095-1.215-.286a2.249 2.249 0 0 1-.868-.822 2.293 2.293 0 0 1-.321-1.216c0-.459.107-.864.321-1.216.215-.351.504-.622.868-.813a2.539 2.539 0 0 1 1.215-.295c.698 0 1.228.229 1.592.688v-.616h1.323Zm-2.638 3.432c.37 0 .671-.107.903-.322.239-.22.358-.506.358-.858 0-.351-.119-.634-.358-.849-.232-.221-.533-.331-.903-.331-.369 0-.673.11-.911.331-.239.215-.358.498-.358.849 0 .352.119.638.358.858.238.215.542.322.911.322Zm8.646-1.01c0 .018-.008.143-.026.376h-3.639c.066.297.221.533.465.706.245.173.548.259.912.259.25 0 .471-.036.662-.107.196-.078.378-.197.545-.358l.742.805c-.453.518-1.115.777-1.985.777-.542 0-1.022-.104-1.439-.313a2.346 2.346 0 0 1-.965-.885 2.419 2.419 0 0 1-.34-1.278c0-.471.11-.894.331-1.269.226-.382.533-.677.92-.885a2.697 2.697 0 0 1 1.314-.322c.471 0 .897.101 1.279.304.381.203.679.495.894.876.22.375.33.813.33 1.314Zm-2.494-1.439c-.315 0-.581.089-.795.268a1.142 1.142 0 0 0-.394.733h2.369a1.13 1.13 0 0 0-.393-.724 1.162 1.162 0 0 0-.787-.277Zm4.755-.349c.167-.232.39-.408.67-.527.286-.119.614-.179.984-.179v1.287a5.03 5.03 0 0 0-.313-.018c-.4 0-.712.114-.939.34-.226.221-.34.554-.34 1.001v2.271h-1.394v-4.809h1.332v.634Z"/><path fill="#717171" fill-rule="evenodd" d="M432.709 152.867c-.553.105-1.595.46-2.108.718-.534.268-.865.506-1.343.962-.896.856-1.491 1.967-1.848 3.455-.285 1.189-.336 1.736-.396 4.221-.067 2.829-.146 3.534-.532 4.769-.355 1.137-1.02 2.043-1.667 2.273-.171.06-.31.125-.31.144 0 .1.585.582 1.032.85 1.151.689 2.803 1.101 4.432 1.104l.659.001v.657l.001.657 1.804 5.255c.992 2.89 1.796 5.262 1.786 5.273-.01.01-.999-1.187-2.196-2.659l-2.178-2.677-.998.078a17.79 17.79 0 0 1-1.007.063c-.005-.007.317-.947.716-2.087.398-1.141.715-2.084.703-2.096-.012-.011-1.333.628-2.937 1.421-2.818 1.393-2.93 1.456-3.371 1.867-.661.616-1.138 1.407-1.287 2.135-.179.873-.772 4.22-.772 4.358 0 .101.062.234.151.322l.15.15h26.217l.15-.15a.508.508 0 0 0 .15-.322c0-.138-.592-3.485-.772-4.358-.149-.728-.625-1.519-1.285-2.134-.439-.409-.557-.475-3.366-1.866a401.692 401.692 0 0 0-2.927-1.442c-.009 0 .305.943.697 2.094.392 1.152.709 2.101.705 2.108a17.79 17.79 0 0 1-1.007-.063l-.998-.078-2.177 2.677c-1.198 1.472-2.186 2.669-2.196 2.659-.01-.01.78-2.346 1.756-5.191l1.774-5.173v-1.462l.689-.043c1.764-.109 3.281-.477 4.323-1.048.395-.217 1.11-.75 1.11-.829 0-.022-.062-.055-.137-.074-.262-.066-.907-.595-1.189-.974-.569-.764-.891-1.689-1.013-2.906-.057-.569-.05-1.009.043-2.495.128-2.03.084-3.277-.157-4.524-.555-2.873-1.958-4.39-4.118-4.454-.547-.017-.615-.032-.765-.174-.301-.285-1.077-.717-1.572-.875-.618-.197-1.716-.25-2.419-.117Z" clip-rule="evenodd"/><path fill="#717171" d="m470.24 105.923-.009-3.754-1.842 3.093h-.652l-1.833-3.013v3.674h-1.358v-6.257h1.197l2.342 3.888 2.307-3.888h1.189l.018 6.257h-1.359Zm4.685-4.881c.745 0 1.317.179 1.716.537.399.351.599.885.599 1.6v2.744h-1.305v-.599c-.262.447-.751.671-1.466.671-.37 0-.691-.063-.966-.188a1.432 1.432 0 0 1-.616-.519 1.346 1.346 0 0 1-.215-.75c0-.447.167-.799.501-1.055.339-.257.861-.385 1.564-.385h1.108c0-.304-.092-.536-.277-.697-.184-.167-.462-.25-.831-.25-.256 0-.51.041-.76.125a1.938 1.938 0 0 0-.626.322l-.5-.975c.262-.184.575-.327.938-.429.37-.101.748-.152 1.136-.152Zm-.108 4.014c.239 0 .45-.054.635-.161a.92.92 0 0 0 .393-.492v-.491h-.956c-.572 0-.858.187-.858.563 0 .179.068.322.205.429.143.101.337.152.581.152Zm5.017-3.308c.167-.232.39-.408.67-.527.287-.119.614-.179.984-.179v1.288a4.99 4.99 0 0 0-.313-.018c-.399 0-.712.113-.939.339-.226.221-.339.555-.339 1.002v2.27h-1.395v-4.809h1.332v.634Zm4.548 2.289-.67.661v1.225h-1.395V99.29h1.395v3.755l2.038-1.931h1.662l-2.002 2.038 2.181 2.771h-1.689l-1.52-1.886Zm8.338-.501c0 .018-.009.143-.027.376h-3.638c.065.298.22.533.465.706.244.173.548.259.911.259.251 0 .471-.036.662-.107.196-.078.378-.197.545-.358l.742.805c-.453.518-1.114.778-1.984.778-.543 0-1.022-.105-1.44-.313a2.36 2.36 0 0 1-.965-.885 2.425 2.425 0 0 1-.34-1.279c0-.47.11-.893.331-1.269.226-.381.533-.676.921-.885a2.703 2.703 0 0 1 1.314-.322c.471 0 .897.102 1.278.304.382.203.679.495.894.876.221.376.331.814.331 1.314Zm-2.494-1.439c-.316 0-.581.089-.796.268a1.14 1.14 0 0 0-.393.733h2.369a1.16 1.16 0 0 0-1.18-1.001Zm6.524 3.594a1.505 1.505 0 0 1-.509.232 2.639 2.639 0 0 1-.626.072c-.572 0-1.016-.146-1.332-.438-.31-.292-.465-.722-.465-1.288v-1.975h-.742v-1.073h.742v-1.171h1.395v1.171h1.197v1.073h-1.197v1.957c0 .203.05.361.152.474.107.108.256.161.447.161.22 0 .408-.059.563-.179l.375.984Zm.783-4.577h1.394v4.809h-1.394v-4.809Zm.697-.671c-.256 0-.465-.074-.626-.223a.728.728 0 0 1-.241-.554c0-.22.081-.406.241-.555.161-.149.37-.223.626-.223s.465.071.626.214a.688.688 0 0 1 .241.537c0 .232-.08.426-.241.581-.161.149-.37.223-.626.223Zm4.915.599c.596 0 1.076.179 1.439.537.37.357.554.888.554 1.591v2.753h-1.394v-2.539c0-.381-.084-.664-.251-.849-.166-.191-.408-.286-.724-.286-.351 0-.631.11-.84.331-.208.214-.313.536-.313.965v2.378h-1.394v-4.809h1.332v.563c.184-.203.414-.358.688-.465.274-.113.575-.17.903-.17Zm8.271.072v4.005c0 .882-.229 1.537-.688 1.966-.459.429-1.13.644-2.012.644a5.05 5.05 0 0 1-1.323-.17 2.89 2.89 0 0 1-1.037-.492l.555-1.001c.202.167.459.298.768.393.31.102.62.152.93.152.483 0 .837-.11 1.064-.33.232-.215.349-.543.349-.984v-.205c-.364.399-.871.599-1.52.599-.441 0-.846-.096-1.216-.286a2.263 2.263 0 0 1-.867-.823 2.282 2.282 0 0 1-.322-1.216c0-.458.107-.864.322-1.215.215-.352.504-.623.867-.814.37-.196.775-.295 1.216-.295.697 0 1.227.23 1.591.689v-.617h1.323Zm-2.637 3.432c.369 0 .67-.107.903-.321.238-.221.357-.507.357-.859 0-.351-.119-.634-.357-.849-.233-.22-.534-.331-.903-.331-.37 0-.673.111-.912.331-.238.215-.357.498-.357.849 0 .352.119.638.357.859.239.214.542.321.912.321Zm-66.511 11.036h-2.905l-.555 1.341h-1.484l2.789-6.257h1.431l2.798 6.257h-1.52l-.554-1.341Zm-.456-1.099-.992-2.396-.993 2.396h1.985Zm7.838-2.369v4.809h-1.323v-.572a1.897 1.897 0 0 1-.661.483 2.138 2.138 0 0 1-.832.161c-.631 0-1.132-.182-1.501-.546-.37-.363-.555-.903-.555-1.618v-2.717h1.395v2.512c0 .774.325 1.162.974 1.162.334 0 .602-.107.805-.322.203-.221.304-.545.304-.974v-2.378h1.394Zm4.394 4.577a1.505 1.505 0 0 1-.509.232 2.639 2.639 0 0 1-.626.072c-.572 0-1.016-.146-1.332-.438-.31-.292-.465-.722-.465-1.288v-1.975h-.742v-1.073h.742v-1.171h1.395v1.171h1.198v1.073h-1.198v1.957c0 .203.05.361.152.474.107.108.256.161.447.161.22 0 .408-.059.563-.179l.375.984Zm2.923.304c-.506 0-.962-.105-1.368-.313a2.402 2.402 0 0 1-.938-.885 2.425 2.425 0 0 1-.34-1.279c0-.476.113-.902.34-1.278.226-.375.539-.667.938-.876a2.889 2.889 0 0 1 1.368-.322c.507 0 .96.108 1.359.322.399.209.712.501.938.876.227.376.34.802.34 1.278 0 .477-.113.903-.34 1.279-.226.375-.539.67-.938.885a2.897 2.897 0 0 1-1.359.313Zm0-1.145c.358 0 .65-.119.876-.357.233-.245.349-.569.349-.975 0-.405-.116-.727-.349-.965a1.14 1.14 0 0 0-.876-.367 1.17 1.17 0 0 0-.885.367c-.232.238-.349.56-.349.965 0 .406.117.73.349.975.232.238.527.357.885.357Zm9.728-3.808c.602 0 1.079.179 1.431.537.357.351.536.882.536 1.591v2.753h-1.394v-2.539c0-.381-.081-.664-.242-.849-.155-.191-.378-.286-.67-.286-.328 0-.587.107-.778.322-.191.208-.286.521-.286.938v2.414h-1.395v-2.539c0-.757-.303-1.135-.911-1.135-.322 0-.578.107-.769.322-.191.208-.286.521-.286.938v2.414h-1.395v-4.809h1.332v.554c.179-.203.397-.358.653-.465.262-.107.548-.161.858-.161.34 0 .647.069.921.206a1.6 1.6 0 0 1 .661.581c.197-.25.444-.444.742-.581.304-.137.635-.206.992-.206Zm5.157 0c.745 0 1.317.179 1.716.537.399.351.599.885.599 1.6v2.744h-1.305v-.599c-.262.447-.751.671-1.466.671-.37 0-.691-.063-.966-.188a1.432 1.432 0 0 1-.616-.519 1.346 1.346 0 0 1-.215-.75c0-.447.167-.799.501-1.055.339-.257.861-.385 1.564-.385h1.109c0-.304-.093-.536-.278-.697-.184-.167-.461-.25-.831-.25-.256 0-.509.041-.76.125a1.922 1.922 0 0 0-.625.322l-.501-.975c.262-.184.575-.327.939-.429a4.278 4.278 0 0 1 1.135-.152Zm-.107 4.014c.238 0 .45-.054.634-.161a.927.927 0 0 0 .394-.492v-.491h-.957c-.572 0-.858.187-.858.563 0 .179.068.322.206.429.143.101.336.152.581.152Zm6.786.635a1.505 1.505 0 0 1-.509.232 2.639 2.639 0 0 1-.626.072c-.572 0-1.016-.146-1.332-.438-.31-.292-.465-.722-.465-1.288v-1.975h-.742v-1.073h.742v-1.171h1.395v1.171h1.197v1.073h-1.197v1.957c0 .203.05.361.152.474.107.108.256.161.447.161.22 0 .408-.059.563-.179l.375.984Zm.783-4.577h1.394v4.809h-1.394v-4.809Zm.697-.671c-.256 0-.465-.074-.626-.223a.728.728 0 0 1-.241-.554c0-.221.081-.406.241-.555.161-.149.37-.223.626-.223s.465.071.626.214a.688.688 0 0 1 .241.537c0 .232-.08.426-.241.581-.161.149-.37.223-.626.223Zm4.28 5.552c-.506 0-.962-.105-1.368-.313a2.402 2.402 0 0 1-.938-.885 2.425 2.425 0 0 1-.34-1.279c0-.476.113-.902.34-1.278.226-.375.539-.667.938-.876a2.889 2.889 0 0 1 1.368-.322c.507 0 .96.108 1.359.322.399.209.712.501.939.876.226.376.339.802.339 1.278 0 .477-.113.903-.339 1.279-.227.375-.54.67-.939.885a2.897 2.897 0 0 1-1.359.313Zm0-1.145c.358 0 .65-.119.876-.357.233-.245.349-.569.349-.975 0-.405-.116-.727-.349-.965a1.14 1.14 0 0 0-.876-.367c-.357 0-.652.123-.885.367-.232.238-.348.56-.348.965 0 .406.116.73.348.975.233.238.528.357.885.357Zm6.493-3.808c.595 0 1.075.179 1.439.537.369.357.554.888.554 1.591v2.753h-1.395v-2.539c0-.381-.083-.664-.25-.849-.167-.191-.408-.286-.724-.286-.352 0-.632.11-.84.331-.209.214-.313.536-.313.965v2.378h-1.395v-4.809h1.332v.563c.185-.203.415-.358.689-.465.274-.113.575-.17.903-.17Zm10.732 3.719v1.162h-4.845v-6.257h4.729v1.162h-3.29v1.358h2.905v1.127h-2.905v1.448h3.406Zm3.977-3.719c.596 0 1.076.179 1.439.537.37.357.555.888.555 1.591v2.753h-1.395v-2.539c0-.381-.083-.664-.25-.849-.167-.191-.408-.286-.724-.286-.352 0-.632.11-.841.331-.208.214-.312.536-.312.965v2.378h-1.395v-4.809h1.332v.563a1.8 1.8 0 0 1 .688-.465c.274-.113.575-.17.903-.17Zm8.271.072v4.005c0 .882-.229 1.537-.688 1.966-.459.429-1.129.644-2.011.644-.465 0-.906-.057-1.323-.17-.418-.113-.763-.277-1.037-.492l.554-1.001c.203.167.459.298.769.393.31.102.62.152.929.152.483 0 .838-.11 1.064-.33.233-.215.349-.543.349-.984v-.205c-.364.399-.87.599-1.52.599-.441 0-.846-.096-1.216-.286a2.263 2.263 0 0 1-.867-.823 2.291 2.291 0 0 1-.322-1.216c0-.458.108-.864.322-1.215.215-.352.504-.623.867-.814.37-.196.775-.295 1.216-.295.697 0 1.228.23 1.591.689v-.617h1.323Zm-2.637 3.432c.37 0 .671-.107.903-.321.238-.221.358-.507.358-.859 0-.351-.12-.634-.358-.849-.232-.22-.533-.331-.903-.331-.369 0-.673.111-.912.331-.238.215-.357.498-.357.849 0 .352.119.638.357.859.239.214.543.321.912.321Zm3.935-3.432h1.395v4.809h-1.395v-4.809Zm.698-.671c-.257 0-.465-.074-.626-.223a.725.725 0 0 1-.242-.554c0-.221.081-.406.242-.555.161-.149.369-.223.626-.223.256 0 .464.071.625.214a.689.689 0 0 1 .242.537.774.774 0 0 1-.242.581c-.161.149-.369.223-.625.223Zm4.914.599c.596 0 1.076.179 1.439.537.37.357.555.888.555 1.591v2.753h-1.395v-2.539c0-.381-.083-.664-.25-.849-.167-.191-.408-.286-.724-.286-.352 0-.632.11-.841.331-.208.214-.312.536-.312.965v2.378h-1.395v-4.809h1.332v.563a1.8 1.8 0 0 1 .688-.465c.274-.113.575-.17.903-.17Zm8.021 2.494c0 .018-.009.143-.027.376h-3.638c.066.298.22.533.465.706.244.173.548.259.912.259.25 0 .47-.036.661-.107.197-.078.379-.197.545-.358l.742.805c-.453.518-1.114.778-1.984.778-.542 0-1.022-.105-1.439-.313a2.362 2.362 0 0 1-.966-.885 2.434 2.434 0 0 1-.34-1.279c0-.47.111-.893.331-1.269a2.36 2.36 0 0 1 .921-.885 2.703 2.703 0 0 1 1.314-.322c.471 0 .897.102 1.278.304.382.203.68.495.894.876.221.376.331.814.331 1.314Zm-2.494-1.439c-.316 0-.581.089-.796.268a1.145 1.145 0 0 0-.393.733h2.369a1.138 1.138 0 0 0-.393-.724 1.164 1.164 0 0 0-.787-.277Zm8.133 1.439c0 .018-.008.143-.026.376h-3.639c.066.298.221.533.465.706.245.173.548.259.912.259.25 0 .471-.036.662-.107.196-.078.378-.197.545-.358l.742.805c-.453.518-1.115.778-1.985.778-.542 0-1.022-.105-1.439-.313a2.36 2.36 0 0 1-.965-.885 2.425 2.425 0 0 1-.34-1.279c0-.47.11-.893.331-1.269a2.35 2.35 0 0 1 .92-.885 2.709 2.709 0 0 1 1.314-.322c.471 0 .897.102 1.279.304.381.203.679.495.894.876.22.376.33.814.33 1.314Zm-2.494-1.439c-.315 0-.581.089-.795.268a1.136 1.136 0 0 0-.393.733h2.368a1.13 1.13 0 0 0-.393-.724 1.162 1.162 0 0 0-.787-.277Zm4.755-.349c.167-.232.39-.408.67-.527.286-.119.614-.179.984-.179v1.288a5.03 5.03 0 0 0-.313-.018c-.4 0-.712.113-.939.339-.226.221-.34.555-.34 1.002v2.27h-1.394v-4.809h1.332v.634Z"/><path fill="#717171" fill-rule="evenodd" d="M489.282 61.255a6.407 6.407 0 0 1 2.019.63c.475.233.688.388 1.129.82.933.916 1.277 1.777 1.278 3.203.002.916-.095 1.459-.432 2.437-.212.615-.216.642-.116.833.25.473-.025 1.087-.555 1.243-.227.067-.24.085-.241.325-.003.658-.3 1.421-.906 2.324-1.172 1.747-2.163 2.432-3.521 2.432-1.017 0-1.787-.355-2.526-1.166-1.204-1.32-1.901-2.624-1.901-3.557 0-.28-.006-.289-.248-.36-.371-.109-.638-.44-.638-.79 0-.155.044-.365.098-.468.094-.177.088-.216-.119-.788-.339-.938-.447-1.54-.442-2.465.003-.609.036-.923.134-1.281.418-1.522 1.499-2.578 3.194-3.121 1.025-.329 2.602-.433 3.793-.251Zm2.432 14.002c1.058.678 1.838 2.017 1.959 3.366.033.357.021.439-.081.55-.112.12-.163.127-.784.09a32.672 32.672 0 0 1-1.013-.076l-.347-.035.567.566.568.565h-1.247c-.687 0-1.248-.025-1.248-.054 0-.03.044-.177.099-.326.172-.47.593-2.147.695-2.769.054-.329.093-.908.087-1.294-.006-.385.009-.73.032-.767.081-.13.323-.067.713.184Zm-6.841-.184c.024.037.038.382.032.767-.006.386.033.965.087 1.294.102.622.523 2.3.695 2.769.055.15.1.296.1.326 0 .03-.562.054-1.248.054h-1.248l.568-.565.568-.566-.348.035c-.192.02-.647.054-1.012.076-.621.037-.672.03-.784-.09-.102-.111-.115-.193-.082-.55.122-1.356.896-2.684 1.959-3.367.391-.25.632-.312.713-.183Zm-2.48 1.03a5.676 5.676 0 0 0-.88 2.571c-.067.736.121 1.024.776 1.187.167.041.315.084.33.094.015.01-.04.088-.122.173l-.148.155h-5.418v-.423c0-1 .321-1.81.977-2.467.573-.575.99-.747 2.991-1.237a99.789 99.789 0 0 1 1.691-.406c.018 0-.071.159-.197.352Zm11.711-.07c.313.082 1.048.247 1.632.368 1.14.235 1.328.307 1.9.724.849.618 1.307 1.575 1.307 2.732v.426h-5.418l-.148-.155c-.082-.085-.136-.163-.122-.173.015-.01.163-.053.33-.094.405-.101.581-.223.711-.492.251-.518-.115-2.131-.698-3.079a3.686 3.686 0 0 1-.221-.388c0-.047.135-.022.727.132Zm-3.801.381c-.125 1.015-.299 1.787-.699 3.108l-.231.76h-2.875l-.064-.232c-.035-.128-.168-.58-.295-1.006-.237-.795-.503-2.017-.565-2.597l-.035-.328.266.209c.667.523 1.282.742 2.1.746.859.005 1.492-.213 2.166-.746l.268-.213-.036.299Zm10.585 4.676a.937.937 0 0 1 .458.772c0 .163-.584 1.855-1.748 5.06-.961 2.65-1.801 4.922-1.866 5.05a.853.853 0 0 1-.369.356c-.247.124-.354.125-9.426.125-9.072 0-9.179-.001-9.426-.125a.846.846 0 0 1-.368-.357c-.066-.127-.906-2.4-1.867-5.048-1.164-3.206-1.748-4.898-1.748-5.06 0-.3.183-.609.458-.773.204-.122.345-.124 12.951-.124s12.747.002 12.951.124Zm-12.113 4.907c.641.158 1.205.606 1.285 1.02.094.496-.4 1.029-1.173 1.262-.468.142-1.432.142-1.9 0-.774-.234-1.267-.766-1.172-1.265.06-.313.411-.661.872-.866.35-.155.482-.178 1.124-.193.4-.009.834.01.964.042ZM489.486 250.423a4.05 4.05 0 0 1 3.192-2.63c.092-.014 1.813-.022 3.825-.02 3.631.006 3.659.006 3.898.065.804.2 1.425.544 1.98 1.099.43.429.746.927.942 1.484.097.273.202.733.202.88 0 .06.011.093.028.083.035-.022.038.666.003.735a2.252 2.252 0 0 0-.07.338c-.263 1.689-1.711 3.063-3.451 3.275-.145.018-1.158.029-2.631.029h-2.395l-2.215 1.664h-.17c-.189 0-.28-.048-.37-.195-.045-.075-.053-.172-.065-.848l-.014-.764-.209-.069c-1.317-.44-2.328-1.584-2.629-2.977a2.584 2.584 0 0 1-.059-.621 4.765 4.765 0 0 0-.003-.415c.012-.432.066-.702.211-1.113Zm3.804 1.528a.618.618 0 0 1 .433-.795c.539-.148.974.438.688.926-.264.45-.956.369-1.121-.131Zm2.501-.198a.616.616 0 0 1 .488-.609c.176-.044.4.023.554.166a.571.571 0 0 1 .186.444c-.002.366-.254.623-.614.623s-.612-.257-.614-.624Zm2.589.29a.619.619 0 0 1 .412-.899c.224-.056.512.061.648.263.114.17.139.331.082.528-.084.29-.341.46-.659.437a.548.548 0 0 1-.483-.329Z" clip-rule="evenodd"/><path fill="#717171" d="M489.275 251.536c-.004-.034-.007.054-.007.226 0 .165.003.253.007.229a14.82 14.82 0 0 1-.002-.229c0-.081 0-.156.002-.226ZM478.82 259.64c.684-2.635 2.703-4.642 5.192-5.16.414-.086 1.614-.056 2.02.05.428.112.833.323 1.204.626.269.22.36.268.511.268.379.001.828.103 1.164.266.911.439 1.535 1.582 1.842 3.372.137.8.174 1.293.221 2.899.026.879.069 1.801.097 2.048.248 2.257.814 3.842 1.734 4.855.196.215.237.292.237.443 0 .298-.138.425-.758.699-.929.412-2.254.808-3.296.986-.195.034-.364.075-.374.092-.011.016.03.223.089.458l.109.428 2.165.539c2.315.577 2.736.713 3.349 1.077 1.184.704 2.039 1.712 2.518 2.969.146.383.312 1.078.313 1.316.001.093.021.147.05.129.079-.048.059.568-.024.732a.938.938 0 0 1-.176.236c-.1.09-.358.092-12.269.092h-12.167l-.135-.134c-.098-.097-.125-.135-.131-.342a.144.144 0 0 0 .007-.042 1.979 1.979 0 0 0-.005-.395c.075-1.805 1.164-3.558 2.844-4.557.62-.369 1.035-.503 3.356-1.081l2.165-.539.109-.429c.06-.236.099-.439.087-.451a8.16 8.16 0 0 0-.692-.156c-1.172-.234-2.457-.648-3.287-1.061-.535-.266-.598-.584-.201-1.018.901-.985 1.489-2.637 1.721-4.829.029-.266.073-1.068.099-1.783.049-1.355.102-1.795.312-2.603ZM472.307 278.147c-.008-.036-.014.048-.014.215 0 .148.005.231.012.222-.002-.067-.002-.151-.002-.26l.004-.177Z"/><path fill="#717171" fill-rule="evenodd" d="M582.233 88.03c-2.227.469-4.035 2.29-4.648 4.681-.187.733-.235 1.132-.279 2.361a34.87 34.87 0 0 1-.088 1.618c-.208 1.99-.735 3.488-1.541 4.382-.355.394-.299.682.18.924.743.374 1.893.751 2.943.963.329.066.608.13.619.141.011.011-.024.195-.078.409l-.098.389-1.937.49c-2.078.524-2.45.646-3.005.981-1.553.936-2.542 2.602-2.549 4.295-.002.407.003.43.119.546l.121.122h10.892c10.663 0 10.894-.002 10.984-.084a.884.884 0 0 0 .157-.214c.074-.149.092-.708.021-.664-.025.016-.044-.033-.044-.118-.002-.215-.15-.846-.28-1.193a5.258 5.258 0 0 0-2.254-2.694c-.549-.331-.926-.454-2.999-.977l-1.938-.49-.097-.388c-.054-.213-.09-.4-.081-.416.01-.015.161-.052.336-.083a13.684 13.684 0 0 0 2.95-.894c.555-.25.678-.365.678-.634 0-.138-.036-.208-.211-.403-.824-.918-1.331-2.357-1.553-4.405a39.745 39.745 0 0 1-.086-1.858c-.042-1.458-.076-1.904-.199-2.63-.274-1.625-.833-2.662-1.648-3.06a2.552 2.552 0 0 0-1.042-.241c-.136 0-.217-.044-.458-.243a2.828 2.828 0 0 0-1.078-.568c-.363-.097-1.438-.124-1.809-.046Zm-10.49 21.668c0 .18.007.254.017.164.009-.09.009-.238 0-.328-.01-.09-.017-.017-.017.164Z" clip-rule="evenodd"/><circle cx="593.532" cy="109.773" r="7.263" fill="#EFEFEF"/><path fill="#717171" fill-rule="evenodd" d="M597.445 104.79c-.653.19-1.314.733-2.382 1.953-.82.936-1.931 2.483-2.392 3.328l-.049.091.084.048c.047.026.293.281.547.566l.463.518.313-.231c1.441-1.063 3.217-2.828 3.941-3.917.362-.543.557-1.012.587-1.413.035-.447-.215-.842-.601-.953a.836.836 0 0 0-.511.01Zm-6.27 5.986c-.741.228-1.307.979-1.502 1.996-.058.299-.07.988-.023 1.294.058.378.119.62.172.679.09.099.146.076.338-.137.28-.309.585-.444 1.119-.492a2.8 2.8 0 0 0 .777-.159c.569-.211.993-.622 1.123-1.09a1.64 1.64 0 0 0 .011-.698c-.067-.283-.14-.396-.548-.845-.382-.421-.384-.423-.572-.5-.167-.07-.219-.079-.465-.087-.222-.006-.308.001-.43.039ZM619.934 157.321a5.464 5.464 0 0 0-1.882.595l-.509.261-.56.043c-2.226.17-3.392.927-3.792 2.461-.078.297-.093.485-.095 1.142-.002.665.06 1.586.129 1.926.014.071-.018.107-.146.164a1.404 1.404 0 0 0-.658.65c-.117.234-.134.313-.133.622.001.194.057.78.125 1.301.101.784.142.989.24 1.189.143.293.437.563.736.675l.221.082.119.476c.065.262.159.588.207.726.23.65.754 1.543 1.182 2.013l.213.234-.162.65-.162.649-1.938.49c-2.076.526-2.455.65-3.006.982a5.234 5.234 0 0 0-2.505 3.704 4.072 4.072 0 0 0-.056.733c.015.237.037.303.137.403l.118.119h10.888c10.66 0 10.891-.002 10.981-.084.159-.144.222-.328.222-.646 0-.166-.016-.293-.035-.281-.019.012-.059-.139-.09-.336-.226-1.459-1.157-2.81-2.491-3.614-.555-.335-.927-.456-3.004-.981l-1.937-.489-.149-.597-.148-.598.303-.361c.167-.198.386-.484.488-.636.395-.59.79-1.525.917-2.172.079-.402.082-.408.277-.496a1.44 1.44 0 0 0 .666-.645c.098-.2.139-.405.24-1.189a15.5 15.5 0 0 0 .125-1.301c.001-.31-.016-.388-.135-.626-.133-.268-.443-.572-.649-.638-.102-.032-.1-.001-.041-1.022l.044-.76.246-.267c.329-.356.478-.6.587-.961.162-.533.058-1.147-.305-1.802-.555-1.001-1.465-1.593-2.746-1.786-.526-.079-1.522-.08-2.077-.002Zm-12.425 21.634c0 .193.008.266.017.163.009-.103.009-.26-.001-.349-.009-.09-.016-.006-.016.186Z" clip-rule="evenodd"/><circle cx="629.289" cy="179.052" r="7.263" fill="#EFEFEF"/><path fill="#717171" fill-rule="evenodd" d="M628.815 174.055a3.517 3.517 0 0 0-1.12.344 3.56 3.56 0 0 0-1.833 2.258 3.55 3.55 0 0 0 .752 3.227c.284.336.46.67.537 1.024l.042.195h4.197l.013-.083c.037-.24.199-.635.352-.86a7.39 7.39 0 0 1 .241-.315c.237-.295.361-.488.501-.777a3.502 3.502 0 0 0 .304-2.113 3.561 3.561 0 0 0-1.194-2.076 3.617 3.617 0 0 0-2.792-.824Zm.342 1.19a.254.254 0 0 0-.123.125c-.05.105-.05.155.001.26.055.114.151.157.383.172.469.03.946.279 1.243.648.226.28.37.642.392.986.015.231.058.328.172.383.106.051.156.051.261 0 .129-.063.174-.17.156-.379-.052-.634-.269-1.115-.69-1.536-.424-.424-.919-.645-1.545-.689-.146-.011-.177-.007-.25.03Zm-4.645.372a.282.282 0 0 0-.147.377c.054.121.499.554.602.587.145.047.299-.034.358-.187.057-.151.025-.214-.254-.498-.229-.233-.344-.317-.436-.317a.416.416 0 0 0-.123.038Zm9.314-.001c-.046.021-.179.138-.318.28-.28.284-.312.347-.255.498.059.153.207.231.354.188.107-.032.549-.46.607-.588a.282.282 0 0 0-.148-.377c-.103-.047-.141-.047-.24-.001Zm-9.413 1.981c-.103.05-.152.136-.152.262 0 .128.05.214.155.263.098.047.753.047.851 0 .104-.049.155-.135.155-.263 0-.127-.051-.213-.155-.263-.098-.046-.759-.046-.854.001Zm8.895 0c-.102.05-.152.136-.152.262 0 .128.051.214.155.263.099.047.753.047.851 0 .105-.049.156-.135.156-.263 0-.127-.051-.213-.156-.263-.098-.046-.759-.046-.854.001Zm-8.378 1.558c-.046.021-.179.138-.318.28-.28.284-.312.347-.254.498.058.152.206.231.353.188.107-.032.549-.46.607-.588a.282.282 0 0 0-.147-.377c-.104-.047-.142-.047-.241-.001Zm8.478.001a.282.282 0 0 0-.148.377c.055.121.499.554.602.587.145.047.3-.034.359-.187.057-.151.025-.214-.255-.498-.228-.233-.344-.317-.436-.317a.42.42 0 0 0-.122.038Zm-6.185 2.739c0 .331.071.522.265.713a.815.815 0 0 0 .233.167c.085.037.115.061.123.098.065.293.213.562.43.778.18.18.362.295.592.375.142.049.184.054.423.054.24 0 .282-.005.423-.054.23-.08.412-.195.592-.375.217-.216.366-.485.43-.778.008-.037.038-.061.124-.098a.815.815 0 0 0 .233-.167c.193-.191.264-.382.264-.713l.001-.202h-4.133v.202ZM587.53 231.07a5.462 5.462 0 0 0-1.883.595l-.509.261-.56.043c-2.225.17-3.391.927-3.792 2.46-.077.298-.093.486-.095 1.143-.001.665.06 1.585.129 1.926.015.071-.018.107-.146.164a1.404 1.404 0 0 0-.658.65c-.117.234-.134.313-.132.622 0 .194.056.779.124 1.301.101.783.143.989.24 1.189.144.293.438.563.736.675l.221.082.119.476c.066.262.159.588.207.726.23.65.754 1.543 1.182 2.013l.213.234-.162.649-.162.65-1.937.49c-2.077.526-2.456.65-3.007.982a5.234 5.234 0 0 0-2.505 3.704 4.066 4.066 0 0 0-.056.733c.015.237.037.303.137.403l.118.119h10.889c10.659 0 10.89-.002 10.98-.084.159-.144.222-.328.222-.647 0-.166-.016-.292-.034-.28-.019.012-.06-.14-.09-.336-.227-1.46-1.158-2.81-2.492-3.614-.555-.335-.926-.456-3.004-.981l-1.937-.489-.148-.597-.149-.598.304-.361c.166-.198.386-.484.487-.636.395-.59.79-1.525.917-2.172.079-.402.082-.408.277-.496a1.44 1.44 0 0 0 .666-.645c.098-.2.139-.405.241-1.189a15.87 15.87 0 0 0 .124-1.301c.001-.31-.016-.388-.134-.626-.134-.268-.444-.573-.65-.638-.101-.032-.1-.001-.041-1.022l.044-.76.246-.267c.329-.356.478-.6.587-.961.162-.534.059-1.147-.305-1.803-.554-1.001-1.464-1.592-2.746-1.785-.526-.079-1.522-.08-2.076-.002Zm-12.426 21.634c0 .193.008.266.017.163a2.27 2.27 0 0 0 0-.35c-.01-.089-.017-.005-.017.187Z" clip-rule="evenodd"/><circle cx="596.884" cy="252.801" r="7.263" fill="#EFEFEF"/><path fill="#717171" fill-rule="evenodd" d="M596.121 247.817a.33.33 0 0 0-.111.112c-.019.038-.097.33-.174.648a8.82 8.82 0 0 1-.153.592 1.094 1.094 0 0 1-.151.063 4.023 4.023 0 0 0-.286.117l-.149.068-.518-.312c-.285-.171-.547-.317-.583-.324-.141-.026-.183.004-.683.508-.503.506-.52.53-.488.678.007.031.152.29.323.575l.31.518-.072.158a4.17 4.17 0 0 0-.12.294c-.035.1-.059.139-.094.152-.026.01-.278.075-.559.145-.282.07-.55.146-.597.17-.157.08-.16.095-.16.842 0 .746.003.761.16.841.047.024.315.1.597.17.281.07.533.135.559.145.035.013.059.052.094.153.026.074.08.206.12.293l.072.158-.311.519c-.171.286-.317.549-.323.585-.027.142.004.183.506.685.506.504.53.521.677.488.031-.006.289-.152.573-.323l.517-.311.129.06c.071.032.204.087.296.121l.166.063.15.589c.082.325.165.614.184.643.019.029.069.07.11.091.069.036.119.039.723.039.603 0 .653-.003.723-.039a.335.335 0 0 0 .109-.091 6.5 6.5 0 0 0 .185-.643l.149-.589.167-.063c.091-.034.224-.089.295-.121l.129-.06.518.312c.285.171.546.317.58.323.144.027.168.009.669-.49.503-.501.533-.542.507-.684-.007-.036-.152-.299-.323-.584l-.311-.519.059-.13c.033-.071.087-.204.121-.296l.062-.167.592-.148c.326-.081.623-.164.661-.185a.351.351 0 0 0 .117-.124l.049-.088v-.656c0-.376-.008-.653-.018-.647-.009.006-.028-.015-.041-.047a.277.277 0 0 0-.091-.1c-.039-.024-.323-.106-.668-.192l-.601-.15-.062-.167a4.846 4.846 0 0 0-.121-.296l-.059-.129.311-.52c.171-.285.316-.548.323-.584.026-.142-.004-.183-.507-.684-.505-.504-.529-.522-.676-.489-.032.007-.29.152-.574.323l-.517.311-.148-.068a4.225 4.225 0 0 0-.286-.117 1.133 1.133 0 0 1-.152-.063 8.82 8.82 0 0 1-.153-.592 7.857 7.857 0 0 0-.173-.648.333.333 0 0 0-.112-.112c-.075-.043-.09-.044-.733-.044-.644 0-.658.001-.734.044Zm.515 3.549a1.41 1.41 0 0 0-.811.423 1.355 1.355 0 0 0-.429 1.032c0 .418.131.733.429 1.032.298.298.612.429 1.03.429.418 0 .732-.131 1.03-.429.298-.299.429-.614.429-1.032 0-.419-.131-.734-.429-1.032-.199-.2-.384-.31-.639-.382a1.785 1.785 0 0 0-.61-.041Zm-4.771 1.455c0 .372.002.525.005.338.004-.186.004-.491 0-.677-.003-.187-.005-.034-.005.339Z" clip-rule="evenodd"/></g><path fill="#F96559" d="m274.512 189.668 5.587 3.225v-6.451l-5.587 3.226Zm112.858 0-5.587-3.226v6.451l5.587-3.225Zm-107.83.558h102.802v-1.117H279.54v1.117Z"/><path fill="#717171" d="M300.388 104.198h-2.002v-1.18h5.453v1.18h-2.003v5.077h-1.448v-5.077Zm4.027.268h1.394v4.809h-1.394v-4.809Zm.697-.671c-.256 0-.465-.074-.626-.223a.724.724 0 0 1-.241-.554c0-.221.08-.406.241-.555.161-.149.37-.223.626-.223s.465.071.626.214a.69.69 0 0 1 .241.537c0 .232-.08.426-.241.581-.161.149-.37.223-.626.223Zm4.316 5.552c-.513 0-.975-.105-1.386-.313a2.452 2.452 0 0 1-.956-.885 2.425 2.425 0 0 1-.34-1.279c0-.476.113-.902.34-1.278.232-.375.551-.667.956-.876a2.956 2.956 0 0 1 1.386-.322c.506 0 .947.108 1.323.322.381.209.658.51.831.903l-1.082.581c-.25-.441-.61-.661-1.081-.661-.364 0-.665.119-.903.357-.239.238-.358.563-.358.974 0 .412.119.736.358.975.238.238.539.357.903.357.476 0 .837-.22 1.081-.661l1.082.59a1.92 1.92 0 0 1-.831.894c-.376.214-.817.322-1.323.322Zm4.987-1.958-.67.661v1.225h-1.395v-6.633h1.395v3.755l2.038-1.931h1.662l-2.002 2.038 2.181 2.771h-1.689l-1.52-1.886Zm8.338-.501c0 .018-.009.143-.027.376h-3.638c.065.298.22.533.465.706.244.173.548.259.911.259.251 0 .471-.036.662-.107a1.65 1.65 0 0 0 .545-.358l.742.805c-.453.518-1.114.778-1.984.778-.543 0-1.022-.105-1.44-.313a2.36 2.36 0 0 1-.965-.885 2.425 2.425 0 0 1-.34-1.279c0-.47.11-.893.331-1.269.226-.381.533-.676.921-.885a2.703 2.703 0 0 1 1.314-.322c.471 0 .897.102 1.278.304.382.203.68.495.894.876.221.376.331.814.331 1.314Zm-2.494-1.439c-.316 0-.581.09-.796.268a1.145 1.145 0 0 0-.393.733h2.369a1.135 1.135 0 0 0-.394-.724 1.165 1.165 0 0 0-.786-.277Zm6.524 3.594a1.486 1.486 0 0 1-.509.232 2.639 2.639 0 0 1-.626.072c-.572 0-1.016-.146-1.332-.438-.31-.292-.465-.721-.465-1.288v-1.975h-.742v-1.073h.742v-1.171h1.395v1.171h1.197v1.073h-1.197v1.958c0 .202.05.36.152.473.107.108.256.161.447.161.22 0 .408-.059.563-.179l.375.984Zm5.469.339c-.495 0-.974-.065-1.439-.196-.459-.137-.829-.313-1.109-.528l.492-1.09c.268.196.587.354.956.474a3.6 3.6 0 0 0 1.109.178c.411 0 .715-.059.912-.178.196-.126.295-.29.295-.492a.451.451 0 0 0-.179-.367 1.232 1.232 0 0 0-.447-.241 8.432 8.432 0 0 0-.733-.197 10.2 10.2 0 0 1-1.171-.339 1.943 1.943 0 0 1-.787-.546c-.214-.25-.322-.584-.322-1.001 0-.363.099-.691.295-.983.197-.298.492-.534.885-.706.4-.173.885-.26 1.457-.26.4 0 .79.048 1.172.143.381.096.715.233 1.001.412l-.447 1.099c-.578-.328-1.156-.492-1.734-.492-.406 0-.707.066-.903.197a.602.602 0 0 0-.286.519c0 .214.11.375.33.482.227.102.57.203 1.028.304.477.114.868.227 1.171.34.304.113.564.292.778.536.221.245.331.575.331.993 0 .357-.101.685-.304.983-.197.292-.495.524-.894.697-.399.173-.885.259-1.457.259Zm8.232-4.916-2.172 5.104c-.22.554-.494.945-.822 1.171-.322.227-.712.34-1.171.34-.251 0-.498-.039-.742-.116a1.643 1.643 0 0 1-.599-.322l.509-.992c.108.095.23.169.367.223.143.054.283.081.42.081a.723.723 0 0 0 .465-.143c.119-.09.226-.242.322-.456l.018-.045-2.083-4.845h1.439l1.35 3.263 1.358-3.263h1.341Zm2.118 4.881c-.4 0-.79-.048-1.171-.143-.382-.102-.686-.227-.912-.376l.465-1.001c.214.137.473.25.777.34.304.083.602.125.894.125.59 0 .885-.146.885-.438 0-.137-.08-.236-.241-.295-.161-.06-.408-.11-.742-.152a7.128 7.128 0 0 1-.974-.206 1.534 1.534 0 0 1-.671-.411c-.185-.197-.277-.477-.277-.84 0-.304.086-.572.259-.805.179-.238.435-.423.769-.554.34-.131.739-.197 1.198-.197.34 0 .676.039 1.01.117.34.071.62.172.84.303l-.465.993a2.768 2.768 0 0 0-1.385-.358c-.298 0-.522.042-.671.125-.149.084-.223.191-.223.322 0 .149.08.253.241.313.161.06.417.116.769.17.393.065.715.137.965.214.251.072.468.206.653.403.185.196.277.47.277.822 0 .298-.089.563-.268.796-.179.232-.441.414-.787.545-.339.125-.745.188-1.215.188Zm6.232-.304a1.477 1.477 0 0 1-.509.232 2.633 2.633 0 0 1-.626.072c-.572 0-1.016-.146-1.332-.438-.31-.292-.465-.721-.465-1.288v-1.975h-.742v-1.073h.742v-1.171h1.395v1.171h1.198v1.073h-1.198v1.958c0 .202.051.36.152.473.107.108.256.161.447.161.22 0 .408-.059.563-.179l.375.984Zm5.346-2.155c0 .018-.009.143-.027.376h-3.638c.065.298.22.533.465.706.244.173.548.259.911.259.251 0 .471-.036.662-.107a1.65 1.65 0 0 0 .545-.358l.742.805c-.453.518-1.114.778-1.984.778-.543 0-1.022-.105-1.44-.313a2.36 2.36 0 0 1-.965-.885 2.434 2.434 0 0 1-.34-1.279c0-.47.111-.893.331-1.269.227-.381.533-.676.921-.885a2.703 2.703 0 0 1 1.314-.322c.471 0 .897.102 1.278.304.382.203.68.495.894.876.221.376.331.814.331 1.314Zm-2.494-1.439c-.316 0-.581.09-.796.268a1.145 1.145 0 0 0-.393.733h2.369a1.135 1.135 0 0 0-.394-.724 1.165 1.165 0 0 0-.786-.277Zm9.581-1.055c.602 0 1.079.179 1.431.537.357.351.536.882.536 1.591v2.753h-1.394v-2.539c0-.381-.081-.664-.242-.849-.155-.191-.378-.286-.67-.286-.328 0-.587.107-.778.322-.191.209-.286.521-.286.939v2.413h-1.395v-2.539c0-.756-.303-1.135-.911-1.135-.322 0-.578.107-.769.322-.191.209-.286.521-.286.939v2.413h-1.395v-4.809h1.332v.554c.179-.203.397-.358.653-.465.262-.107.548-.161.858-.161.34 0 .647.069.921.206a1.6 1.6 0 0 1 .661.581c.197-.25.444-.444.742-.581.304-.137.635-.206.992-.206ZM482.864 11.826l-.023-4.146-2.011 3.375h-.983l-2.001-3.263v4.034h-2.044V4.004h1.821l2.749 4.514 2.681-4.514h1.822l.022 7.822h-2.033Zm9.689-3.017-.034.525h-4.403c.09.313.261.555.514.726.261.164.585.246.973.246.29 0 .54-.04.748-.123.216-.082.432-.216.648-.402l1.118 1.162c-.589.656-1.449.984-2.581.984-.708 0-1.33-.135-1.866-.403a3.04 3.04 0 0 1-1.252-1.117 3.047 3.047 0 0 1-.436-1.62c0-.596.142-1.129.425-1.598.29-.477.689-.85 1.195-1.118a3.6 3.6 0 0 1 1.71-.402c.604 0 1.151.127 1.643.38.491.246.879.607 1.162 1.084.29.47.436 1.028.436 1.676Zm-3.23-1.631c-.327 0-.603.093-.827.279-.216.186-.353.44-.413.76h2.481a1.254 1.254 0 0 0-.425-.76c-.216-.186-.488-.28-.816-.28Zm6.231-.682c.216-.276.495-.48.838-.615a3.17 3.17 0 0 1 1.196-.212v1.91a4.347 4.347 0 0 0-.481-.033c-.454 0-.812.123-1.073.369-.253.246-.379.622-.379 1.129v2.782h-2.124V5.77h2.023v.726Zm5.659 3.207-.626.637v1.486h-2.123V3.535h2.123V7.88l2.168-2.111h2.514l-2.514 2.592 2.726 3.464h-2.57l-1.698-2.123Zm11.171-3.933v6.056h-2.022v-.648a2.18 2.18 0 0 1-.805.558c-.313.127-.644.19-.994.19-.783 0-1.408-.23-1.878-.692-.461-.462-.692-1.155-.692-2.079V5.77h2.123v3.039c0 .454.085.786.257.994.171.209.421.313.748.313.336 0 .608-.115.816-.346.216-.238.324-.6.324-1.084V5.77h2.123Zm5.178-.101c.551 0 1.05.127 1.497.38.455.253.812.618 1.073 1.095.268.47.402 1.017.402 1.643 0 .625-.134 1.177-.402 1.653a2.788 2.788 0 0 1-1.073 1.107c-.447.253-.946.38-1.497.38-.797 0-1.393-.235-1.788-.704v.603h-2.022V3.535h2.123v2.76c.41-.417.972-.626 1.687-.626Zm-.447 4.57c.373 0 .678-.126.916-.38.239-.26.358-.618.358-1.072 0-.447-.119-.798-.358-1.05-.238-.254-.543-.38-.916-.38-.372 0-.678.126-.916.38-.239.252-.358.603-.358 1.05 0 .454.119.812.358 1.072.238.254.544.38.916.38Zm9.424-4.48h-2.403V4.003h7.006v1.754h-2.391v6.068h-2.212V5.758Zm10.906 3.05-.033.525h-4.403c.09.313.261.555.514.726.261.164.585.246.972.246.291 0 .54-.04.749-.123.216-.082.432-.216.648-.402l1.118 1.162c-.589.656-1.449.984-2.582.984-.707 0-1.329-.135-1.866-.403a3.044 3.044 0 0 1-1.251-1.117 3.047 3.047 0 0 1-.436-1.62c0-.596.141-1.129.425-1.598.29-.477.689-.85 1.195-1.118a3.6 3.6 0 0 1 1.71-.402 3.53 3.53 0 0 1 1.642.38 2.77 2.77 0 0 1 1.163 1.084c.29.47.435 1.028.435 1.676Zm-3.229-1.631a1.25 1.25 0 0 0-.827.279 1.27 1.27 0 0 0-.413.76h2.48a1.248 1.248 0 0 0-.424-.76c-.216-.186-.488-.28-.816-.28Zm6.626-1.509c1.005 0 1.773.23 2.302.693.528.454.793 1.154.793 2.1v3.364h-1.978v-.782c-.305.588-.901.883-1.788.883-.469 0-.875-.082-1.218-.246a1.864 1.864 0 0 1-.782-.66 1.822 1.822 0 0 1-.257-.96c0-.574.22-1.017.659-1.33.44-.32 1.118-.48 2.034-.48h1.207c-.037-.641-.466-.962-1.285-.962-.291 0-.585.049-.883.146-.298.089-.551.216-.76.38l-.715-1.442a3.869 3.869 0 0 1 1.218-.514c.484-.127.968-.19 1.453-.19Zm-.079 4.917c.246 0 .462-.06.649-.18a.996.996 0 0 0 .402-.524v-.526h-.916c-.619 0-.928.205-.928.615 0 .186.071.335.212.447.142.112.336.168.581.168Zm12.403-4.917c.745 0 1.337.223 1.777.67.447.447.67 1.122.67 2.023v3.464h-2.123V8.708c0-.424-.082-.737-.246-.938-.156-.201-.38-.302-.67-.302-.321 0-.578.112-.771.335-.194.224-.291.563-.291 1.017v3.006h-2.123V8.708c0-.827-.305-1.24-.916-1.24-.328 0-.589.112-.782.335-.194.224-.291.563-.291 1.017v3.006h-2.123V5.77h2.023v.637c.223-.246.487-.429.793-.548.313-.127.652-.19 1.017-.19.424 0 .804.078 1.139.235.336.156.608.394.816.715.239-.306.54-.54.905-.704a2.887 2.887 0 0 1 1.196-.246ZM91.001 11.982c-.82 0-1.557-.171-2.212-.514a3.936 3.936 0 0 1-1.531-1.452c-.372-.619-.559-1.319-.559-2.101s.187-1.482.559-2.1a3.856 3.856 0 0 1 1.53-1.442c.656-.35 1.394-.525 2.213-.525.715 0 1.36.126 1.933.38.574.253 1.05.618 1.43 1.095l-1.407 1.273c-.507-.61-1.121-.916-1.844-.916-.424 0-.805.093-1.14.28-.327.186-.584.45-.77.793a2.432 2.432 0 0 0-.269 1.162c0 .44.09.83.268 1.173.187.336.444.596.771.782.335.187.716.28 1.14.28.723 0 1.337-.306 1.844-.916l1.408 1.273c-.38.477-.857.842-1.43 1.095-.574.254-1.219.38-1.934.38Zm4.25-8.447h2.123v8.29H95.25v-8.29Zm3.502 2.235h2.124v6.056h-2.124V5.77Zm1.062-.67c-.387 0-.7-.109-.939-.325a1.042 1.042 0 0 1-.357-.804c0-.32.119-.589.357-.805.239-.216.552-.324.939-.324.387 0 .7.104.939.313a.976.976 0 0 1 .357.782c0 .335-.119.615-.357.838-.239.216-.552.324-.939.324Zm8.632 3.709c0 .015-.011.19-.034.525h-4.402c.089.313.26.555.514.726.26.164.584.246.972.246.29 0 .54-.04.748-.123.216-.082.432-.216.648-.402l1.118 1.162c-.589.656-1.449.984-2.581.984-.708 0-1.33-.135-1.866-.403a3.04 3.04 0 0 1-1.252-1.117 3.056 3.056 0 0 1-.436-1.62c0-.596.142-1.129.425-1.598.29-.477.689-.85 1.196-1.118a3.593 3.593 0 0 1 1.709-.402c.604 0 1.151.127 1.643.38.491.246.879.607 1.162 1.084.29.47.436 1.028.436 1.676Zm-3.23-1.631c-.327 0-.603.093-.826.279-.217.186-.354.44-.414.76h2.481a1.25 1.25 0 0 0-.425-.76c-.216-.186-.488-.28-.816-.28Zm8.153-1.509c.752 0 1.356.223 1.81.67.462.447.693 1.122.693 2.023v3.464h-2.123V8.708c0-.827-.332-1.24-.995-1.24-.365 0-.659.12-.882.358-.216.238-.324.596-.324 1.072v2.928h-2.123V5.77h2.022v.659c.238-.246.522-.432.849-.559a2.81 2.81 0 0 1 1.073-.201Zm8.015 5.911a2.136 2.136 0 0 1-.659.257c-.254.06-.525.09-.816.09-.79 0-1.397-.194-1.821-.582-.425-.387-.637-.964-.637-1.732V7.58h-.883V5.993h.883V4.418h2.123v1.575h1.385V7.58h-1.385V9.59c0 .216.056.387.167.514.12.12.276.179.47.179.246 0 .462-.063.648-.19l.525 1.486Zm9.412-1.274h-3.308l-.614 1.52h-2.257l3.452-7.822h2.179l3.464 7.822h-2.302l-.614-1.52Zm-.648-1.631-1.006-2.503-1.006 2.503h2.012ZM140.7 5.77v4.95c0 1.125-.306 1.966-.916 2.525-.611.566-1.49.85-2.638.85a6.713 6.713 0 0 1-1.676-.202 3.964 3.964 0 0 1-1.329-.592l.771-1.486c.245.2.555.357.927.47.38.118.752.178 1.117.178.559 0 .969-.123 1.23-.369.26-.246.391-.61.391-1.095v-.201c-.41.477-1.01.715-1.799.715-.537 0-1.032-.12-1.486-.357a2.814 2.814 0 0 1-1.084-1.029c-.269-.446-.403-.96-.403-1.542 0-.573.134-1.08.403-1.52a2.71 2.71 0 0 1 1.084-1.027 3.07 3.07 0 0 1 1.486-.369c.864 0 1.497.28 1.899.838V5.77h2.023Zm-3.419 4.056c.379 0 .692-.116.938-.347.253-.23.38-.529.38-.894s-.123-.659-.369-.882c-.246-.231-.562-.347-.949-.347-.388 0-.708.116-.961.347-.246.223-.369.517-.369.882s.126.663.38.894c.253.231.57.347.95.347Zm10.973-1.017-.033.525h-4.403c.09.313.261.555.514.726.261.164.585.246.972.246.291 0 .54-.04.749-.123.216-.082.432-.216.648-.402l1.118 1.162c-.589.656-1.449.984-2.582.984-.707 0-1.329-.135-1.866-.403a3.044 3.044 0 0 1-1.251-1.117 3.047 3.047 0 0 1-.436-1.62c0-.596.142-1.129.425-1.598.29-.477.689-.85 1.195-1.118a3.6 3.6 0 0 1 1.71-.402 3.53 3.53 0 0 1 1.642.38 2.77 2.77 0 0 1 1.163 1.084c.29.47.435 1.028.435 1.676Zm-3.229-1.631a1.25 1.25 0 0 0-.827.279 1.27 1.27 0 0 0-.413.76h2.48a1.248 1.248 0 0 0-.424-.76c-.216-.186-.488-.28-.816-.28Zm8.153-1.509c.752 0 1.355.223 1.81.67.462.447.693 1.122.693 2.023v3.464h-2.123V8.708c0-.827-.332-1.24-.995-1.24-.365 0-.659.12-.883.358-.216.238-.324.596-.324 1.072v2.928h-2.123V5.77h2.023v.659c.238-.246.521-.432.849-.559a2.806 2.806 0 0 1 1.073-.201Zm7.018 6.258c-.67 0-1.27-.135-1.799-.403a3.057 3.057 0 0 1-1.24-1.117 3.047 3.047 0 0 1-.436-1.62c0-.604.145-1.14.436-1.61a2.98 2.98 0 0 1 1.24-1.106c.529-.268 1.129-.402 1.799-.402.685 0 1.278.149 1.777.447.499.29.853.696 1.061 1.218l-1.642.838c-.276-.544-.678-.816-1.207-.816-.38 0-.697.127-.95.38-.246.253-.369.604-.369 1.05 0 .455.123.813.369 1.073.253.254.57.38.95.38.529 0 .931-.272 1.207-.816l1.642.839a2.468 2.468 0 0 1-1.061 1.229c-.499.29-1.092.436-1.777.436Zm9.909-6.157-2.615 6.302c-.305.745-.678 1.266-1.117 1.564-.44.306-.976.458-1.609.458-.321 0-.645-.052-.972-.156a2.267 2.267 0 0 1-.783-.391l.738-1.486c.119.111.261.197.425.257.171.067.342.1.514.1a.887.887 0 0 0 .491-.123.924.924 0 0 0 .335-.39L162.92 5.77h2.179l1.486 3.698 1.497-3.698h2.023Zm6.114-.056v1.72h3.452v1.71h-3.452v2.682h-2.213V4.004h6.135v1.71h-3.922Zm4.856-2.18h2.123v8.292h-2.123V3.535Zm6.542 8.393a3.777 3.777 0 0 1-1.754-.403 3.072 3.072 0 0 1-1.229-1.117 3.047 3.047 0 0 1-.436-1.62c0-.596.145-1.133.436-1.61a3.014 3.014 0 0 1 1.218-1.106c.521-.268 1.11-.402 1.765-.402.656 0 1.244.134 1.766.402.521.261.927.63 1.218 1.107.29.469.435 1.005.435 1.609 0 .603-.145 1.143-.435 1.62-.291.477-.697.849-1.218 1.117-.522.268-1.11.403-1.766.403Zm0-1.688c.373 0 .678-.126.916-.38.239-.26.358-.618.358-1.072 0-.447-.119-.798-.358-1.05-.238-.254-.543-.38-.916-.38-.372 0-.678.126-.916.38-.239.252-.358.603-.358 1.05 0 .454.119.812.358 1.072.238.254.544.38.916.38Zm14.274-4.47-2.157 6.057h-2.056l-1.14-3.296-1.184 3.296h-2.056l-2.157-6.056h2.011l1.241 3.665 1.285-3.665h1.81l1.251 3.698 1.285-3.698h1.867Z"/><rect width="290.526" height="92.745" x="186.237" y="142.737" stroke="#F9AF59" stroke-dasharray="4.47 4.47" stroke-linecap="round" stroke-linejoin="round" stroke-width="2.235" rx="8.939"/><path fill="#717171" fill-rule="evenodd" d="M329.662 56.748c-.017.03-.152.533-.301 1.12-.329 1.298-.388 1.375-1.259 1.655-.336.108-.886.32-1.222.47-.891.401-1.058.375-2.323-.366l-.993-.58-.856.829-.856.83.131.212c.072.117.346.554.608.972.262.418.497.864.521.991.036.186-.026.38-.313.986-.197.415-.432.974-.522 1.243-.248.737-.356.808-1.741 1.137l-1.167.278-.02 1.157-.02 1.157.271.07c.15.038.667.164 1.15.28.891.212 1.192.343 1.318.572.039.07.167.393.285.719.118.325.344.851.502 1.168.158.317.287.641.286.72-.003.22-.215.625-.784 1.5l-.52.796.863.839.863.838.85-.492c.467-.27.953-.543 1.08-.605.309-.153.686-.144 1.028.025.155.077.315.14.356.14.05 0 .075-.555.075-1.65v-1.65l-.616-.56c-.906-.824-1.452-1.67-1.772-2.752-.232-.78-.232-2.194 0-2.975.312-1.053.852-1.905 1.714-2.703.583-.54 1.466-1.093 2.046-1.28.399-.128.784-.064 1.052.175.354.318.379.476.379 2.421v1.808l.533.429c.293.235.571.428.617.428.046 0 .324-.193.617-.428l.533-.429v-1.808c0-1.945.025-2.103.379-2.42.44-.394 1.029-.304 2.055.313 1.333.8 2.34 2.078 2.756 3.494.232.787.233 2.202.003 2.975-.323 1.082-.868 1.928-1.774 2.752l-.615.56v3.363l.377-.17c.645-.292.593-.309 2.766.918l.233.132.86-.838.86-.838-.604-.943c-.342-.533-.624-1.056-.649-1.203-.039-.219.012-.383.311-1.013.196-.413.426-.958.511-1.211.243-.724.377-.811 1.752-1.144l1.166-.282.02-1.162.019-1.163-1.097-.259c-1.559-.368-1.553-.364-1.893-1.29a18.844 18.844 0 0 0-.515-1.21c-.249-.53-.312-.736-.279-.908.024-.122.321-.659.661-1.192l.619-.97-.862-.837-.861-.837-.973.571c-1.347.79-1.419.804-2.216.418a12.724 12.724 0 0 0-1.168-.452c-1.053-.354-1.099-.41-1.452-1.802l-.277-1.09h-1.238c-.681 0-1.252.023-1.268.051Zm-2.303 8.19c-.563.635-.91 1.54-.91 2.371 0 1.22.691 2.415 1.84 3.183.785.525.706-.14.747 6.266.04 6.208.011 5.848.52 6.344.904.877 2.376.66 2.949-.434l.199-.381.053-5.564c.061-6.363-.02-5.707.765-6.231 1.714-1.145 2.299-3.07 1.446-4.76a4.24 4.24 0 0 0-.536-.803l-.286-.308-.003 1.187c-.003 1.04-.021 1.214-.14 1.404-.21.335-2.576 2.182-2.861 2.234-.482.088-.67-.01-1.95-1.026-.681-.54-1.294-1.065-1.362-1.165-.101-.15-.13-.409-.159-1.405l-.036-1.223-.276.312Zm-11.684 3.865c-.379.204-.362-.182-.365 8.683l-.003 8.257h4.834c4.678 0 4.842.005 5.066.138.297.176.313.203.803 1.363l.413.978h8.95l.42-1.005c.281-.673.493-1.077.642-1.222l.223-.217 4.923-.019 4.922-.019V77.5c0-8.956.02-8.527-.393-8.71-.104-.046-.494-.083-.868-.083h-.679l-.001.576c0 1.037-.23 1.255-1.673 1.587-1.625.373-1.439.273-1.702.913-.127.31-.214.604-.194.656.02.05.277.466.57.921.294.456.587.929.652 1.052a.938.938 0 0 1-.007.907c-.138.243-3.121 3.092-3.373 3.222-.087.045-.299.081-.473.081-.27 0-.48-.095-1.451-.656l-1.135-.655-.448.182-.449.181-.046.876a56.96 56.96 0 0 0-.046 2.32c0 1.642-.052 1.975-.419 2.71-1.045 2.09-3.818 2.737-5.814 1.353a4.046 4.046 0 0 1-1.248-1.484c-.317-.694-.352-1.037-.353-3.47l-.001-2.31-.472-.188-.472-.189-.948.552a36.73 36.73 0 0 1-1.177.665 1.123 1.123 0 0 1-.9.023c-.107-.047-.923-.786-1.812-1.643-1.718-1.654-1.775-1.732-1.666-2.265.025-.122.34-.678.699-1.237.734-1.139.708-.986.315-1.855l-.159-.352-1.258-.297c-.692-.164-1.331-.348-1.42-.408-.276-.189-.431-.626-.432-1.227l-.002-.541-.701.002c-.443.002-.764.037-.872.095Zm-3.171 21.028c0 2.24.02 2.366.393 2.532.269.119 35.742.121 36.01.002.101-.044.248-.187.327-.318.136-.223.144-.36.144-2.275v-2.039l-5.779.018-5.78.019-.217.505c-.119.278-.307.726-.419.996-.23.554-.342.722-.597.892-.164.11-.619.119-5.679.118-5.384 0-5.506-.003-5.738-.14-.251-.15-.393-.412-.912-1.692l-.276-.681h-11.477v2.063Zm.032.032c0 1.171.01 1.65.022 1.064.012-.585.012-1.544 0-2.13-.012-.585-.022-.106-.022 1.066Z" clip-rule="evenodd"/><defs><clipPath id="a"><rect width="290.526" height="290.526" x="371.727" y="30.996" fill="#fff" rx="145.263"/></clipPath></defs></svg>