<svg width="88" height="88" viewBox="0 0 88 88" fill="none" xmlns="http://www.w3.org/2000/svg">
<g filter="url(#filter0_d_407_179)">
<rect x="24" y="24" width="40" height="40" rx="20" fill="url(#paint0_linear_407_179)"/>
<path fill-rule="evenodd" clip-rule="evenodd" d="M45.941 33.6849L44.3909 35.235L42.9134 33.7581L41.436 32.2812H39.898H38.3601L35.2354 35.4062L32.1106 38.5312L32.9772 39.3978L33.8438 40.2643L36.6637 37.4447L39.4837 34.625H39.8994H40.315L40.8997 35.2112L41.4845 35.7975L38.5555 38.7267L35.6267 41.6559L36.493 42.5232L37.3594 43.3906V49.1641V54.9375H36.9688H36.5781V49.2734V43.6094H34.625H32.6719V49.2734V54.9375H32.4766H32.2812V55.3281V55.7188H44H55.7188V55.3281V54.9375H53.8315H51.9442L52.372 54.6689C53.7646 53.7946 54.7897 52.5254 55.3223 51.016C55.6097 50.2015 55.6897 49.694 55.6897 48.6875C55.6897 47.9385 55.6713 47.6992 55.5819 47.2867C55.0849 44.9937 53.5774 43.149 51.4372 42.2146L51.0557 42.048L53.3873 42.0475L55.7188 42.0469V39.6183V37.1896L54.9374 37.9699L54.1559 38.7502L53.2652 37.8595L52.3745 36.9688L53.0699 36.2734L53.7654 35.5779L54.5468 36.3582L55.3282 37.1385V34.7099V32.2812H52.8996H50.4709L51.2512 33.0627L52.0315 33.8441L51.3362 34.5395L50.6407 35.2349L49.0902 33.6848C48.2373 32.8323 47.5286 32.1348 47.5153 32.1348C47.502 32.1348 46.7935 32.8323 45.941 33.6849ZM35.9679 35.7967L33.234 38.5309L33.5391 38.8359L33.8441 39.141L36.493 36.4923L39.142 33.8438H39.898H40.6541L41.3506 34.539L42.0471 35.2342L42.3517 34.9296L42.6562 34.6251L41.8761 33.8438L41.0959 33.0625H39.8989H38.7018L35.9679 35.7967ZM52.7653 33.4537L53.1541 33.8448L50.335 36.664L47.5158 39.4832L45.3672 37.335L43.2186 35.1868L39.9841 38.4213L36.7496 41.6558L37.0547 41.9609L37.3597 42.266L40.2892 39.3368L43.2187 36.4076L45.3672 38.5557L47.5157 40.7038L50.6402 37.5796L53.7647 34.4554L54.1559 34.8442L54.547 35.2331V34.1478V33.0625H53.4617H52.3764L52.7653 33.4537ZM46.2218 34.5273L44.953 35.7967L45.2578 36.1015L45.5626 36.4063L46.5391 35.4307L47.5157 34.455L48.4923 35.4307L49.4688 36.4063L49.7736 36.1015L50.0783 35.7967L48.8096 34.5273C48.1117 33.8291 47.5295 33.2578 47.5157 33.2578C47.5019 33.2578 46.9196 33.8291 46.2218 34.5273ZM46.8074 36.2854L46.125 36.9692L46.8203 37.6646L47.5157 38.3599L48.2111 37.6646L48.9064 36.9692L48.2239 36.2854C47.8485 35.9093 47.5298 35.6016 47.5157 35.6016C47.5015 35.6016 47.1828 35.9093 46.8074 36.2854ZM41.1436 39.6055L39.0932 41.6562H40.1794H41.2657V48.2969V54.9375H41.6563H42.0469V52.9851C42.0469 51.0581 42.0454 51.0273 41.9273 50.6199C41.5743 49.4018 41.5743 47.9732 41.9273 46.7551L42.0469 46.3423V42.6321V38.9219H43.328H44.6091L43.9268 38.2383C43.5516 37.8623 43.2331 37.5547 43.2192 37.5547C43.2053 37.5547 42.2713 38.4775 41.1436 39.6055ZM51.4946 37.8482L51.2041 38.1418L52.3743 39.3127L53.5445 40.4836L53.1557 40.8746L52.767 41.2656H53.8523H54.9376V40.1803V39.0951L54.5466 39.4838L54.1556 39.8725L52.9959 38.7136C52.3581 38.0762 51.8247 37.5547 51.8107 37.5547C51.7966 37.5547 51.6544 37.6868 51.4946 37.8482ZM49.1293 40.2136L47.6429 41.7005L48.3274 41.6713C49.1035 41.6381 49.7311 41.7002 50.445 41.8811L50.9085 41.9984L51.6654 41.2416L52.4222 40.4847L51.5442 39.6056C51.0613 39.1221 50.6548 38.7266 50.6409 38.7266C50.627 38.7266 49.9468 39.3957 49.1293 40.2136ZM42.8282 42.2452V44.7873L43.1213 44.3983C43.5086 43.8842 44.2294 43.21 44.7477 42.877L45.1656 42.6084L45.1688 41.1558L45.1719 39.7031H44H42.8282V42.2452ZM45.9532 41.2337C45.9532 41.9889 45.9666 42.1959 46.0142 42.1763C46.238 42.0837 47.008 41.848 47.1725 41.8217C47.2819 41.8042 47.3807 41.7749 47.3921 41.7564C47.4034 41.738 47.0843 41.3951 46.683 40.9944L45.9532 40.2659V41.2337ZM38.2215 42.5268C38.1471 42.6089 38.1406 43.1127 38.1406 48.7768V54.9375H39.3125H40.4844V48.6875V42.4375H39.3933C38.3983 42.4375 38.2951 42.4454 38.2215 42.5268ZM47.9486 42.4882C45.3137 42.7958 43.1379 44.7947 42.5787 47.4212C42.4378 48.083 42.4248 49.1875 42.5505 49.8194C42.7194 50.6692 43.039 51.4569 43.493 52.1424L43.7267 52.4953L43.9149 52.2994C44.0319 52.1777 44.3056 52.002 44.6375 51.8355L45.1719 51.5675V51.3533C45.1719 51.2067 45.1143 51.018 44.9893 50.7556C44.8181 50.3964 44.8054 50.3376 44.7888 49.8284C44.7677 49.1804 44.843 48.8614 45.095 48.5313C45.2877 48.279 45.6505 48.0203 45.8748 47.9753C45.9854 47.9531 46.066 47.8835 46.1729 47.718C46.3008 47.5199 46.3951 47.4522 46.9175 47.1832L47.5157 46.8751V46.6633C47.5157 46.5193 47.4571 46.3288 47.3326 46.0681L47.1495 45.6846V45.0254C47.1495 44.2521 47.2136 44.0554 47.5877 43.6813C47.9205 43.3484 48.1825 43.2442 48.6876 43.2437C49.0298 43.2433 49.1452 43.2641 49.3455 43.3627C49.6552 43.5151 49.9537 43.8136 50.1061 44.1233C50.2151 44.3446 50.2257 44.4248 50.2257 45.0254V45.6846L50.0426 46.0681C49.918 46.3288 49.8594 46.5193 49.8594 46.6633V46.8751L50.4576 47.1832C50.9753 47.4498 51.0754 47.5213 51.2022 47.7152C51.3157 47.8886 51.393 47.9513 51.545 47.9928C51.9736 48.1098 52.4262 48.6049 52.5471 49.089C52.5807 49.2233 52.5971 49.539 52.5864 49.8458C52.5695 50.3337 52.5549 50.4 52.3857 50.7556C52.2609 51.0177 52.2032 51.2068 52.2032 51.3533V51.5675L52.7376 51.8355C53.0698 52.0021 53.3432 52.1777 53.4603 52.2996L53.6488 52.4957L53.9104 52.099C54.6637 50.9573 55.0324 49.4877 54.8994 48.1575C54.7899 47.0619 54.4678 46.1281 53.8996 45.2588C53.5089 44.6611 52.714 43.8662 52.1162 43.4754C50.8828 42.6692 49.402 42.3185 47.9486 42.4882ZM48.3439 44.1099C48.0287 44.2688 47.9063 44.5319 47.9063 45.0505C47.9063 45.4116 47.9231 45.4804 48.1016 45.8495C48.2671 46.1916 48.2969 46.3011 48.2969 46.5659C48.2969 46.8625 48.3042 46.8821 48.441 46.9528C48.5202 46.9938 48.6312 47.0273 48.6876 47.0273C48.744 47.0273 48.8549 46.9938 48.9341 46.9528C49.0709 46.8821 49.0782 46.8625 49.0782 46.5659C49.0782 46.3011 49.1081 46.1916 49.2735 45.8495C49.452 45.4804 49.4688 45.4116 49.4688 45.0505C49.4688 44.5319 49.3464 44.2688 49.0312 44.1099C48.9114 44.0494 48.7568 44 48.6876 44C48.6184 44 48.4637 44.0494 48.3439 44.1099ZM33.4531 49.6641V54.9375H34.625H35.7969V49.6641V44.3906H34.625H33.4531V49.6641ZM47.4353 47.7989L46.9886 48.0283L47.2077 48.1693C47.7228 48.5007 47.9263 48.9895 47.8984 49.8284C47.8815 50.3381 47.8688 50.3967 47.6947 50.7655C47.5512 51.0697 47.5127 51.2063 47.5246 51.3681L47.5401 51.5772L48.1138 51.8698L48.6876 52.1623L49.2613 51.8698L49.835 51.5772L49.8505 51.3681C49.8625 51.2063 49.8239 51.0697 49.6804 50.7655C49.5064 50.3967 49.4937 50.3381 49.4767 49.8284C49.4486 48.9813 49.6432 48.514 50.1695 48.1654L50.3871 48.0212L49.93 47.7942L49.4728 47.5671L49.2145 47.6874C48.8666 47.8493 48.5075 47.8489 48.1578 47.686C48.0142 47.6192 47.8933 47.5656 47.8893 47.5669C47.8852 47.5683 47.6809 47.6727 47.4353 47.7989ZM46.0002 48.7974C45.685 48.9563 45.5626 49.2194 45.5626 49.738C45.5626 50.0991 45.5793 50.1679 45.7579 50.537C45.9233 50.8791 45.9532 50.9886 45.9532 51.2534C45.9532 51.55 45.9605 51.5696 46.0972 51.6403C46.1765 51.6813 46.2874 51.7148 46.3438 51.7148C46.4002 51.7148 46.5111 51.6813 46.5904 51.6403C46.7272 51.5696 46.7344 51.55 46.7344 51.2534C46.7344 50.9886 46.7643 50.8791 46.9297 50.537C47.1083 50.1679 47.1251 50.0991 47.1251 49.738C47.1251 49.2194 47.0026 48.9563 46.6875 48.7974C46.5676 48.7369 46.413 48.6875 46.3438 48.6875C46.2746 48.6875 46.12 48.7369 46.0002 48.7974ZM50.6877 48.7974C50.3725 48.9563 50.2501 49.2194 50.2501 49.738C50.2501 50.0991 50.2669 50.1679 50.4454 50.537C50.6108 50.8791 50.6407 50.9886 50.6407 51.2534C50.6407 51.55 50.648 51.5696 50.7847 51.6403C50.864 51.6813 50.9749 51.7148 51.0313 51.7148C51.0877 51.7148 51.1987 51.6813 51.2779 51.6403C51.4147 51.5696 51.422 51.55 51.422 51.2534C51.422 50.9886 51.4518 50.8791 51.6173 50.537C51.7958 50.1679 51.8126 50.0991 51.8126 49.738C51.8126 49.2194 51.6902 48.9563 51.375 48.7974C51.2552 48.7369 51.1005 48.6875 51.0313 48.6875C50.9621 48.6875 50.8075 48.7369 50.6877 48.7974ZM45.0153 52.5225C44.4756 52.7964 44.3738 52.8954 44.3999 53.1209C44.4309 53.3892 45.4923 54.1234 46.3612 54.4776C46.782 54.6492 47.6227 54.8589 48.065 54.9026L48.2969 54.9255V53.9825C48.2969 53.4639 48.2757 52.9837 48.2498 52.9156C48.2148 52.8235 48.0647 52.7224 47.6666 52.5228L47.1306 52.2539L46.8714 52.3745C46.5228 52.5368 46.1641 52.5365 45.8141 52.3735C45.6704 52.3067 45.5496 52.2531 45.5455 52.2545C45.5415 52.2559 45.3028 52.3764 45.0153 52.5225ZM49.7028 52.5225C49.4152 52.6685 49.157 52.8307 49.1291 52.8829C49.0987 52.9397 49.0782 53.3704 49.0782 53.9531V54.9282L49.2857 54.9053C50.1646 54.8085 51.1761 54.473 51.8825 54.0439C52.4351 53.7082 52.9845 53.2545 52.9845 53.1338C52.9845 52.8808 52.8948 52.7939 52.3541 52.5228L51.8181 52.2539L51.559 52.3745C51.2103 52.5368 50.8516 52.5365 50.5016 52.3735C50.3579 52.3067 50.2371 52.2531 50.233 52.2545C50.229 52.2559 49.9904 52.3764 49.7028 52.5225ZM42.8282 53.7603V54.9375H44.1296H45.431L44.9967 54.6649C44.2308 54.184 43.5431 53.5541 43.0444 52.8767L42.8282 52.583V53.7603Z" fill="white"/>
</g>
<defs>
<filter id="filter0_d_407_179" x="0" y="0" width="88" height="88" filterUnits="userSpaceOnUse" color-interpolation-filters="sRGB">
<feFlood flood-opacity="0" result="BackgroundImageFix"/>
<feColorMatrix in="SourceAlpha" type="matrix" values="0 0 0 0 0 0 0 0 0 0 0 0 0 0 0 0 0 0 127 0" result="hardAlpha"/>
<feOffset/>
<feGaussianBlur stdDeviation="12"/>
<feComposite in2="hardAlpha" operator="out"/>
<feColorMatrix type="matrix" values="0 0 0 0 0 0 0 0 0 0 0 0 0 0 0 0 0 0 0.08 0"/>
<feBlend mode="normal" in2="BackgroundImageFix" result="effect1_dropShadow_407_179"/>
<feBlend mode="normal" in="SourceGraphic" in2="effect1_dropShadow_407_179" result="shape"/>
</filter>
<linearGradient id="paint0_linear_407_179" x1="36.3973" y1="64.4551" x2="36.3973" y2="26.2329" gradientUnits="userSpaceOnUse">
<stop stop-color="#F9AF59"/>
<stop offset="1" stop-color="#F96559"/>
</linearGradient>
</defs>
</svg>
