<svg width="16" height="17" viewBox="0 0 16 17" fill="none" xmlns="http://www.w3.org/2000/svg">
<path fill-rule="evenodd" clip-rule="evenodd" d="M8 16.5C12.4183 16.5 16 12.9183 16 8.5C16 4.08172 12.4183 0.5 8 0.5C3.58172 0.5 0 4.08172 0 8.5C0 12.9183 3.58172 16.5 8 16.5ZM4.75 7.75C4.33579 7.75 4 8.08579 4 8.5C4 8.91421 4.33579 9.25 4.75 9.25H9.3401L7.23966 11.2004C6.93613 11.4823 6.91855 11.9568 7.20041 12.2603C7.48226 12.5639 7.95681 12.5814 8.26034 12.2996L11.7603 9.04959C11.9132 8.90769 12 8.70855 12 8.5C12 8.29145 11.9132 8.09231 11.7603 7.9504L8.26034 4.7004C7.95681 4.41855 7.48226 4.43613 7.2004 4.73966C6.91855 5.04319 6.93613 5.51774 7.23966 5.7996L9.3401 7.75H4.75Z" fill="white"/>
</svg>
