<svg width="20" height="21" viewBox="0 0 20 21" fill="none" xmlns="http://www.w3.org/2000/svg">
<path fill-rule="evenodd" clip-rule="evenodd" d="M10.0082 18.1086C14.3304 18.1086 17.8343 14.6047 17.8343 10.2825C17.8343 5.96028 14.3304 2.45642 10.0082 2.45642C5.68599 2.45642 2.18213 5.96028 2.18213 10.2825C2.18213 14.6047 5.68599 18.1086 10.0082 18.1086ZM6.82887 9.54881C6.42366 9.54881 6.09517 9.8773 6.09517 10.2825C6.09517 10.6877 6.42366 11.0162 6.82887 11.0162H11.3192L9.26441 12.9242C8.96747 13.1999 8.95028 13.6642 9.226 13.9611C9.50173 14.258 9.96596 14.2752 10.2629 13.9995L13.6868 10.8202C13.8363 10.6813 13.9213 10.4865 13.9213 10.2825C13.9213 10.0785 13.8363 9.88368 13.6868 9.74486L10.2629 6.56551C9.96596 6.28979 9.50173 6.30698 9.226 6.60392C8.95028 6.90085 8.96747 7.36508 9.26441 7.64081L11.3192 9.54881H6.82887Z" fill="#F9AF59"/>
</svg>
