<svg width="25" height="24" viewBox="0 0 25 24" fill="none" xmlns="http://www.w3.org/2000/svg">
<path d="M12.4535 1.75413e-05C7.84315 -0.00797088 3.50372 2.71308 1.51221 7.0202L7.11196 7.03346V7.64302C5.38767 7.43649 5.5395 8.32772 5.7836 9.27366L9.45958 18.4435L12.1614 12.1396L10.9211 9.18532C10.4706 8.39404 10.4611 7.51619 8.61787 7.59886L8.64376 7.03714L16.8566 7.05703V7.68647C15.8948 7.74263 14.737 7.44579 15.3507 9.40619L18.6724 18.0908L20.4882 13.0208C21.0828 10.8955 20.5232 8.85299 19.8166 6.85015C19.4237 5.50652 19.6069 4.38442 21.3684 3.93929C18.6797 1.20765 15.5072 0.00531192 12.4536 1.75413e-05H12.4535ZM23.6234 8.01772L18.2988 21.832C19.7693 20.5644 21.277 20.103 23.122 16.5956C24.3495 13.6783 24.2231 10.9757 23.6234 8.0177V8.01772ZM0.948611 8.24152C0.428905 12.3197 0.476448 13.5142 1.76295 16.8445C3.43991 20.0341 4.74035 20.7061 6.58607 21.9572L0.948588 8.24152H0.948611ZM12.6614 13.4161L8.71547 22.8921C11.4853 23.679 13.9636 23.5805 16.2323 22.7051L12.6614 13.4161V13.4161Z" fill="#21759B"/>
</svg>
