<svg width="20" height="20" viewBox="0 0 20 20" fill="none" xmlns="http://www.w3.org/2000/svg">
<g clip-path="url(#clip0_49_1193)">
<path d="M10 20C15.5228 20 20 15.5228 20 10C20 4.47715 15.5228 0 10 0C4.47715 0 0 4.47715 0 10C0 15.5228 4.47715 20 10 20Z" fill="#3DB39E"/>
<path d="M18.3751 4.54691L9.53125 13.7032L9.54688 14.6876H9.95313L19.5313 6.96879C19.25 6.10943 18.8594 5.28129 18.3751 4.54691Z" fill="#37A18E"/>
<path d="M19.8126 4.10941L18.047 2.35939C17.8126 2.125 17.422 2.125 17.172 2.35939L9.62505 10.1563L6.3594 6.93754C6.12501 6.70315 5.73439 6.70315 5.48441 6.93754L3.92189 8.48443C3.6875 8.71882 3.6875 9.10944 3.92189 9.34383L9.14068 14.5157C9.28132 14.6563 9.46882 14.7032 9.65631 14.6876C9.84381 14.7032 10.0313 14.6563 10.1719 14.5157L19.8126 4.9844C20.047 4.73438 20.047 4.34375 19.8126 4.10941Z" fill="#F2F1EF"/>
<path d="M10.1719 14.5157L19.8126 4.98442C20.047 4.75003 20.047 4.35941 19.8126 4.12502L19.5314 3.85941L9.64068 13.5782L4.1719 8.25007L3.93751 8.48445C3.70312 8.71884 3.70312 9.10946 3.93751 9.34385L9.15631 14.5158C9.29695 14.6564 9.48444 14.7033 9.67194 14.6876C9.8438 14.7032 10.0313 14.6564 10.1719 14.5157Z" fill="#E6E5E3"/>
</g>
<defs>
<clipPath id="clip0_49_1193">
<rect width="20" height="20" fill="white"/>
</clipPath>
</defs>
</svg>
