<svg width="39" height="38" viewBox="0 0 39 38" fill="none" xmlns="http://www.w3.org/2000/svg">
<path fill-rule="evenodd" clip-rule="evenodd" d="M23.1055 2.49578L20.6253 4.97594L18.2614 2.61297L15.8975 0.25H13.4368H10.9761L5.97657 5.25L0.977036 10.2499L2.36352 11.6364L3.75 13.0229L8.26196 8.51148L12.7739 4H13.439H14.104L15.0395 4.93797L15.9751 5.87602L11.2888 10.5627L6.60266 15.2495L7.98883 16.6372L9.375 18.025V27.2625V36.5H8.75H8.125V27.4375V18.375H5H1.875V27.4375V36.5H1.5625H1.25V37.125V37.75H20H38.75V37.125V36.5H35.7302H32.7106L33.3951 36.0702C35.6233 34.6713 37.2634 32.6407 38.1155 30.2256C38.5753 28.9224 38.7034 28.1105 38.7034 26.5C38.7034 25.3016 38.674 24.9188 38.5309 24.2588C37.7356 20.5898 35.3238 17.6384 31.8995 16.1434L31.2891 15.8769L35.0195 15.8759L38.75 15.875V11.9892V8.10336L37.4997 9.35188L36.2494 10.6004L34.8242 9.17523L33.3991 7.75008L34.5117 6.63742L35.6245 5.52469L36.8747 6.77313L38.125 8.02164V4.13578V0.25H34.2392H30.3534L31.6019 1.50031L32.8503 2.75055L31.7377 3.8632L30.6251 4.97578L28.1441 2.4957C26.7796 1.13164 25.6457 0.015625 25.6244 0.015625C25.6031 0.015625 24.4695 1.13172 23.1055 2.49578ZM7.14868 5.87477L2.77446 10.2495L3.2625 10.7375L3.75055 11.2255L7.98883 6.98773L12.2271 2.75H13.4368H14.6465L15.7609 3.86242L16.8752 4.97477L17.3626 4.48742L17.8498 4.00016L16.6016 2.75008L15.3534 1.5H13.4381H11.5229L7.14868 5.87477ZM34.0243 2.12586L34.6465 2.75172L30.1359 7.26242L25.6252 11.773L22.1875 8.33594L18.7498 4.89883L13.5745 10.0741L8.3993 15.2493L8.88743 15.7374L9.37555 16.2255L14.0627 11.5388L18.7499 6.85211L22.1875 10.2891L25.6251 13.726L30.6242 8.72734L35.6234 3.72859L36.2492 4.35078L36.875 4.97289V3.23648V1.5H35.1385H33.4021L34.0243 2.12586ZM23.5548 3.84367L21.5248 5.87477L22.0124 6.36242L22.5001 6.85008L24.0625 5.28906L25.625 3.72805L27.1875 5.28906L28.7499 6.85008L29.2376 6.36242L29.7252 5.87477L27.6952 3.84367C26.5787 2.72648 25.6471 1.8125 25.625 1.8125C25.6029 1.8125 24.6713 2.72648 23.5548 3.84367ZM24.4918 6.65664L23.3998 7.7507L24.5124 8.86328L25.625 9.97586L26.7376 8.86328L27.8502 7.7507L26.7582 6.65664C26.1576 6.05484 25.6477 5.5625 25.625 5.5625C25.6023 5.5625 25.0924 6.05484 24.4918 6.65664ZM15.4297 11.9688L12.1491 15.25H13.887H15.625V25.875V36.5H16.25H16.875V33.3762C16.875 30.293 16.8725 30.2437 16.6836 29.5919C16.1188 27.6428 16.1188 25.3572 16.6836 23.4081L16.875 22.7477V16.8113V10.875H18.9248H20.9745L19.8828 9.78125C19.2824 9.17969 18.773 8.6875 18.7507 8.6875C18.7284 8.6875 17.234 10.1641 15.4297 11.9688ZM31.9913 9.15719L31.5265 9.62687L33.3988 11.5003L35.271 13.3737L34.6491 13.9994L34.0271 14.625H35.7635H37.5V12.8885V11.1521L36.8744 11.7741L36.2488 12.396L34.3933 10.5417C33.3728 9.52187 32.5195 8.6875 32.497 8.6875C32.4745 8.6875 32.2469 8.89883 31.9913 9.15719ZM28.2067 12.9417L25.8285 15.3209L26.9238 15.2741C28.1655 15.2209 29.1696 15.3204 30.3119 15.6097L31.0534 15.7975L32.2645 14.5865L33.4755 13.3755L32.0705 11.969C31.2979 11.1954 30.6475 10.5625 30.6253 10.5625C30.6031 10.5625 29.5148 11.6331 28.2067 12.9417ZM18.125 16.1923V20.2596L18.594 19.6373C19.2138 18.8147 20.367 17.736 21.1963 17.2031L21.8648 16.7734L21.8699 14.4492L21.875 12.125H20H18.125V16.1923ZM23.125 14.5739C23.125 15.7822 23.1465 16.1135 23.2227 16.082C23.5807 15.9339 24.8127 15.5568 25.0759 15.5147C25.2509 15.4867 25.409 15.4398 25.4272 15.4103C25.4454 15.3809 24.9348 14.8322 24.2927 14.1911L23.125 13.0254V14.5739ZM10.7543 16.6429C10.6354 16.7742 10.625 17.5803 10.625 26.6429V36.5H12.5H14.375V26.5V16.5H12.6293C11.0373 16.5 10.8722 16.5126 10.7543 16.6429ZM26.3177 16.5811C22.1019 17.0734 18.6206 20.2715 17.7259 24.4739C17.5005 25.5328 17.4797 27.3 17.6807 28.3111C17.951 29.6708 18.4623 30.931 19.1888 32.0278L19.5627 32.5925L19.8638 32.2791C20.0509 32.0844 20.4889 31.8032 21.02 31.5369L21.875 31.108V30.7652C21.875 30.5307 21.7827 30.2288 21.5827 29.8089C21.3089 29.2342 21.2886 29.1402 21.262 28.3254C21.2283 27.2887 21.3488 26.7782 21.752 26.2502C22.0602 25.8464 22.6408 25.4324 22.9995 25.3605C23.1766 25.3249 23.3055 25.2136 23.4766 24.9488C23.6813 24.6319 23.8321 24.5235 24.668 24.093L25.625 23.6002V23.2613C25.625 23.0309 25.5313 22.7261 25.332 22.3089L25.0391 21.6953V20.6406C25.0391 19.4033 25.1416 19.0886 25.7402 18.4902C26.2727 17.9575 26.6919 17.7908 27.5 17.7898C28.0476 17.7892 28.2322 17.8226 28.5527 17.9803C29.0483 18.2241 29.5259 18.7017 29.7697 19.1973C29.944 19.5514 29.9609 19.6796 29.9609 20.6406V21.6953L29.668 22.3089C29.4688 22.7261 29.375 23.0309 29.375 23.2613V23.6002L30.332 24.093C31.1604 24.5197 31.3206 24.6341 31.5234 24.9443C31.7049 25.2217 31.8288 25.322 32.072 25.3884C32.7576 25.5756 33.4817 26.3679 33.6752 27.1423C33.729 27.3573 33.7552 27.8623 33.7381 28.3533C33.711 29.134 33.6877 29.24 33.417 29.8089C33.2173 30.2284 33.125 30.5309 33.125 30.7652V31.108L33.98 31.5369C34.5115 31.8034 34.9491 32.0844 35.1364 32.2794L35.4379 32.5931L35.8566 31.9584C37.0617 30.1316 37.6517 27.7803 37.4389 25.652C37.2637 23.899 36.7484 22.4049 35.8393 21.0141C35.2141 20.0577 33.9423 18.7859 32.9859 18.1607C31.0123 16.8708 28.643 16.3095 26.3177 16.5811ZM26.9502 19.1758C26.4459 19.4301 26.25 19.851 26.25 20.6809C26.25 21.2585 26.2769 21.3686 26.5625 21.9591C26.8272 22.5066 26.875 22.6818 26.875 23.1054C26.875 23.58 26.8866 23.6114 27.1055 23.7245C27.2323 23.7901 27.4098 23.8438 27.5 23.8438C27.5902 23.8438 27.7677 23.7901 27.8945 23.7245C28.1134 23.6114 28.125 23.58 28.125 23.1054C28.125 22.6818 28.1728 22.5066 28.4375 21.9591C28.7231 21.3686 28.75 21.2585 28.75 20.6809C28.75 19.851 28.5541 19.4301 28.0498 19.1758C27.8581 19.0791 27.6107 19 27.5 19C27.3893 19 27.1419 19.0791 26.9502 19.1758ZM3.125 28.0625V36.5H5H6.875V28.0625V19.625H5H3.125V28.0625ZM25.4963 25.0782L24.7817 25.4453L25.1322 25.6709C25.9564 26.2011 26.282 26.9832 26.2373 28.3254C26.2102 29.1409 26.1899 29.2347 25.9115 29.8248C25.6819 30.3115 25.6202 30.53 25.6393 30.7889L25.6641 31.1236L26.582 31.5916L27.5 32.0596L28.418 31.5916L29.3359 31.1236L29.3607 30.7889C29.3798 30.53 29.3181 30.3115 29.0885 29.8248C28.8101 29.2347 28.7898 29.1409 28.7627 28.3254C28.7176 26.9701 29.0291 26.2223 29.8711 25.6646L30.2193 25.434L29.4878 25.0707L28.7564 24.7073L28.343 24.8998C27.7865 25.1589 27.212 25.1582 26.6524 24.8977C26.4226 24.7907 26.2292 24.7049 26.2227 24.7071C26.2163 24.7093 25.8894 24.8762 25.4963 25.0782ZM23.2002 26.6758C22.6959 26.9301 22.5 27.351 22.5 28.1809C22.5 28.7585 22.5269 28.8686 22.8125 29.4591C23.0772 30.0066 23.125 30.1818 23.125 30.6054C23.125 31.08 23.1366 31.1114 23.3555 31.2245C23.4823 31.2901 23.6598 31.3438 23.75 31.3438C23.8402 31.3438 24.0177 31.2901 24.1445 31.2245C24.3634 31.1114 24.375 31.08 24.375 30.6054C24.375 30.1818 24.4228 30.0066 24.6875 29.4591C24.9731 28.8686 25 28.7585 25 28.1809C25 27.351 24.8041 26.9301 24.2998 26.6758C24.1081 26.5791 23.8607 26.5 23.75 26.5C23.6393 26.5 23.3919 26.5791 23.2002 26.6758ZM30.7002 26.6758C30.1959 26.9301 30 27.351 30 28.1809C30 28.7585 30.0269 28.8686 30.3125 29.4591C30.5772 30.0066 30.625 30.1818 30.625 30.6054C30.625 31.08 30.6366 31.1114 30.8555 31.2245C30.9823 31.2901 31.1598 31.3438 31.25 31.3438C31.3402 31.3438 31.5177 31.2901 31.6445 31.2245C31.8634 31.1114 31.875 31.08 31.875 30.6054C31.875 30.1818 31.9228 30.0066 32.1875 29.4591C32.4731 28.8686 32.5 28.7585 32.5 28.1809C32.5 27.351 32.3041 26.9301 31.7998 26.6758C31.6081 26.5791 31.3607 26.5 31.25 26.5C31.1393 26.5 30.8919 26.5791 30.7002 26.6758ZM21.6244 32.6359C20.7609 33.0743 20.5981 33.2327 20.6397 33.5934C20.6893 34.0227 22.3876 35.1974 23.7778 35.7642C24.4512 36.0387 25.7962 36.3742 26.5039 36.4441L26.875 36.4808V34.972C26.875 34.1423 26.8411 33.374 26.7996 33.2649C26.7435 33.1176 26.5034 32.9559 25.8665 32.6364L25.0088 32.2062L24.5942 32.3992C24.0364 32.6589 23.4624 32.6584 22.9024 32.3977C22.6726 32.2907 22.4792 32.2049 22.4727 32.2072C22.4663 32.2094 22.0845 32.4023 21.6244 32.6359ZM29.1244 32.6359C28.6642 32.8695 28.2511 33.1291 28.2064 33.2127C28.1577 33.3035 28.125 33.9927 28.125 34.9249V36.4852L28.457 36.4485C29.8633 36.2937 31.4816 35.7568 32.6118 35.0702C33.4961 34.5331 34.375 33.8073 34.375 33.6141C34.375 33.2093 34.2316 33.0702 33.3665 32.6364L32.5088 32.2062L32.0942 32.3992C31.5364 32.6589 30.9624 32.6584 30.4024 32.3977C30.1726 32.2907 29.9792 32.2049 29.9727 32.2072C29.9663 32.2094 29.5845 32.4023 29.1244 32.6359ZM18.125 34.6164V36.5H20.2073H22.2895L21.5947 36.0638C20.3692 35.2945 19.2688 34.2866 18.4709 33.2027L18.125 32.7328V34.6164Z" fill="url(#paint0_linear_407_237)"/>
<defs>
<linearGradient id="paint0_linear_407_237" x1="12.6841" y1="38.1793" x2="12.6841" y2="2.12201" gradientUnits="userSpaceOnUse">
<stop stop-color="#F9AF59"/>
<stop offset="1" stop-color="#F96559"/>
</linearGradient>
</defs>
</svg>
