<svg width="24" height="24" viewBox="0 0 24 24" fill="none" xmlns="http://www.w3.org/2000/svg">
<path fill-rule="evenodd" clip-rule="evenodd" d="M9.5 1C4.80558 1 1 4.80558 1 9.5C1 14.1944 4.80558 18 9.5 18C11.3054 18 12.9794 17.4371 14.356 16.4773L19.4393 21.5607C20.0251 22.1464 20.9749 22.1464 21.5607 21.5607C22.1464 20.9749 22.1464 20.0251 21.5607 19.4393L16.4773 14.356C17.4371 12.9794 18 11.3054 18 9.5C18 4.80558 14.1944 1 9.5 1ZM4 9.5C4 6.46243 6.46243 4 9.5 4C12.5376 4 15 6.46243 15 9.5C15 12.5376 12.5376 15 9.5 15C6.46243 15 4 12.5376 4 9.5Z" fill="#3D3D3D"/>
</svg>
