<svg width="24" height="24" viewBox="0 0 24 24" fill="none" xmlns="http://www.w3.org/2000/svg">
<path fill-rule="evenodd" clip-rule="evenodd" d="M13.941 1.68486L12.3909 3.23496L10.9134 1.75811L9.43597 0.28125H7.89803H6.36008L3.23536 3.40625L0.110641 6.5312L0.977198 7.39775L1.84375 8.26431L4.66374 5.44468L7.48372 2.625H7.89939H8.31502L8.89974 3.21123L9.48446 3.79751L6.55554 6.72671L3.62667 9.65591L4.49303 10.5232L5.35939 11.3906V17.1641V22.9375H4.96877H4.57814V17.2734V11.6094H2.62501H0.671874V17.2734V22.9375H0.476561H0.281248V23.3281V23.7188H12H23.7188V23.3281V22.9375H21.8315H19.9442L20.372 22.6689C21.7646 21.7946 22.7897 20.5254 23.3223 19.016C23.6097 18.2015 23.6897 17.694 23.6897 16.6875C23.6897 15.9385 23.6713 15.6992 23.5819 15.2867C23.0849 12.9937 21.5774 11.149 19.4372 10.2146L19.0557 10.048L21.3873 10.0475L23.7188 10.0469V7.61826V5.1896L22.9374 5.96992L22.1559 6.75024L21.2652 5.85952L20.3745 4.9688L21.0699 4.27339L21.7654 3.57793L22.5468 4.3582L23.3282 5.13853V2.70986V0.28125H20.8996H18.4709L19.2512 1.0627L20.0315 1.84409L19.3362 2.5395L18.6407 3.23486L17.0902 1.68481C16.2373 0.832275 15.5286 0.134766 15.5153 0.134766C15.502 0.134766 14.7935 0.832324 13.941 1.68486ZM3.96793 3.79673L1.23403 6.53091L1.53907 6.83594L1.8441 7.14097L4.49303 4.49233L7.14197 1.84375H7.89803H8.65409L9.35057 2.53901L10.0471 3.23423L10.3517 2.92964L10.6562 2.6251L9.87606 1.8438L9.09588 1.0625H7.89886H6.70183L3.96793 3.79673ZM20.7653 1.45366L21.1541 1.84482L18.335 4.66401L15.5158 7.48315L13.3672 5.33496L11.2186 3.18677L7.98411 6.42129L4.74958 9.65581L5.05466 9.96089L5.35974 10.266L8.28924 7.33677L11.2187 4.40757L13.3672 6.55566L15.5157 8.70376L18.6402 5.57959L21.7647 2.45537L22.1558 2.84424L22.547 3.23306V2.1478V1.0625H21.4617H20.3764L20.7653 1.45366ZM14.2218 2.52729L12.953 3.79673L13.2578 4.10151L13.5626 4.4063L14.5391 3.43066L15.5157 2.45503L16.4923 3.43066L17.4688 4.4063L17.7736 4.10151L18.0783 3.79673L16.8096 2.52729C16.1117 1.82905 15.5295 1.25781 15.5157 1.25781C15.5019 1.25781 14.9196 1.82905 14.2218 2.52729ZM14.8074 4.2854L14.125 4.96919L14.8203 5.66455L15.5157 6.35991L16.2111 5.66455L16.9064 4.96919L16.2239 4.2854C15.8485 3.90928 15.5298 3.60156 15.5157 3.60156C15.5015 3.60156 15.1828 3.90928 14.8074 4.2854ZM9.14359 7.60547L7.09324 9.65625H8.17943H9.26566V16.2969V22.9375H9.65629H10.0469V20.9851C10.0469 19.0581 10.0454 19.0273 9.92728 18.6199C9.5743 17.4018 9.5743 15.9732 9.92728 14.7551L10.0469 14.3423V10.6321V6.92188H11.328H12.6091L11.9268 6.23828C11.5516 5.8623 11.2331 5.55469 11.2192 5.55469C11.2053 5.55469 10.2713 6.47754 9.14359 7.60547ZM19.4946 5.84824L19.2041 6.1418L20.3743 7.3127L21.5445 8.48359L21.1557 8.87461L20.767 9.26562H21.8523H22.9376V8.18032V7.09507L22.5466 7.48379L22.1556 7.87251L20.9959 6.71357C20.3581 6.07617 19.8247 5.55469 19.8107 5.55469C19.7966 5.55469 19.6544 5.68677 19.4946 5.84824ZM17.1293 8.21357L15.6429 9.70054L16.3274 9.67129C17.1035 9.63809 17.7311 9.70024 18.445 9.88105L18.9085 9.99844L19.6654 9.24155L20.4222 8.48467L19.5442 7.60562C19.0613 7.12212 18.6548 6.72656 18.6409 6.72656C18.627 6.72656 17.9468 7.3957 17.1293 8.21357ZM10.8282 10.2452V12.7873L11.1213 12.3983C11.5086 11.8842 12.2294 11.21 12.7477 10.877L13.1656 10.6084L13.1688 9.15576L13.1719 7.70312H12H10.8282V10.2452ZM13.9532 9.23369C13.9532 9.98887 13.9666 10.1959 14.0142 10.1763C14.238 10.0837 15.008 9.848 15.1725 9.82168C15.2819 9.8042 15.3807 9.77485 15.3921 9.75644C15.4034 9.73804 15.0843 9.39512 14.683 8.99443L13.9532 8.26587V9.23369ZM6.22146 10.5268C6.14714 10.6089 6.14065 11.1127 6.14065 16.7768V22.9375H7.31253H8.48441V16.6875V10.4375H7.39334C6.39831 10.4375 6.29514 10.4454 6.22146 10.5268ZM15.9486 10.4882C13.3137 10.7958 11.1379 12.7947 10.5787 15.4212C10.4378 16.083 10.4248 17.1875 10.5505 17.8194C10.7194 18.6692 11.039 19.4569 11.493 20.1424L11.7267 20.4953L11.9149 20.2994C12.0319 20.1777 12.3056 20.002 12.6375 19.8355L13.1719 19.5675V19.3533C13.1719 19.2067 13.1143 19.018 12.9893 18.7556C12.8181 18.3964 12.8054 18.3376 12.7888 17.8284C12.7677 17.1804 12.843 16.8614 13.095 16.5313C13.2877 16.279 13.6505 16.0203 13.8748 15.9753C13.9854 15.9531 14.066 15.8835 14.1729 15.718C14.3008 15.5199 14.3951 15.4522 14.9175 15.1832L15.5157 14.8751V14.6633C15.5157 14.5193 15.4571 14.3288 15.3326 14.0681L15.1495 13.6846V13.0254C15.1495 12.2521 15.2136 12.0554 15.5877 11.6813C15.9205 11.3484 16.1825 11.2442 16.6876 11.2437C17.0298 11.2433 17.1452 11.2641 17.3455 11.3627C17.6552 11.5151 17.9537 11.8136 18.1061 12.1233C18.2151 12.3446 18.2257 12.4248 18.2257 13.0254V13.6846L18.0426 14.0681C17.918 14.3288 17.8594 14.5193 17.8594 14.6633V14.8751L18.4576 15.1832C18.9753 15.4498 19.0754 15.5213 19.2022 15.7152C19.3157 15.8886 19.393 15.9513 19.545 15.9928C19.9736 16.1098 20.4262 16.6049 20.5471 17.089C20.5807 17.2233 20.5971 17.539 20.5864 17.8458C20.5695 18.3337 20.5549 18.4 20.3857 18.7556C20.2609 19.0177 20.2032 19.2068 20.2032 19.3533V19.5675L20.7376 19.8355C21.0698 20.0021 21.3433 20.1777 21.4603 20.2996L21.6488 20.4957L21.9104 20.099C22.6637 18.9573 23.0324 17.4877 22.8994 16.1575C22.7899 15.0619 22.4678 14.1281 21.8996 13.2588C21.5089 12.6611 20.714 11.8662 20.1162 11.4754C18.8828 10.6692 17.402 10.3185 15.9486 10.4882ZM16.3439 12.1099C16.0287 12.2688 15.9063 12.5319 15.9063 13.0505C15.9063 13.4116 15.9231 13.4804 16.1016 13.8495C16.2671 14.1916 16.2969 14.3011 16.2969 14.5659C16.2969 14.8625 16.3042 14.8821 16.441 14.9528C16.5202 14.9938 16.6312 15.0273 16.6876 15.0273C16.744 15.0273 16.8549 14.9938 16.9341 14.9528C17.0709 14.8821 17.0782 14.8625 17.0782 14.5659C17.0782 14.3011 17.1081 14.1916 17.2735 13.8495C17.452 13.4804 17.4688 13.4116 17.4688 13.0505C17.4688 12.5319 17.3464 12.2688 17.0312 12.1099C16.9114 12.0494 16.7568 12 16.6876 12C16.6184 12 16.4637 12.0494 16.3439 12.1099ZM1.45313 17.6641V22.9375H2.62501H3.79689V17.6641V12.3906H2.62501H1.45313V17.6641ZM15.4353 15.7989L14.9886 16.0283L15.2077 16.1693C15.7228 16.5007 15.9263 16.9895 15.8984 17.8284C15.8815 18.3381 15.8688 18.3967 15.6947 18.7655C15.5512 19.0697 15.5127 19.2063 15.5246 19.3681L15.5401 19.5772L16.1138 19.8698L16.6876 20.1623L17.2613 19.8698L17.835 19.5772L17.8505 19.3681C17.8625 19.2063 17.8239 19.0697 17.6804 18.7655C17.5064 18.3967 17.4937 18.3381 17.4767 17.8284C17.4486 16.9813 17.6432 16.514 18.1695 16.1654L18.3871 16.0212L17.93 15.7942L17.4728 15.5671L17.2145 15.6874C16.8666 15.8493 16.5075 15.8489 16.1578 15.686C16.0142 15.6192 15.8933 15.5656 15.8893 15.5669C15.8852 15.5683 15.6809 15.6727 15.4353 15.7989ZM14.0002 16.7974C13.685 16.9563 13.5626 17.2194 13.5626 17.738C13.5626 18.0991 13.5793 18.1679 13.7579 18.537C13.9233 18.8791 13.9532 18.9886 13.9532 19.2534C13.9532 19.55 13.9605 19.5696 14.0972 19.6403C14.1765 19.6813 14.2874 19.7148 14.3438 19.7148C14.4002 19.7148 14.5111 19.6813 14.5904 19.6403C14.7272 19.5696 14.7344 19.55 14.7344 19.2534C14.7344 18.9886 14.7643 18.8791 14.9297 18.537C15.1083 18.1679 15.1251 18.0991 15.1251 17.738C15.1251 17.2194 15.0026 16.9563 14.6875 16.7974C14.5676 16.7369 14.413 16.6875 14.3438 16.6875C14.2746 16.6875 14.12 16.7369 14.0002 16.7974ZM18.6877 16.7974C18.3725 16.9563 18.2501 17.2194 18.2501 17.738C18.2501 18.0991 18.2669 18.1679 18.4454 18.537C18.6108 18.8791 18.6407 18.9886 18.6407 19.2534C18.6407 19.55 18.648 19.5696 18.7847 19.6403C18.864 19.6813 18.9749 19.7148 19.0313 19.7148C19.0877 19.7148 19.1987 19.6813 19.2779 19.6403C19.4147 19.5696 19.422 19.55 19.422 19.2534C19.422 18.9886 19.4518 18.8791 19.6173 18.537C19.7958 18.1679 19.8126 18.0991 19.8126 17.738C19.8126 17.2194 19.6902 16.9563 19.375 16.7974C19.2552 16.7369 19.1005 16.6875 19.0313 16.6875C18.9621 16.6875 18.8075 16.7369 18.6877 16.7974ZM13.0153 20.5225C12.4756 20.7964 12.3738 20.8954 12.3999 21.1209C12.4309 21.3892 13.4923 22.1234 14.3612 22.4776C14.782 22.6492 15.6227 22.8589 16.065 22.9026L16.2969 22.9255V21.9825C16.2969 21.4639 16.2757 20.9837 16.2498 20.9156C16.2148 20.8235 16.0647 20.7224 15.6666 20.5228L15.1306 20.2539L14.8714 20.3745C14.5228 20.5368 14.1641 20.5365 13.8141 20.3735C13.6704 20.3067 13.5496 20.2531 13.5455 20.2545C13.5415 20.2559 13.3028 20.3764 13.0153 20.5225ZM17.7028 20.5225C17.4152 20.6685 17.157 20.8307 17.1291 20.8829C17.0987 20.9397 17.0782 21.3704 17.0782 21.9531V22.9282L17.2857 22.9053C18.1646 22.8085 19.1761 22.473 19.8825 22.0439C20.4351 21.7082 20.9845 21.2545 20.9845 21.1338C20.9845 20.8808 20.8948 20.7939 20.3541 20.5228L19.8181 20.2539L19.559 20.3745C19.2103 20.5368 18.8516 20.5365 18.5016 20.3735C18.3579 20.3067 18.2371 20.2531 18.233 20.2545C18.229 20.2559 17.9904 20.3764 17.7028 20.5225ZM10.8282 21.7603V22.9375H12.1296H13.431L12.9967 22.6649C12.2308 22.184 11.5431 21.5541 11.0444 20.8767L10.8282 20.583V21.7603Z" fill="white"/>
</svg>
