<svg width="110" height="51" viewBox="0 0 110 51" fill="none" xmlns="http://www.w3.org/2000/svg">
<path opacity="0.25" d="M17.5461 41.1151C2.25671 31.7513 8.37867 13.1797 13.3508 5.06433C16.3665 -1.55279 22.5835 -0.29387 25.3151 1.16273C39.61 7.09317 48.4667 21.7632 54.5265 35.809C59.3744 47.0456 52.5066 49.8547 48.4667 49.8547C44.5304 50.8431 32.8355 50.479 17.5461 41.1151Z" fill="#3D3D3D"/>
<path fill-rule="evenodd" clip-rule="evenodd" d="M12.787 13.4911C11.2119 13.7395 7.0922 14.8959 5.83312 15.4428C3.75115 16.3473 1.95842 17.8281 1.22396 19.251C-0.443923 22.4822 0.329459 28.1847 3.25455 34.2216C6.78054 41.4989 12.0575 46.8509 18.0186 49.1956C19.9106 49.9397 20.4785 50.0135 24.1511 49.9931C35.0053 49.9326 47.6344 45.1985 54.2234 38.7199C56.7142 36.2707 58.8662 32.3164 58.8662 30.1885C58.8662 23.4556 44.5421 15.9946 27.3266 13.7606C23.9986 13.3289 14.887 13.1598 12.787 13.4911ZM97.8429 24.3697C97.9992 25.178 99.0298 25.2683 99.0298 24.4733C99.0298 24.0294 98.8299 23.8303 98.3844 23.8303C97.9388 23.8303 97.771 23.9975 97.8429 24.3697ZM72.8767 25.8465C72.8767 27.2411 72.8758 27.2423 71.7612 27.2423C70.3542 27.2423 70.4616 27.9747 71.8888 28.1149L72.8767 28.2123V31.2897C72.8767 34.2104 72.9203 34.4151 73.7329 35.3131C74.2837 35.9217 75.0057 36.3253 75.7567 36.4444C77.2294 36.6776 77.3256 36.1032 75.9124 35.5144C74.2569 34.8252 74.0047 34.282 73.8653 31.106L73.7382 28.2098L75.229 28.114C77.3352 27.9781 77.4741 27.2423 75.3933 27.2423H73.8108V25.8465C73.8108 24.8126 73.6897 24.4506 73.3438 24.4506C72.9979 24.4506 72.8767 24.8126 72.8767 25.8465ZM90.9348 25.8465C90.9348 27.1905 90.9002 27.2423 90.0008 27.2423C89.3781 27.2423 89.0667 27.3974 89.0667 27.7076C89.0667 28.0178 89.3781 28.1729 90.0008 28.1729H90.9348V30.8402C90.9348 32.6663 91.0955 33.8444 91.4438 34.5761C91.9722 35.6853 93.2409 36.548 94.344 36.548C95.3503 36.548 95.0885 35.7803 93.9415 35.3671C92.5451 34.864 92.1802 33.9166 92.1802 30.7949V28.1729H93.5812C94.6189 28.1729 94.9823 28.0522 94.9823 27.7076C94.9823 27.363 94.6189 27.2423 93.5812 27.2423H92.1802V25.8465C92.1802 24.6575 92.088 24.4506 91.5575 24.4506C91.0269 24.4506 90.9348 24.6575 90.9348 25.8465ZM17.3451 27.3881C16.2704 28.1146 16.2118 28.1226 16.2118 27.5432C16.2118 27.207 16.002 26.9321 15.7448 26.9321C15.3503 26.9321 15.2778 27.6558 15.2778 31.585C15.2778 35.5141 15.3503 36.2378 15.7448 36.2378C16.1327 36.2378 16.2118 35.6351 16.2118 32.675V29.1121L17.4566 28.2914C18.4731 27.6214 18.9389 27.5023 19.9931 27.6434C22.2401 27.9437 22.5782 28.5727 22.699 32.6784C22.7818 35.4902 22.8961 36.2378 23.2439 36.2378C23.9155 36.2378 23.8753 29.2033 23.1981 28.2402C21.9851 26.5146 19.23 26.1136 17.3451 27.3881ZM28.7033 27.4626C27.1628 28.2188 26.4884 29.521 26.4884 31.7401C26.4884 33.8 27.1388 35.2163 28.4901 36.0982C29.8998 37.0185 34.5812 36.6249 34.5812 35.5864C34.5812 35.3382 34.2727 35.3075 33.5693 35.485C33.013 35.6255 31.8937 35.7464 31.0823 35.7542C29.8485 35.7657 29.4552 35.6162 28.6781 34.8398C28.1672 34.3292 27.7101 33.5624 27.6625 33.1359L27.5759 32.3604L31.5855 32.2733L35.5947 32.1861L35.4222 30.9044C34.9975 27.7495 31.6318 26.0252 28.7033 27.4626ZM36.7647 27.0097C36.7669 27.0525 37.5138 29.1112 38.4245 31.585C40.6238 37.5601 40.8545 37.6135 42.5162 32.5292C43.1871 30.4751 43.8307 28.899 43.9459 29.0268C44.0611 29.1543 44.6747 30.829 45.3096 32.7482C46.8324 37.3517 47.1689 37.3821 48.7546 33.0584C49.3957 31.3095 50.1837 29.2058 50.5056 28.3835L51.0909 26.8878L50.4153 26.9877C49.8565 27.0702 49.5202 27.7151 48.4654 30.7304C47.7642 32.7342 47.1104 34.3742 47.012 34.3751C46.9136 34.376 46.2972 32.6948 45.6418 30.6389C44.6252 27.4489 44.3631 26.9148 43.8522 26.9942C43.383 27.0671 42.9813 27.9226 41.9909 30.9587L40.7281 34.8298L39.3302 30.8811C38.2093 27.7154 37.8161 26.9321 37.3466 26.9321C37.0244 26.9321 36.7625 26.9669 36.7647 27.0097ZM64.1656 27.2783C62.8804 27.7892 62.291 28.5172 62.291 29.5942C62.291 30.8628 63.3396 31.7574 65.18 32.0592C67.4279 32.4277 68.5179 33.0118 68.5179 33.8475C68.5179 35.1912 67.5462 35.7098 65.3391 35.5448C64.2618 35.4642 63.1357 35.2929 62.8358 35.1645C62.456 35.0014 62.291 35.0702 62.291 35.3916C62.291 36.3619 65.3331 37.0247 67.2426 36.4707C69.0073 35.9583 69.9102 34.8193 69.6148 33.4777C69.3651 32.3455 68.5064 31.8223 66.0483 31.3036C64.0526 30.8827 63.5364 30.5219 63.5364 29.5483C63.5364 28.1375 65.5035 27.4896 67.7968 28.1447C68.5372 28.3562 68.824 28.3236 68.9435 28.0135C69.2813 27.1366 65.8503 26.6086 64.1656 27.2783ZM80.7837 27.3583C78.7892 28.2588 77.6858 31.201 78.4629 33.5469C78.9744 35.0907 80.6383 36.4624 82.2819 36.6956C83.8937 36.9242 86.4203 36.2576 86.4203 35.6038C86.4203 35.3553 86.2101 35.2042 85.9533 35.2681C82.9883 36.0045 82.6103 36.0011 81.0231 35.2213C80.3319 34.8816 79.415 33.5295 79.415 32.8505C79.415 32.6564 80.9515 32.5003 83.3847 32.4473L87.3543 32.3604L87.3244 31.2617C87.2861 29.8476 86.6376 28.5442 85.5871 27.7697C84.5295 26.9898 82.0667 26.7789 80.7837 27.3583ZM104.463 27.3686C101.362 28.7142 100.691 32.992 103.191 35.4822C104.378 36.6649 106.159 37.0576 108.044 36.552C109.322 36.2089 109.702 35.3643 108.492 35.5554C105.515 36.0259 103.885 35.3568 103.118 33.3487C101.933 30.2471 104.839 26.9839 107.795 28.096C108.459 28.3454 108.74 28.3215 109.015 27.9914C109.799 27.0497 106.301 26.5708 104.463 27.3686ZM97.7844 31.8952C97.7844 36.3411 97.8121 36.548 98.4071 36.548C99.0021 36.548 99.0298 36.3411 99.0298 31.8952C99.0298 27.4492 99.0021 27.2423 98.4071 27.2423C97.8121 27.2423 97.7844 27.4492 97.7844 31.8952ZM29.3842 28.176C28.5919 28.4939 27.8633 29.5166 27.5632 30.7319L27.3527 31.585H30.7931C32.6851 31.585 34.3019 31.4742 34.386 31.3387C34.6989 30.8343 33.4121 28.6174 32.5902 28.2442C31.6259 27.8066 30.3715 27.7796 29.3842 28.176ZM80.6644 28.7157C80.1476 29.185 79.6376 30.0225 79.5311 30.5769L79.3372 31.585H82.8009H86.2646V30.7785C86.2646 30.2747 85.867 29.5759 85.206 28.9173C83.8037 27.5203 82.0667 27.443 80.6644 28.7157Z" fill="#3D3D3D"/>
</svg>
