<svg xmlns="http://www.w3.org/2000/svg" width="100" height="18" fill="none"><path fill="#3D3D3D" fill-rule="evenodd" d="M6.744.529c0 .156-.058.175-.522.175-.465 0-.523.02-.523.175 0 .117-.058.176-.174.176-.116 0-.174.058-.174.175 0 .146-.058.175-.349.175-.29 0-.348.03-.348.175 0 .117-.058.176-.174.176-.116 0-.174.058-.174.175 0 .117-.059.175-.175.175-.116 0-.174.058-.174.175 0 .117-.058.175-.174.175-.116 0-.174.059-.174.176 0 .116-.058.175-.174.175-.117 0-.175.058-.175.175 0 .117-.058.175-.174.175-.145 0-.174.059-.174.35 0 .293-.029.351-.174.351-.155 0-.174.059-.174.526s-.02.525-.175.525c-.164 0-.174.059-.174 1.052 0 .993.01 1.051.174 1.051.146 0 .175.059.175.35 0 .293.029.351.174.351s.174.058.174.35.029.35.174.35c.116 0 .174.06.174.176 0 .117.058.175.175.175.116 0 .174.059.174.175 0 .117.058.176.174.176.116 0 .174.058.174.175 0 .146.058.175.349.175.29 0 .348.03.348.175 0 .146.058.176.348.176s.349.029.349.175.058.175.348.175.348.03.348.175c0 .16.058.176.697.176.639 0 .697.014.697.175 0 .155.058.175.522.175.465 0 .523.02.523.175 0 .146.058.175.348.175s.349.03.349.175c0 .117.058.176.174.176.116 0 .174.058.174.175 0 .117.058.175.174.175.155 0 .175.059.175.526s-.02.525-.175.525c-.145 0-.174.059-.174.351s-.029.35-.174.35c-.116 0-.174.059-.174.176 0 .146-.058.175-.349.175-.29 0-.348.029-.348.175 0 .165-.058.175-1.045.175-.987 0-1.045-.01-1.045-.175 0-.117-.058-.175-.174-.175-.117 0-.175-.059-.175-.175 0-.117-.058-.176-.174-.176-.116 0-.174-.058-.174-.175 0-.117-.058-.175-.174-.175-.163 0-.174-.059-.174-.876v-.876H4.13c-1.16 0-1.219.008-1.219.175 0 .165-.058.175-1.045.175H.822v1.577c0 1.519.006 1.577.174 1.577.145 0 .174.059.174.35 0 .293.03.351.174.351.146 0 .175.059.175.35 0 .293.029.35.174.35.116 0 .174.06.174.176 0 .146.058.175.348.175s.349.03.349.175c0 .147.058.176.348.176s.348.029.348.175c0 .156.058.175.523.175.464 0 .523.02.523.175 0 .171.058.176 2.438.176 2.38 0 2.439-.005 2.439-.176 0-.16.058-.175.697-.175.638 0 .696-.014.696-.175 0-.146.058-.175.349-.175.29 0 .348-.03.348-.175 0-.117.058-.176.174-.176.116 0 .174-.058.174-.175 0-.117.059-.175.175-.175.116 0 .174-.058.174-.175 0-.146.058-.175.348-.175s.348-.03.348-.176c0-.117.059-.175.175-.175.116 0 .174-.058.174-.175 0-.117.058-.175.174-.175.145 0 .174-.059.174-.35 0-.293.03-.351.174-.351.146 0 .175-.059.175-.35 0-.293.029-.351.174-.351s.174-.059.174-.35c0-.293.029-.351.174-.351.16 0 .174-.059.174-.7 0-.643.015-.702.175-.702.16 0 .174-.058.174-.7 0-.643-.015-.701-.175-.701-.154 0-.174-.059-.174-.526s-.019-.526-.174-.526c-.145 0-.174-.058-.174-.35s-.029-.35-.174-.35c-.116 0-.174-.06-.174-.176 0-.117-.059-.175-.175-.175-.116 0-.174-.059-.174-.175 0-.117-.058-.176-.174-.176-.116 0-.174-.058-.174-.175 0-.117-.058-.175-.174-.175-.116 0-.175-.058-.175-.175 0-.146-.058-.175-.348-.175s-.348-.03-.348-.176c0-.155-.058-.175-.523-.175-.464 0-.522-.02-.522-.175 0-.156-.059-.175-.523-.175s-.522-.02-.522-.176c0-.155-.059-.175-.523-.175-.465 0-.523-.02-.523-.175 0-.16-.058-.175-.696-.175-.639 0-.697-.015-.697-.175 0-.117-.058-.176-.174-.176-.16 0-.174-.058-.174-.7 0-.643.014-.701.174-.701.116 0 .174-.059.174-.176 0-.116.058-.175.174-.175.116 0 .174-.058.174-.175 0-.164.058-.175.871-.175s.871.011.871.175c0 .117.058.175.174.175.116 0 .175.059.175.175 0 .117.058.176.174.176.116 0 .174.058.174.175 0 .117.058.175.174.175.155 0 .174.058.174.526v.525h4.529V4.56c0-.993-.01-1.051-.174-1.051-.155 0-.174-.059-.174-.526s-.02-.526-.175-.526c-.145 0-.174-.058-.174-.35s-.029-.35-.174-.35c-.116 0-.174-.059-.174-.176 0-.116-.058-.175-.174-.175-.116 0-.174-.058-.174-.175 0-.146-.059-.175-.349-.175s-.348-.03-.348-.176c0-.155-.058-.175-.523-.175-.464 0-.522-.02-.522-.175 0-.171-.058-.175-2.613-.175S6.744.358 6.744.529Zm59.224.526c0 .642-.015.7-.175.7-.16 0-.174.059-.174.701 0 .643-.014.701-.174.701-.16 0-.174.059-.174.701 0 .643-.015.701-.174.701-.116 0-.174.058-.174.175 0 .16-.058.175-.697.175h-.697v.701c0 .643-.015.701-.174.701-.16 0-.174.059-.174.701v.701H64.574v.35c0 .292-.029.35-.174.35-.163 0-.174.06-.174.877 0 .818-.012.876-.174.876-.163 0-.175.059-.175.876 0 .818-.011.876-.174.876-.162 0-.174.059-.174.876 0 .818-.012.876-.174.876-.165 0-.174.059-.174 1.052 0 .993.01 1.051.174 1.051.145 0 .174.059.174.35 0 .293.03.35.174.35.116 0 .174.06.174.176 0 .117.058.175.175.175.116 0 .174.059.174.175 0 .156.058.176.522.176.465 0 .523.02.523.175 0 .165.058.175 1.045.175.987 0 1.045-.01 1.045-.175 0-.16.058-.175.697-.175.639 0 .697-.015.697-.175 0-.117.058-.176.174-.176.162 0 .174-.058.174-.876 0-.817.012-.876.174-.876.16 0 .174-.058.174-.7v-.702H67.71v-1.05c0-.994.01-1.052.174-1.052.162 0 .174-.059.174-.876 0-.818.011-.876.174-.876.163 0 .174-.059.174-.877 0-.817.012-.876.174-.876.117 0 .175-.058.175-.175 0-.165.058-.175 1.045-.175h1.045v-.35c0-.292.029-.35.174-.35.165 0 .174-.06.174-1.052V4.909h-1.742v-.35c0-.292.03-.35.175-.35.16 0 .174-.059.174-.701 0-.643.014-.701.174-.701.16 0 .174-.059.174-.701 0-.642.015-.7.174-.7.155 0 .174-.06.174-.527V.354h-4.528v.7Zm31.005 2.628c0 .117-.058.175-.174.175-.145 0-.174.059-.174.35 0 .293-.03.351-.175.351-.16 0-.174.058-.174.7 0 .643.015.702.174.702.117 0 .175.058.175.175 0 .117.058.175.174.175.116 0 .174.059.174.175 0 .164.058.176.87.176.814 0 .872-.012.872-.176 0-.116.058-.175.174-.175.116 0 .174-.058.174-.175 0-.117.058-.175.174-.175.163 0 .175-.059.175-.876 0-.818-.012-.876-.175-.876-.116 0-.174-.059-.174-.176 0-.116-.058-.175-.174-.175-.116 0-.174-.058-.174-.175 0-.164-.058-.175-.871-.175s-.871.011-.871.175Zm.348.35c0 .117-.058.176-.174.176-.116 0-.174.058-.174.175 0 .117-.058.175-.174.175-.155 0-.174.058-.174.526 0 .467.019.525.174.525.145 0 .174.059.174.35v.351h.87c.814 0 .872-.011.872-.175 0-.117.058-.175.174-.175.16 0 .174-.059.174-.701 0-.643-.014-.701-.174-.701-.116 0-.174-.058-.174-.175 0-.117-.058-.175-.174-.175-.117 0-.175-.059-.175-.176 0-.155-.058-.175-.522-.175-.465 0-.523.02-.523.175Zm0 1.052c0 .817.012.876.175.876.116 0 .174-.059.174-.175 0-.117.058-.176.174-.176.116 0 .174.059.174.176 0 .146.058.175.348.175s.349-.03.349-.175c0-.117-.058-.176-.174-.176-.145 0-.175-.058-.175-.35s.03-.35.175-.35c.116 0 .174-.059.174-.176 0-.117-.058-.175-.174-.175-.117 0-.175-.058-.175-.175 0-.156-.058-.175-.522-.175h-.523v.876Zm-21.599-.35c0 .16-.058.174-.697.174-.638 0-.696.015-.696.176 0 .146-.058.175-.349.175-.29 0-.348.03-.348.175 0 .146-.058.175-.349.175-.29 0-.348.03-.348.176 0 .116-.058.175-.174.175-.116 0-.174.058-.174.175 0 .117-.058.175-.174.175-.117 0-.175.059-.175.175 0 .117-.058.176-.174.176-.116 0-.174.058-.174.175 0 .117-.058.175-.174.175-.116 0-.174.059-.174.175 0 .117-.058.176-.174.176-.146 0-.175.058-.175.35s-.029.35-.174.35c-.116 0-.174.059-.174.176 0 .116-.058.175-.174.175-.155 0-.175.058-.175.525 0 .468-.019.526-.174.526-.16 0-.174.059-.174.701 0 .643-.014.7-.174.7-.166 0-.174.06-.174 1.227 0 1.168.008 1.227.174 1.227.16 0 .174.058.174.7 0 .643.015.702.174.702.145 0 .174.058.174.35s.03.35.175.35c.116 0 .174.059.174.176 0 .117.058.175.174.175.116 0 .174.059.174.175 0 .117.058.175.175.175.116 0 .174.059.174.176 0 .117.058.175.174.175.116 0 .174.058.174.175 0 .117.058.175.174.175.116 0 .174.059.174.175 0 .156.058.176.523.176.464 0 .523.02.523.175 0 .171.058.175 2.786.175 2.73 0 2.788-.003 2.788-.175 0-.156.058-.175.522-.175.465 0 .523-.02.523-.175 0-.146.058-.176.348-.176s.348-.029.348-.175c0-.117.058-.175.175-.175.116 0 .174-.058.174-.175 0-.117.058-.175.174-.175.116 0 .174-.059.174-.176 0-.117.058-.175.174-.175.116 0 .174-.058.174-.175 0-.117.059-.175.175-.175.116 0 .174-.059.174-.176 0-.116.058-.175.174-.175.116 0 .174-.058.174-.175 0-.117.058-.175.174-.175.146 0 .175-.059.175-.35v-.351h-.871c-.813 0-.871-.012-.871-.175 0-.168-.058-.176-1.394-.176-1.335 0-1.393.008-1.393.176 0 .116-.058.175-.174.175-.116 0-.175.058-.175.175 0 .146-.058.175-.348.175s-.348.03-.348.175c0 .164-.058.176-.871.176s-.871-.012-.871-.175c0-.117-.058-.176-.174-.176-.117 0-.175-.058-.175-.175 0-.117-.058-.175-.174-.175-.155 0-.174-.059-.174-.526s-.02-.525-.174-.525c-.145 0-.174-.059-.174-.35v-.351H83.386v-2.103c0-2.044-.004-2.103-.174-2.103-.155 0-.174-.058-.174-.525s-.02-.526-.174-.526c-.116 0-.174-.058-.174-.175 0-.117-.058-.175-.175-.175-.116 0-.174-.059-.174-.176 0-.116-.058-.175-.174-.175-.116 0-.174-.058-.174-.175 0-.117-.058-.175-.174-.175-.116 0-.175-.059-.175-.175 0-.117-.058-.176-.174-.176-.116 0-.174-.058-.174-.175 0-.146-.058-.175-.348-.175s-.349-.03-.349-.175c0-.16-.058-.176-.696-.176-.639 0-.697-.014-.697-.175 0-.17-.058-.175-1.742-.175s-1.742.006-1.742.175Zm13.935 0c0 .163-.058.174-.87.174-.814 0-.872.012-.872.176 0 .146-.058.175-.348.175s-.348.03-.348.175c0 .146-.059.175-.349.175s-.348.03-.348.176c0 .116-.058.175-.174.175-.117 0-.175.058-.175.175 0 .117-.058.175-.174.175-.116 0-.174.059-.174.175 0 .117-.058.176-.174.176-.116 0-.174.058-.174.175 0 .117-.059.175-.175.175-.145 0-.174.059-.174.35 0 .293-.029.351-.174.351-.116 0-.174.058-.174.175 0 .117-.058.175-.174.175-.155 0-.174.059-.174.526s-.02.526-.175.526c-.162 0-.174.058-.174.876s-.011.876-.174.876c-.166 0-.174.058-.174 1.226s.008 1.227.174 1.227c.16 0 .174.058.174.7 0 .643.015.702.174.702.145 0 .174.058.174.35s.03.35.175.35c.116 0 .174.059.174.176 0 .117.058.175.174.175.116 0 .174.059.174.175 0 .117.058.175.174.175.116 0 .175.059.175.176 0 .117.058.175.174.175.116 0 .174.058.174.175 0 .117.058.175.174.175.116 0 .174.059.174.175 0 .147.058.176.349.176.29 0 .348.029.348.175 0 .16.058.175.697.175.639 0 .697.015.697.175 0 .17.058.176 1.916.176 1.858 0 1.916-.006 1.916-.176 0-.155.058-.175.522-.175.465 0 .523-.02.523-.175 0-.146.058-.175.348-.175s.349-.03.349-.175c0-.117.058-.176.174-.176.116 0 .174-.058.174-.175 0-.117.058-.175.174-.175.116 0 .174-.058.174-.175 0-.117.058-.175.174-.175.117 0 .175-.059.175-.176 0-.117.058-.175.174-.175.116 0 .174-.058.174-.175 0-.117.058-.175.174-.175.145 0 .174-.059.174-.35 0-.293.03-.351.175-.351.154 0 .174-.059.174-.526s.02-.526.174-.526c.155 0 .174-.058.174-.525v-.526h-4.18v.35c0 .293-.03.351-.175.351-.116 0-.174.058-.174.175 0 .117-.058.175-.174.175-.116 0-.174.059-.174.176 0 .116-.058.175-.174.175-.116 0-.174.058-.174.175 0 .165-.058.175-1.046.175-.987 0-1.045-.01-1.045-.175 0-.117-.058-.175-.174-.175-.145 0-.174-.059-.174-.35 0-.293-.029-.351-.174-.351-.169 0-.174-.059-.174-1.752 0-1.694.005-1.752.174-1.752.145 0 .174-.059.174-.35 0-.293.029-.351.174-.351.116 0 .174-.059.174-.176 0-.116.058-.175.175-.175.116 0 .174-.058.174-.175 0-.117.058-.175.174-.175.116 0 .174-.059.174-.175 0-.161.058-.176.697-.176.639 0 .697.015.697.176 0 .146.058.175.348.175h.348v.35c0 .292.03.35.174.35.146 0 .175.06.175.351v.35h4.529v-1.05c0-.994-.01-1.052-.175-1.052-.145 0-.174-.058-.174-.35s-.029-.35-.174-.35-.174-.06-.174-.351c0-.292-.03-.35-.174-.35-.116 0-.175-.06-.175-.176 0-.146-.058-.175-.348-.175s-.348-.03-.348-.175c0-.117-.058-.176-.174-.176-.117 0-.175-.058-.175-.175 0-.156-.058-.175-.522-.175-.465 0-.523-.02-.523-.175 0-.164-.058-.176-.87-.176-.814 0-.872-.011-.872-.175 0-.165-.058-.175-1.045-.175-.987 0-1.045.01-1.045.175Zm8.013 0c0 .116.058.174.174.174.116 0 .174-.058.174-.175 0-.117-.058-.175-.174-.175-.116 0-.174.058-.174.175Zm-60.269.35c0 .155-.058.175-.523.175-.464 0-.522.02-.522.175 0 .117-.058.175-.174.175-.116 0-.175.059-.175.176 0 .146-.058.175-.348.175s-.348.029-.348.175c0 .117-.058.175-.174.175-.155 0-.175-.058-.175-.525V5.26h-1.916c-1.858 0-1.916.005-1.916.175 0 .117-.058.175-.174.175-.162 0-.174.059-.174.876 0 .818-.012.877-.174.877-.163 0-.174.058-.174.876 0 .817-.012.876-.175.876-.162 0-.174.058-.174.876s-.011.876-.174.876c-.163 0-.174.058-.174.876s-.012.876-.174.876c-.16 0-.175.059-.175.701 0 .642-.014.7-.174.7-.162 0-.174.06-.174.877 0 .818-.011.876-.174.876-.16 0-.174.059-.174.7v.702h2.09c2.032 0 2.09-.005 2.09-.175 0-.117.058-.176.174-.176.163 0 .175-.058.175-.876 0-.817.011-.876.174-.876.162 0 .174-.058.174-.876s.011-.876.174-.876c.163 0 .174-.059.174-.876 0-.818.012-.876.175-.876.16 0 .174-.059.174-.701 0-.643.014-.701.174-.701.145 0 .174-.058.174-.35s.029-.35.174-.35c.116 0 .174-.06.174-.176 0-.117.058-.175.175-.175.116 0 .174-.059.174-.176 0-.146.058-.175.348-.175s.349-.029.349-.175c0-.117.058-.175.174-.175.116 0 .174.058.174.175 0 .146.058.175.348.175h.349v.35c0 .293.029.351.174.351s.174.059.174.35c0 .293-.029.351-.174.351-.163 0-.174.059-.174.876 0 .818-.012.876-.174.876-.163 0-.175.059-.175.876 0 .818-.011.876-.174.876-.16 0-.174.059-.174.701 0 .643-.015.701-.174.701-.165 0-.175.059-.175 1.052v1.05h4.181v-.525c0-.467.02-.526.174-.526.163 0 .174-.058.174-.876 0-.817.012-.876.175-.876.162 0 .174-.058.174-.876 0-.817.011-.876.174-.876.163 0 .174-.058.174-.876s.012-.876.174-.876c.155 0 .175-.059.175-.526s.019-.525.174-.525c.145 0 .174-.059.174-.35 0-.293.029-.351.174-.351.116 0 .174-.059.174-.176 0-.155.058-.175.523-.175.464 0 .522-.02.522-.175 0-.117.059-.175.175-.175.116 0 .174.058.174.175 0 .146.058.175.348.175h.348v1.227c0 1.168-.008 1.226-.174 1.226-.162 0-.174.059-.174.876 0 .818-.012.877-.174.877-.163 0-.174.058-.174.876 0 .817-.012.876-.174.876-.163 0-.175.058-.175.876s-.011.876-.174.876c-.145 0-.174.058-.174.35v.35h4.529V16.3c0-.818.012-.876.174-.876.16 0 .174-.059.174-.701 0-.643.015-.701.174-.701.163 0 .175-.059.175-.876 0-.818.011-.876.174-.876.162 0 .174-.059.174-.877 0-.817.012-.875.174-.875.163 0 .174-.059.174-.877 0-.817.012-.876.175-.876.16 0 .174-.058.174-.7 0-.643-.015-.701-.174-.701-.155 0-.175-.059-.175-.526s-.019-.526-.174-.526c-.145 0-.174-.058-.174-.35s-.029-.35-.174-.35c-.116 0-.174-.06-.174-.176 0-.146-.059-.175-.349-.175s-.348-.03-.348-.175c0-.17-.058-.176-1.568-.176s-1.568.007-1.568.176c0 .146-.058.175-.348.175s-.348.03-.348.175c0 .146-.058.175-.349.175-.29 0-.348.03-.348.176 0 .116-.058.175-.174.175-.116 0-.174.058-.174.175 0 .117-.059.175-.175.175-.116 0-.174.059-.174.175 0 .146-.058.176-.348.176h-.349v-.35c0-.293-.029-.351-.174-.351-.116 0-.174-.059-.174-.175 0-.117-.058-.176-.174-.176-.116 0-.174-.058-.174-.175 0-.146-.058-.175-.349-.175-.29 0-.348-.03-.348-.175 0-.168-.058-.176-1.394-.176-1.335 0-1.393.008-1.393.176Zm17.07 0c0 .16-.058.175-.696.175-.64 0-.697.015-.697.175 0 .146-.058.175-.349.175-.29 0-.348.03-.348.176 0 .116-.058.175-.174.175-.116 0-.174.058-.174.175 0 .117-.058.175-.175.175-.116 0-.174.059-.174.175 0 .117-.058.176-.174.176-.116 0-.174.058-.174.175 0 .117-.058.175-.174.175-.116 0-.174.059-.174.175 0 .117-.059.176-.175.176-.145 0-.174.058-.174.35s-.029.35-.174.35-.174.059-.174.35v.351h4.529v-.7h.348c.29 0 .349-.03.349-.176 0-.167.058-.175 1.219-.175h1.22v1.402h-.35c-.29 0-.348.029-.348.175 0 .156-.058.175-.522.175-.465 0-.523.02-.523.175 0 .16-.058.176-.697.176-.638 0-.696.014-.696.175 0 .163-.058.175-.871.175s-.871.012-.871.175c0 .156-.058.176-.523.176-.464 0-.522.019-.522.175 0 .155-.058.175-.523.175-.464 0-.522.02-.522.175 0 .146-.059.175-.349.175s-.348.03-.348.175c0 .117-.058.176-.174.176-.116 0-.174.058-.174.175 0 .117-.059.175-.175.175-.145 0-.174.059-.174.35 0 .293-.029.351-.174.351-.155 0-.174.059-.174.526s-.02.525-.174.525c-.163 0-.175.059-.175.877 0 .817.012.876.175.876.145 0 .174.058.174.35s.029.35.174.35c.116 0 .174.059.174.176 0 .117.058.175.174.175.116 0 .175.058.175.175 0 .117.058.175.174.175.116 0 .174.059.174.175 0 .161.058.176.697.176.638 0 .696.014.696.175 0 .164.058.175.871.175s.871-.011.871-.175c0-.16.058-.175.697-.175.639 0 .697-.015.697-.175 0-.156.058-.176.522-.176.465 0 .523-.02.523-.175 0-.146.058-.175.348-.175s.349-.03.349-.175c0-.117.058-.175.174-.175.116 0 .174-.059.174-.176 0-.117.058-.175.174-.175.16 0 .174.059.174.7v.702h4.18v-1.928c0-1.869.006-1.927.175-1.927.163 0 .174-.059.174-.876 0-.818.012-.876.174-.876.165 0 .175-.059.175-1.051 0-.993.01-1.052.174-1.052.164 0 .174-.058.174-1.051 0-.993-.01-1.051-.174-1.051-.155 0-.174-.059-.174-.526s-.02-.526-.175-.526c-.116 0-.174-.058-.174-.175 0-.117-.058-.175-.174-.175-.116 0-.174-.059-.174-.175 0-.117-.058-.176-.174-.176-.117 0-.175-.058-.175-.175 0-.156-.058-.175-.522-.175-.465 0-.523-.02-.523-.175 0-.172-.058-.176-2.787-.176s-2.787.004-2.787.176Zm-36.927.7c0 .468-.02.526-.175.526-.16 0-.174.059-.174.701 0 .643-.014.701-.174.701-.16 0-.174.058-.174.7 0 .643-.015.702-.174.702-.155 0-.174.058-.174.525 0 .468-.02.526-.175.526-.16 0-.174.059-.174.7 0 .643-.014.702-.174.702-.16 0-.174.058-.174.7 0 .643-.015.701-.174.701-.167 0-.175.059-.175 1.402 0 1.344.008 1.402.175 1.402.145 0 .174.059.174.35 0 .293.029.35.174.35.116 0 .174.06.174.176 0 .117.058.175.174.175.116 0 .175.059.175.175 0 .156.058.176.522.176.465 0 .523.02.523.175 0 .164.058.175.87.175.813 0 .872-.011.872-.175 0-.156.058-.175.522-.175.465 0 .523-.02.523-.175 0-.156.058-.176.522-.176.465 0 .523-.02.523-.175 0-.117.058-.175.174-.175.116 0 .174-.058.174-.175 0-.117.058-.175.174-.175.117 0 .175-.059.175-.176 0-.117.058-.175.174-.175.116 0 .174-.058.174-.175 0-.117.058-.175.174-.175.155 0 .174.058.174.525 0 .468-.019.526-.174.526-.145 0-.174.058-.174.35v.35h4.18v-.525c0-.467.02-.526.175-.526.154 0 .174-.058.174-.525s.02-.526.174-.526c.16 0 .174-.058.174-.7 0-.643.015-.702.174-.702.16 0 .175-.058.175-.7 0-.643.014-.701.174-.701.16 0 .174-.059.174-.701 0-.643.014-.701.174-.701.16 0 .174-.059.174-.701 0-.642.015-.7.174-.7.16 0 .175-.06.175-.702 0-.642.014-.7.174-.7.155 0 .174-.06.174-.526 0-.467.02-.526.174-.526.16 0 .174-.058.174-.7 0-.643.015-.702.175-.702.116 0 .174-.058.174-.175 0-.17-.058-.175-2.265-.175h-2.264v.35c0 .292-.03.35-.174.35-.16 0-.174.06-.174.702 0 .642-.015.7-.175.7-.16 0-.174.059-.174.701 0 .643-.014.701-.174.701-.155 0-.174.059-.174.526s-.02.526-.174.526c-.16 0-.175.058-.175.7 0 .643-.014.701-.174.701-.155 0-.174.059-.174.526s-.02.526-.174.526c-.116 0-.174.058-.174.175 0 .117-.058.175-.174.175-.146 0-.175.059-.175.35v.351h-.348c-.29 0-.348.03-.348.175 0 .16-.058.175-.697.175-.639 0-.697-.014-.697-.175 0-.117-.058-.175-.174-.175-.165 0-.174-.059-.174-1.051 0-.993.01-1.052.174-1.052.155 0 .174-.058.174-.525s.02-.526.174-.526c.16 0 .174-.058.174-.7 0-.643.015-.702.175-.702.16 0 .174-.058.174-.7 0-.643.014-.701.174-.701.16 0 .174-.059.174-.701 0-.643.015-.701.174-.701.146 0 .175-.059.175-.35V5.26h-4.529v.526ZM76.07 7.889c0 .117-.058.175-.174.175-.116 0-.174.059-.174.176 0 .116-.058.175-.174.175-.116 0-.174.058-.174.175 0 .117-.058.175-.174.175-.146 0-.175.059-.175.35 0 .293-.029.351-.174.351-.116 0-.174.059-.174.175 0 .17.058.176 2.09.176h2.09v-.701c0-.643-.014-.701-.174-.701-.116 0-.174-.059-.174-.175 0-.117-.058-.176-.174-.176-.116 0-.174-.058-.174-.175 0-.165-.058-.175-1.045-.175-.987 0-1.046.01-1.046.175Zm-19.16 3.855c0 .156-.058.175-.523.175-.464 0-.522.02-.522.175 0 .161-.058.176-.697.176-.639 0-.697.014-.697.175 0 .117-.058.175-.174.175-.116 0-.174.059-.174.175 0 .117-.058.175-.174.175-.116 0-.174.059-.174.176 0 .117-.058.175-.175.175-.154 0-.174.058-.174.526 0 .467.02.525.174.525.117 0 .175.059.175.175 0 .164.058.176.87.176.813 0 .871-.012.871-.175 0-.147.059-.176.349-.176s.348-.029.348-.175c0-.117.058-.175.174-.175.117 0 .175-.059.175-.175 0-.117.058-.176.174-.176.116 0 .174-.058.174-.175 0-.117.058-.175.174-.175.155 0 .174-.059.174-.526s.02-.525.174-.525c.146 0 .175-.059.175-.35v-.351h-.349c-.29 0-.348.029-.348.175Z" clip-rule="evenodd"/></svg>