<svg width="93" height="35" viewBox="0 0 93 35" fill="none" xmlns="http://www.w3.org/2000/svg">
<path fill-rule="evenodd" clip-rule="evenodd" d="M19.8779 0.170131C18.634 0.426173 17.6202 1.21937 17.0174 2.40777C16.6674 3.09777 16.2666 5.09435 16.268 6.14082C16.273 10.1239 17.9531 12.4633 20.7956 12.4457C21.9875 12.4383 22.7398 12.1564 23.469 11.4438C24.0912 10.8355 24.7316 9.59828 24.8944 8.68952C25.002 8.08872 24.7901 7.9865 23.4303 7.98292L22.5873 7.98064L22.4061 8.67243C22.0391 10.0739 21.376 10.5865 20.3642 10.2505C19.977 10.1219 19.7131 9.87125 19.4591 9.39107C19.1381 8.78409 19.1007 8.47482 19.1005 6.43429C19.1005 5.00921 19.1774 3.93573 19.3058 3.569C19.6055 2.71281 20.1637 2.25102 20.8987 2.25102C21.6978 2.25102 22.1569 2.77678 22.4299 4.00458L22.6344 4.92392L23.3549 4.82463C23.7514 4.76994 24.2576 4.72518 24.48 4.72518C24.8702 4.72518 24.881 4.69653 24.7887 3.91147C24.6766 2.95925 24.164 1.71615 23.6587 1.17102C22.8593 0.308651 21.2605 -0.114722 19.8779 0.170131ZM29.5273 0.149784C27.2624 0.615316 26.1332 2.64656 26.1332 6.25492C26.1332 10.3729 27.5464 12.411 30.4195 12.4366C32.41 12.4543 33.6425 11.5468 34.3328 9.55596C34.5669 8.88061 34.6241 8.21194 34.6206 6.19013C34.6165 3.93475 34.5767 3.57225 34.2453 2.7719C33.4201 0.779554 31.5417 -0.26431 29.5273 0.149784ZM60.7107 0.17713C59.9054 0.308814 59.3388 0.644127 58.602 1.42495C57.2222 2.8873 56.9203 7.5239 58.0344 10.1436C58.8987 12.1758 61.2694 13.0276 63.4944 12.1053C65.1463 11.4207 65.9228 9.55514 65.9228 6.27152C65.9228 3.66015 65.5822 2.4164 64.5703 1.33331C63.6153 0.311256 62.2999 -0.0828185 60.7107 0.17713ZM78.0761 0.175339C76.8277 0.430568 75.7449 1.5122 75.232 3.01606C74.8595 4.1081 74.7169 7.01995 74.9715 8.33923C75.4592 10.8679 76.5788 12.1522 78.5476 12.4406C80.4044 12.7128 81.9894 11.8527 82.7853 10.1411C83.2415 9.16026 83.2908 8.88859 83.3592 6.97975C83.4656 4.01744 83.129 2.54109 82.0601 1.28122C81.2683 0.348043 79.5561 -0.127256 78.0761 0.175339ZM88.3247 0.0856523C88.2357 0.116091 87.9019 0.184618 87.5827 0.238008C86.834 0.363343 85.6979 1.34226 85.3139 2.19308C84.6694 3.62125 85.0876 5.48109 86.2575 6.38904C86.5715 6.63271 87.4325 7.06146 88.1705 7.34175C89.7487 7.94125 90.1847 8.29463 90.1847 8.97437C90.1847 9.71173 89.9251 10.0643 89.2274 10.2748C88.6899 10.4369 88.5089 10.42 87.9766 10.1584C87.6059 9.97624 87.2455 9.63344 87.0854 9.31066C86.9374 9.01262 86.7767 8.72891 86.7284 8.68024C86.68 8.63157 86.1628 8.72191 85.579 8.88094C84.6284 9.13975 84.5285 9.20567 84.6223 9.5112C85.0129 10.7854 85.9683 11.8525 87.0572 12.2313C88.4602 12.719 90.7044 12.3327 91.6917 11.4335C92.3894 10.7982 92.8131 9.78986 92.8215 8.74519C92.8364 6.88062 92.0243 5.92986 89.596 4.96934C88.3373 4.47141 87.4351 3.80779 87.4351 3.37969C87.4351 3.2485 87.586 2.94834 87.7704 2.71249C88.2559 2.09118 89.3553 2.09981 89.9357 2.72958C90.1616 2.97488 90.3465 3.26787 90.3465 3.38067C90.3465 3.6774 90.7382 3.63411 91.6914 3.23157C92.1527 3.03673 92.5543 2.8598 92.5841 2.83815C92.6137 2.81666 92.495 2.4737 92.3201 2.07604C92.0002 1.3478 91.254 0.643475 90.5076 0.364645C90.0458 0.192105 88.5666 0.0031263 88.3247 0.0856523ZM1.70957 6.27152V12.2127H3.00354H4.29751V6.27152V0.3303H3.00354H1.70957V6.27152ZM6.56196 6.27152V12.2127H7.53244H8.50291V8.02947C8.50291 5.40085 8.55969 3.90366 8.65577 4.00084C8.79179 4.13838 11.1821 9.73794 11.8658 11.521L12.131 12.2127H13.3094H14.4875V6.27152V0.3303H13.517H12.5466V3.94386C12.5466 5.93132 12.4851 7.48776 12.4099 7.40279C12.3347 7.31766 11.7056 5.85645 11.0119 4.15547C10.3184 2.45449 9.6767 0.89789 9.58613 0.69654C9.43344 0.356832 9.31779 0.3303 7.99163 0.3303H6.56196V6.27152ZM36.6468 6.27152V12.2127H39.8817H43.1166V11.1547V10.0967H41.1756H39.2347V5.2135V0.3303H37.9407H36.6468V6.27152ZM44.2488 6.27152V12.2127H45.3002H46.3515V7.45977C46.3515 4.81942 46.413 2.77548 46.4897 2.86142C46.5657 2.94655 47.009 4.77401 47.4748 6.92261C47.9407 9.07122 48.3966 11.1404 48.4882 11.521L48.6543 12.2127H49.5981C50.5252 12.2127 50.5443 12.2035 50.6866 11.6837C50.7664 11.3929 51.2974 9.25027 51.8669 6.92261L52.9022 2.69051L52.9451 7.45163L52.988 12.2127H54.1986H55.4093V6.27152V0.3303H53.5732H51.7372L51.471 1.34763C51.3246 1.90725 50.9076 3.50015 50.5443 4.88746C50.1812 6.27478 49.857 7.43714 49.8241 7.47035C49.7909 7.50355 49.7247 7.35722 49.6767 7.14529C49.6287 6.93336 49.4139 5.99074 49.1992 5.05072C48.9846 4.11071 48.7222 2.93874 48.6163 2.44635C48.5103 1.95396 48.3549 1.2765 48.271 0.9407L48.1183 0.3303H46.1835H44.2488V6.27152ZM66.7315 1.37807V2.43203L67.8736 2.47988L69.0157 2.52774L69.0013 7.37024L68.9871 12.2127H70.2832H71.5791L71.6219 7.37024L71.6648 2.52774L72.9259 2.48005L74.1869 2.43235L74.139 1.42202L74.091 0.411687L70.4113 0.367901L66.7315 0.324114V1.37807ZM30.0207 2.27804C29.801 2.33257 29.4741 2.63012 29.2928 2.94069C28.9968 3.4479 28.9638 3.78191 28.9638 6.27152C28.9638 8.74958 28.9978 9.09678 29.2888 9.59535C29.6931 10.2879 30.3179 10.528 30.9379 10.2289C31.7596 9.83267 31.8752 9.33052 31.8752 6.16116C31.8752 3.50617 31.8494 3.24882 31.5407 2.8331C31.1673 2.32981 30.6191 2.1296 30.0207 2.27804ZM60.5907 2.80185C60.1737 3.49201 60.0477 4.64965 60.1273 7.05772C60.181 8.67861 60.2541 9.1583 60.5173 9.61163C60.9596 10.3741 61.7255 10.6003 62.3319 10.148C63.003 9.64727 63.1539 8.95598 63.1641 6.33647C63.1767 3.02761 62.8912 2.28358 61.609 2.28358C60.9899 2.28358 60.8657 2.34673 60.5907 2.80185ZM78.3394 2.45368C77.7812 2.78931 77.5283 4.25362 77.5989 6.73982C77.6724 9.32173 77.8555 9.90706 78.7004 10.2593C79.3044 10.5111 79.8438 10.3171 80.2427 9.70457C80.8845 8.71865 80.8442 3.66796 80.1872 2.77873C79.8505 2.32281 78.8499 2.14685 78.3394 2.45368ZM8.01768 15.1256C4.47026 16.07 1.74192 18.9511 0.983496 22.5536C0.079173 26.8504 2.15599 31.2162 6.03386 33.1693C7.73785 34.0276 8.78581 34.2384 10.9152 34.1511C13.5432 34.0434 15.4409 33.2111 17.2675 31.3651C19.1068 29.5063 19.9905 27.2898 20.0094 24.4875C20.0191 23.0787 19.9536 22.6494 19.5492 21.469C18.9771 19.7986 18.1682 18.5349 16.9372 17.3883C14.5836 15.1962 11.0858 14.3089 8.01768 15.1256ZM8.17942 15.5631C4.92784 16.4263 2.30464 19.0917 1.47051 22.3796C0.288796 27.0373 3.2219 32.0696 7.9368 33.4737C10.2527 34.1632 13.4498 33.6632 15.4481 32.2988C18.5501 30.1811 20.1732 26.3136 19.4378 22.793C18.6986 19.255 16.0396 16.4253 12.6339 15.5525C11.4365 15.2457 9.35645 15.2506 8.17942 15.5631ZM10.0275 16.0677C9.88196 16.6503 9.84427 16.6755 8.69361 16.959C7.12823 17.345 6.04146 17.9546 4.92412 19.074C2.89857 21.1031 2.19077 24.1917 3.09267 27.0664L3.3864 28.0029L2.95243 28.4588C2.35575 29.0855 2.40476 29.2011 3.21883 29.0887C3.90544 28.994 3.94022 29.0126 4.96553 30.0193C8.09984 33.097 12.8505 33.0674 15.9471 29.9511C16.8469 29.0456 16.9144 29.0095 17.5471 29.0949C18.3371 29.2015 18.4134 28.9681 17.7999 28.3237C17.4077 27.9117 17.4014 27.873 17.6345 27.3114C17.7679 26.9903 17.9549 26.2218 18.0501 25.6039C18.6567 21.6705 15.9649 17.8102 11.9955 16.9211C11.1104 16.7229 11.0224 16.6615 10.7984 16.0877C10.4932 15.3058 10.2198 15.2988 10.0275 16.0677ZM9.99454 17.0264C9.71989 17.9303 9.66829 18.3192 9.79235 18.5523C10.0657 19.0665 9.98516 19.4591 9.47339 20.1072C9.11836 20.557 8.98815 20.8951 8.98815 21.3678C8.98815 22.1317 9.0831 22.1522 7.04946 20.9489C5.80418 20.2121 5.49007 20.0858 5.38283 20.2788C5.31005 20.4097 5.29257 20.5853 5.34417 20.6693C5.39561 20.7531 6.23669 21.2802 7.21299 21.8406C8.8125 22.7585 8.98815 22.9048 8.98815 23.3179C8.98815 23.6394 8.87623 23.8279 8.61404 23.9482C8.29103 24.0963 7.99131 23.9734 6.42108 23.0494C5.42084 22.4608 4.54159 21.9791 4.46718 21.9791C4.33779 21.9791 4.08093 22.4761 4.17232 22.5497C4.19674 22.5692 4.9445 23.0049 5.8341 23.518C6.72371 24.031 7.4713 24.4701 7.49523 24.4933C7.51933 24.5168 7.24954 24.7287 6.89564 24.9644C6.42949 25.2748 6.20596 25.5657 6.08449 26.0197C5.9195 26.6361 5.4375 27.0251 4.83888 27.0251C4.63637 27.0251 2.79683 28.8242 2.89647 28.9248C2.99206 29.0212 5.51935 28.3009 5.56447 28.1645C5.73188 27.6591 6.14498 27.4805 6.91052 27.5828C7.51885 27.664 7.82795 27.6142 8.33761 27.3524L8.98815 27.0184V29.0565C8.98815 30.9859 9.0053 31.0944 9.31165 31.0944C9.61896 31.0944 9.63514 30.9859 9.63514 28.9222C9.63514 26.9553 9.66571 26.7222 9.95928 26.4547C10.2271 26.2109 10.3536 26.1917 10.6871 26.3447C11.0897 26.5293 11.0909 26.5366 11.0909 28.8122C11.0909 30.9859 11.1062 31.0944 11.4143 31.0944C11.7773 31.0944 11.7658 31.1709 11.7386 28.9372C11.728 28.0641 11.7657 27.2743 11.8223 27.182C11.887 27.0765 12.1296 27.1416 12.4764 27.3573C12.9352 27.6427 13.1732 27.6819 13.8952 27.5911C14.7052 27.4892 14.7856 27.511 15.1049 27.9194C15.3566 28.2415 15.7559 28.4368 16.6189 28.6603C17.2636 28.8272 17.826 28.9284 17.8688 28.8854C18.0202 28.7329 16.0613 26.8893 15.8391 26.9753C15.4782 27.1146 14.8634 26.597 14.7576 26.0646C14.6609 25.5782 14.4675 25.3419 13.6917 24.7627L13.3003 24.4705L14.9467 23.5323C15.8523 23.0163 16.6282 22.5373 16.6709 22.4678C16.7135 22.3984 16.6439 22.2544 16.5165 22.1478C16.3297 21.9918 15.9593 22.1452 14.6177 22.9335C13.701 23.4723 12.8291 23.9596 12.6803 24.0167C12.375 24.1338 11.7378 23.5859 11.7378 23.2061C11.7378 23.0746 12.6059 22.4531 13.6788 21.8164C14.7463 21.1828 15.6197 20.5918 15.6197 20.5028C15.6197 20.0818 15.0417 20.2409 13.584 21.063C12.7111 21.5554 11.9386 21.922 11.8672 21.8777C11.7961 21.8335 11.7378 21.5141 11.7378 21.1682C11.7378 20.7347 11.6122 20.3888 11.3335 20.0555C10.9095 19.5486 10.8259 19.0591 11.0808 18.5796C11.1853 18.3833 11.1281 17.9417 10.8977 17.1661C10.7135 16.5456 10.518 15.9873 10.463 15.9256C10.408 15.8637 10.1972 16.3592 9.99454 17.0264ZM21.4426 16.2554C21.4426 16.3364 22.2069 18.7484 23.1409 21.6153L24.8393 26.8278V29.5036C24.8393 30.9754 24.8694 32.2101 24.9061 32.2474C24.9426 32.2846 25.7433 32.2923 26.6853 32.2641L28.3977 32.2128V29.6723V27.1317L30.1033 21.8639C31.0413 18.9667 31.8498 16.489 31.8998 16.3578C31.976 16.1577 31.7196 16.1193 30.3095 16.1193H28.6283L27.6774 19.5377C27.1545 21.4179 26.6842 22.9133 26.6322 22.861C26.5803 22.8088 26.129 21.2888 25.6294 19.4833L24.721 16.2007L23.0819 16.1543C22.1769 16.1287 21.4426 16.174 21.4426 16.2554ZM34.4682 16.3228C34.3831 16.5856 31.309 31.9505 31.3091 32.1118C31.3091 32.179 32.0342 32.2338 32.9203 32.2338H34.5316L34.6872 31.6234C34.7728 31.2878 34.9263 30.5736 35.028 30.0364C35.3449 28.366 35.2079 28.4901 36.7354 28.4901C38.0132 28.4901 38.1017 28.5124 38.1827 28.8563C38.2302 29.0578 38.3986 29.8818 38.5568 30.6875L38.8446 32.1525L40.5081 32.199C42.0408 32.2418 42.1649 32.2226 42.0859 31.9549C42.0023 31.6706 38.9112 16.3174 38.9112 16.1859C38.9112 16.1492 37.9263 16.1193 36.7226 16.1193C35.1145 16.1193 34.5164 16.1733 34.4682 16.3228ZM43.7097 16.2279C43.6504 16.2874 43.6018 19.9132 43.6018 24.2851C43.6018 31.2377 43.6322 32.2351 43.8445 32.2441C43.9779 32.2496 44.4874 32.2542 44.9767 32.2542C45.466 32.2542 46.0482 32.2496 46.2706 32.2441L46.675 32.2338L46.6938 27.6355C46.7041 25.1065 46.7449 23.1604 46.7844 23.3108C46.8238 23.4613 47.1266 25.5123 47.4572 27.8684L48.0583 32.1525L49.4367 32.199L50.8149 32.2456L51.4543 27.7227L52.0935 23.1999L52.1365 27.7055C52.1744 31.6767 52.21 32.2171 52.4374 32.2631C52.5792 32.2918 53.2702 32.2913 53.9728 32.2622L55.2506 32.2089L55.2086 24.2049L55.1667 16.2007L52.9626 16.1556L50.7585 16.1103L50.4822 17.7019C49.7466 21.9409 49.4585 23.3424 49.3689 23.1185C49.3152 22.9843 49.0504 21.5193 48.7806 19.8631C48.5108 18.2069 48.2528 16.6871 48.2074 16.4855C48.1265 16.1283 48.072 16.1193 45.9711 16.1193C44.7866 16.1193 43.7689 16.1681 43.7097 16.2279ZM59.8578 16.4855C59.4653 18.1465 56.7185 32.1271 56.7686 32.2093C56.804 32.2675 57.5497 32.2786 58.4254 32.2338L60.0176 32.1525L60.4047 30.3213L60.7917 28.4901H62.1333C63.6687 28.4901 63.496 28.2926 63.9142 30.5247C64.0653 31.3305 64.2337 32.0413 64.2884 32.1046C64.3903 32.222 67.3449 32.3239 67.4503 32.2135C67.4956 32.1661 65.6433 22.7315 64.4584 16.9739L64.2824 16.1193H62.1134C59.9976 16.1193 59.9422 16.1283 59.8578 16.4855ZM69.0723 16.3169C69.0285 16.432 69.0115 20.0788 69.0348 24.4207L69.0769 32.3152H70.6943H72.3118L72.3555 28.9312L72.3993 25.5471L73.7303 25.5943L75.0615 25.6415L75.1051 29.0191L75.149 32.3966H76.763H78.3773V24.258V16.1193H76.7632H75.1491L75.1053 19.3341L75.0615 22.5488L73.7305 22.596L72.3996 22.6432L72.3556 19.422L72.3118 16.2007L70.732 16.1541C69.5589 16.1195 69.1315 16.1613 69.0723 16.3169ZM83.1609 16.2622C83.1096 16.3459 82.6003 18.7468 82.029 21.5976C81.4579 24.4484 80.7666 27.8904 80.4927 29.2465C80.2187 30.6025 79.9946 31.8477 79.9944 32.0136C79.9941 32.2905 80.1261 32.311 81.6025 32.264L83.2111 32.2127L83.3985 31.2873C83.5015 30.7783 83.6751 29.9591 83.7841 29.4667L83.9823 28.5714L85.348 28.5249L86.7138 28.4785L87.0965 30.3561L87.4792 32.2338L88.6297 32.247C89.2626 32.2544 89.9805 32.275 90.2252 32.2931C90.5335 32.3159 90.6679 32.2495 90.6633 32.0764C90.6596 31.9392 89.9501 28.311 89.0863 24.0138L87.5159 16.2007L85.3853 16.1554C84.1844 16.1299 83.2136 16.1764 83.1609 16.2622ZM9.88698 20.7132C9.38201 21.4387 9.69094 22.793 10.3614 22.793C10.9691 22.793 11.0909 22.6008 11.0909 21.6419C11.0909 20.8658 11.0326 20.6571 10.778 20.5199C10.3234 20.2751 10.1686 20.3086 9.88698 20.7132ZM36.6563 20.4328C36.6404 20.5223 36.4648 21.6759 36.2662 22.9965L35.9051 25.3974H36.6804C37.3787 25.3974 37.4547 25.3611 37.4477 25.0311C37.4374 24.5449 36.6938 20.2238 36.6563 20.4328ZM61.9689 21.0266C61.6602 22.8405 61.3951 24.7263 61.3946 25.1125C61.3939 25.5346 61.4355 25.5601 62.1218 25.5601C62.7887 25.5601 62.8496 25.5263 62.8496 25.1568C62.8496 24.6911 62.2077 20.6278 62.1202 20.5397C62.088 20.5073 62.02 20.7264 61.9689 21.0266ZM84.9435 22.5873C84.7826 23.7299 84.6131 24.8664 84.567 25.1125C84.4842 25.5548 84.4935 25.5601 85.3324 25.5601C86.1717 25.5601 86.1806 25.5549 86.0956 25.1125C86.0484 24.8664 85.8844 23.8225 85.7312 22.793C85.578 21.7635 85.404 20.8285 85.3443 20.7154C85.2848 20.6022 85.1045 21.4446 84.9435 22.5873ZM9.88924 24.0254C9.50251 24.4147 9.58257 24.8734 10.0829 25.1337C10.6467 25.4272 11.0909 25.1613 11.0909 24.5306C11.0909 23.8668 10.3546 23.5572 9.88924 24.0254ZM7.61525 25.3248C6.88949 25.7656 6.66531 26.095 6.80005 26.5225C6.95791 27.0228 7.53454 27.0549 8.29636 26.6055C8.84937 26.2793 8.98815 26.1062 8.98815 25.7421C8.98815 25.023 8.40441 24.8456 7.61525 25.3248ZM12.1145 25.198C12.0104 25.2647 11.8763 25.5152 11.8166 25.7548C11.7173 26.153 11.7792 26.2269 12.5344 26.612C13.168 26.9351 13.4326 26.995 13.6675 26.8683C14.3332 26.5099 14.2033 25.8966 13.3608 25.42C12.7094 25.0516 12.423 25.0005 12.1145 25.198Z" fill="#3D3D3D"/>
</svg>
