<svg width="119" height="28" viewBox="0 0 119 28" fill="none" xmlns="http://www.w3.org/2000/svg">
<path fill-rule="evenodd" clip-rule="evenodd" d="M0.408731 0.659486C0.388568 0.711798 0.381409 1.14497 0.392805 1.62217L0.41348 2.48982L59.349 2.50806L118.285 2.52623V1.54538V0.564453H59.365C10.8983 0.564453 0.438902 0.581309 0.408731 0.659486ZM57.8927 7.97074C56.1834 8.2424 54.6603 9.20123 53.689 10.6173C52.0654 12.9843 52.3343 16.371 54.3136 18.483C55.4774 19.7249 56.9715 20.3275 58.8838 20.3263C60.2047 20.3255 61.8244 19.9657 62.7277 19.4724L63.093 19.273L63.1135 18.3467C63.1251 17.8174 63.1051 17.4205 63.0668 17.4205C63.0298 17.4205 62.7741 17.5519 62.4984 17.7124C61.3692 18.37 60.2656 18.6754 59.002 18.6802C57.984 18.6839 57.444 18.5667 56.7084 18.1823C54.5829 17.0715 53.754 14.3301 54.8531 12.0469C55.2153 11.2942 56.0794 10.4373 56.847 10.0693C57.5988 9.70895 58.0628 9.61086 59.002 9.6137C60.2208 9.6174 61.3834 9.93084 62.529 10.5646L62.9877 10.8184L62.9673 9.85375L62.9469 8.88918L62.3259 8.64636C61.215 8.21196 60.1281 7.96979 59.1481 7.93855C58.666 7.92315 58.1011 7.93768 57.8927 7.97074ZM110.837 7.98062C107.61 8.55097 105.495 11.4945 105.867 14.8958C106.11 17.1258 107.356 18.8864 109.323 19.7802C110.097 20.1323 110.691 20.2625 111.71 20.3039C113.158 20.3628 114.425 20.0406 115.536 19.3312C116.778 18.5371 117.667 17.3456 118.082 15.9165C118.306 15.1471 118.323 13.2319 118.112 12.4436C117.685 10.8398 116.507 9.34873 115.077 8.60139C114.215 8.151 113.425 7.96449 112.258 7.9355C111.695 7.92155 111.056 7.94182 110.837 7.98062ZM0.427286 8.09476C0.399599 8.1223 0.376953 10.8531 0.376953 14.1632V20.1814H1.83736H3.29776L3.31668 16.4229L3.3356 12.6644L4.86972 14.533C6.34561 16.3306 6.41362 16.4015 6.6609 16.4024C6.90877 16.4034 6.9727 16.3367 8.4507 14.5376L9.98343 12.672L10.0024 16.4267L10.0213 20.1814H11.4821H12.9429L12.9243 14.1329L12.9056 8.0843L11.6507 8.06446L10.3958 8.04456L8.55254 10.2645C7.53871 11.4854 6.67814 12.474 6.64016 12.4614C6.60217 12.4489 5.75906 11.4589 4.76664 10.2614L2.96208 8.0843L1.71989 8.06446C1.03669 8.05357 0.455047 8.06723 0.427286 8.09476ZM18.8023 8.24647C18.6457 8.68211 14.2407 20.0759 14.2091 20.127C14.1906 20.157 14.8759 20.1812 15.732 20.181L17.2887 20.1806L17.7187 18.9822L18.1487 17.7838H20.7268H23.3047L23.771 18.9645L24.2373 20.1451L25.813 20.1647L27.3888 20.1842L24.8166 14.1343L22.2444 8.0843L20.5595 8.06483L18.8746 8.04536L18.8023 8.24647ZM28.6972 8.09643C28.6704 8.12303 28.6485 10.8531 28.6485 14.1632V20.1814L31.5158 20.18C33.0928 20.1792 34.6133 20.1461 34.8945 20.1062C37.1985 19.7805 38.7747 18.7477 39.6034 17.0209C40.0686 16.0513 40.1543 15.6047 40.1542 14.151C40.154 13.0409 40.1327 12.8063 39.9862 12.3025C39.2979 9.93593 37.4448 8.44642 34.7868 8.12324C34.1121 8.04122 28.7763 8.01767 28.6972 8.09643ZM42.3581 8.09643C42.3313 8.12303 42.3094 10.8531 42.3094 14.1632V20.1814H46.6195H50.9297V19.0553V17.9291H48.0806H45.2315V16.5132V15.0974L47.8797 15.0783L50.5279 15.0592L50.548 13.9512L50.5682 12.8432H47.8999H45.2315V11.5718V10.3003H48.0075H50.7836V9.17413V8.04797H46.5952C44.2916 8.04797 42.3849 8.06977 42.3581 8.09643ZM65.102 14.1147V20.1814H68.4624H71.8228V19.3822V18.583H69.3025H66.7822V16.7303V14.8776H69.1564H71.5306V14.0784V13.2792H69.1564H66.7822V11.4628V9.64639H69.2295H71.6767V8.84718V8.04797H68.3893H65.102V14.1147ZM73.6492 14.1147V20.1814H74.4522H75.2552L75.2741 15.5879L75.2929 10.9945L79.1147 15.5879L82.9365 20.1814H83.6623H84.388V14.1147V8.04797H83.5849H82.7819L82.763 12.7092L82.7443 17.3705L78.8725 12.7129L75.0006 8.05531L74.3249 8.05168L73.6492 8.04797V14.1147ZM85.8648 8.82902L85.8856 9.61007L87.8397 9.62939L89.7939 9.64879V14.9151V20.1814H90.6705H91.5472V14.9151V9.64872L93.5379 9.62939L95.5286 9.61007L95.5493 8.82902L95.5701 8.04797H90.7071H85.8441L85.8648 8.82902ZM97.1722 14.1069V20.1814H98.0124H98.8525V17.5658V14.9502L99.4186 14.9518C100.11 14.9538 100.452 15.0918 100.979 15.5818C101.513 16.0782 101.923 16.6311 102.572 17.7316C102.884 18.2599 103.358 19.0272 103.625 19.4367L104.11 20.1814H105.101C105.887 20.1814 106.08 20.1623 106.034 20.0887C106.001 20.0376 105.743 19.6535 105.459 19.235C105.175 18.8165 104.702 18.0654 104.407 17.5658C103.6 16.1983 103.073 15.464 102.503 14.917C102.22 14.6452 101.998 14.4189 102.009 14.4141C102.588 14.1728 103.266 13.5726 103.52 13.0761C103.905 12.3264 103.997 11.2866 103.755 10.4202C103.475 9.41644 102.701 8.64956 101.605 8.29195C101.032 8.10493 100.928 8.09556 99.0899 8.06461L97.1722 8.03235V14.1069ZM98.8525 11.4628V13.3727L99.7839 13.3303C100.87 13.2808 101.128 13.2179 101.503 12.9104C102.266 12.2842 102.36 10.9478 101.693 10.1928C101.333 9.78531 100.853 9.63353 99.7855 9.59052L98.8525 9.55289V11.4628ZM110.979 9.68236C108.732 10.1867 107.272 12.4153 107.611 14.8238C107.767 15.9278 108.147 16.6967 108.916 17.4584C110.364 18.8949 112.787 19.126 114.534 17.9944C116.267 16.8713 117.005 14.5913 116.31 12.5095C115.909 11.3096 114.791 10.2133 113.536 9.78938C112.919 9.58079 111.666 9.52833 110.979 9.68236ZM31.5706 14.1127V17.944L33.0499 17.9112C34.7283 17.8738 35.1417 17.7796 35.8062 17.283C36.7548 16.5741 37.1935 15.5723 37.1935 14.1147C37.1935 12.892 36.9131 12.0681 36.2606 11.3744C35.8589 10.9472 35.4548 10.6993 34.8371 10.501C34.4705 10.3833 34.1124 10.3481 32.9769 10.3183L31.5706 10.2815V14.1127ZM19.7787 13.2679C19.3401 14.4929 18.9668 15.5361 18.949 15.586C18.9238 15.657 19.3021 15.6768 20.6857 15.6768C22.0719 15.6768 22.4466 15.6572 22.4175 15.586C22.3971 15.5361 21.9982 14.5344 21.5311 13.3601C21.064 12.1858 20.658 11.1835 20.6289 11.1329C20.5986 11.0799 20.2365 11.9892 19.7787 13.2679ZM0.523059 26.6841V27.665H59.4403H118.358V26.6841V25.7033H59.4403H0.523059V26.6841Z" fill="#3D3D3D"/>
</svg>
