<svg width="121" height="28" viewBox="0 0 121 28" fill="none" xmlns="http://www.w3.org/2000/svg">
<path d="M0.226562 24.7717V18.9368C2.63922 15.9509 3.09055 12.1758 4.40752 8.76105C6.96345 2.12718 8.84674 0.701728 16.1984 0.695141C26.4885 0.686798 36.7781 0.686798 47.0672 0.695141H84.0932C83.7663 1.85777 83.545 2.78589 83.2423 3.68833C82.7042 5.29888 82.0478 6.87452 81.5695 8.50153C81.2433 9.61278 80.9158 9.75305 79.8315 9.15297C77.4168 7.80986 75.508 8.97051 74.0396 10.8202C72.3292 12.9755 71.095 15.3501 72.1422 18.2162C72.4483 19.0521 73.0435 19.8346 73.971 19.8366C76.0057 19.8412 78.1379 19.9558 80.0333 19.392C80.8754 19.1417 81.24 17.3566 81.8669 16.1841C83.4448 20.2885 84.977 20.7865 89.5615 18.8018C90.1669 18.7155 90.3546 18.232 90.0848 17.8657C89.5736 17.1721 88.9178 17.4284 88.34 17.8954C86.9578 17.9422 85.3133 18.124 85.3348 16.1748C85.3537 14.3305 87.0722 14.9351 88.1867 14.7105C89.1583 14.5733 90.1126 14.3378 91.0346 14.0077C92.8076 13.2442 93.9893 11.8418 93.1667 9.9612C92.2695 7.90866 90.5126 8.60888 88.8035 9.08382C88.938 10.6917 91.7858 9.63119 90.9424 11.4703C90.1978 13.094 88.6481 13.4919 86.9955 13.1303C86.372 12.0059 88.4551 11.3155 87.1758 10.0133C84.9837 10.3551 84.5486 13.0967 82.0276 14.0611C83.5228 10.039 84.9313 6.56293 86.0868 3.00787C86.6693 1.21617 87.5471 0.616103 89.4936 0.645087C97.427 0.763655 105.373 0.921076 113.296 0.626633C120.21 0.368418 120.921 4.33187 119.791 9.00148C118.804 12.6358 117.602 16.2107 116.19 19.7082C113.789 26.1635 111.719 27.5093 104.58 27.5198C85.2395 27.5501 65.8986 27.5817 46.5574 27.6147C46.063 26.1734 47.0188 25.0365 47.4769 23.8357C49.3602 18.892 51.3478 13.9866 53.2613 9.15695C52.0432 8.32434 51.0774 9.05681 50.1364 8.91914C45.007 8.16821 40.0997 12.5289 40.2934 17.6181C40.3875 20.0803 41.6884 20.7595 43.9591 20.3247C44.7178 20.1798 45.27 19.1246 46.3267 19.8696L43.2219 27.5982C31.4035 27.5719 19.585 27.4737 7.76721 27.5686C4.76871 27.5936 2.24709 26.9862 0.226562 24.7717ZM58.3846 18.2807C59.9989 20.573 61.2936 20.5329 62.3496 17.8242C63.185 15.6795 64.2054 13.6026 64.9937 11.442C65.3065 10.5857 66.68 9.39209 65.2069 8.73074C63.629 8.02197 62.877 9.34795 62.3503 10.7154C61.3475 13.322 60.2787 15.9146 57.9568 17.7419C55.5394 18.7069 55.7285 17.2209 56.1912 15.8099C56.7905 13.9846 57.6467 12.2417 58.2931 10.4296C58.4889 9.87956 59.2644 9.03375 58.1505 8.66356C57.3609 8.40007 56.4428 8.41062 56.0015 9.45402C55.1594 11.4506 54.1949 13.4023 53.4416 15.4292C52.9143 16.8494 52.0486 18.591 53.749 19.6897C55.6383 20.9116 57.1874 19.8662 58.3846 18.2807ZM99.7052 10.6146C101.515 9.91048 102.448 10.2155 101.665 12.3214C100.993 14.1341 100.197 15.9041 99.5585 17.7281C99.3312 18.3769 98.4151 19.3215 99.8538 19.7411C100.059 19.8128 100.277 19.8429 100.494 19.8295C100.712 19.8161 100.924 19.7596 101.118 19.6632C101.313 19.5669 101.485 19.4329 101.625 19.2693C101.765 19.1057 101.869 18.9159 101.932 18.7116C102.774 16.9679 103.523 15.1823 104.176 13.3621C104.643 11.857 106.085 10.0442 104.243 8.70638C102.273 7.27829 100.581 8.54104 99.1314 9.98098C98.257 8.0088 96.965 7.35929 95.8625 9.60089C94.3041 12.7713 93.1358 16.1254 91.8128 19.3709C94.0324 20.2062 94.8496 19.251 95.4153 17.6767C96.3549 15.0497 97.5259 12.5315 99.7052 10.6146ZM29.3332 10.9078C27.8978 10.6634 29.7953 7.44297 27.3517 8.49888C25.5195 9.28933 22.49 7.01085 21.7353 10.8044C21.251 13.2383 19.8944 15.501 18.9965 17.8644C18.7738 18.45 18.1342 19.2971 19.0994 19.7088C19.2871 19.8165 19.497 19.8816 19.7138 19.8995C19.9305 19.9173 20.1486 19.8875 20.352 19.8121C20.5554 19.7367 20.739 19.6176 20.8893 19.4636C21.0397 19.3097 21.1529 19.1247 21.2208 18.9223C21.8261 17.4778 22.5902 16.0932 23.1175 14.6249C24.1843 11.6607 26.334 10.5685 29.3957 10.8781L28.5845 12.8286C27.6429 15.0886 26.4893 17.4547 28.9208 19.4374C30.8405 21.0032 34.484 20.1805 36.5832 17.8671C38.162 16.2979 39.0399 14.179 39.0242 11.9762C38.926 9.08974 36.9209 7.67946 34.0253 8.25978C32.1205 8.63986 31.086 10.3479 29.3332 10.9078ZM15.4101 4.10658C14.5707 4.43132 12.9093 3.42086 12.197 5.17698C10.4249 9.54731 8.67973 13.928 6.96143 18.319C6.75964 18.8308 6.45495 19.5982 7.37306 19.7569C7.92461 19.8518 8.79562 19.801 9.07274 19.4618C9.67021 18.6975 10.1125 17.8281 10.3756 16.9007C10.9709 14.9055 11.7619 13.5624 14.3602 13.7389C16.2489 13.8707 17.777 12.5249 19.0186 11.1041C19.669 10.4474 20.1173 9.62452 20.3123 8.72981C20.5073 7.83511 20.441 6.90472 20.1211 6.0452C19.3792 4.07763 17.5483 4.05388 15.4081 4.10658H15.4101ZM113.506 9.74253C113.614 8.32893 111.959 8.82561 111.985 7.66299C111.998 7.04643 113.278 5.99842 111.613 5.71978C110.526 5.53864 109.974 6.18086 109.278 7.02072C106.793 10.0297 107.062 14.0195 105.233 17.2498C104.794 18.0258 104.789 19.253 106.099 19.6397C107.183 19.9598 108.553 20.1541 109.276 19.3169C110.704 17.6615 108.354 18.4105 108.07 17.7841C107.973 17.5663 107.91 17.3353 107.883 17.099C107.635 14.9049 111.147 10.3163 113.506 9.74253ZM71.6122 9.83934C71.8678 9.10224 71.623 8.72812 70.8165 8.63393C70.3853 8.56592 69.9438 8.66039 69.5809 8.89835C69.218 9.13631 68.9606 9.50007 68.8605 9.91641C67.7911 12.6138 66.7082 15.3053 65.6939 18.0225C65.4921 18.56 64.5996 19.3347 65.8325 19.753C66.5501 19.996 67.5032 19.9822 67.818 19.251C69.1538 16.1379 70.3584 12.9702 71.6122 9.83673V9.83934ZM73.6845 4.94581C73.8338 4.04798 73.3819 3.58488 72.7388 3.56249C71.3862 3.51704 70.8468 4.48471 70.6114 5.60452C70.572 5.75141 70.567 5.90508 70.5968 6.05412C70.6266 6.20316 70.6903 6.34372 70.7833 6.46525C70.8763 6.58678 70.9961 6.68617 71.1338 6.75601C71.2715 6.82585 71.4236 6.86434 71.5786 6.86859C72.9029 6.87978 73.4054 5.88774 73.6845 4.94315V4.94581ZM87.4805 9.76822L87.7313 10.197C87.8114 10.12 87.9701 10.0244 87.956 9.96976C87.8994 9.80769 87.823 9.65291 87.7286 9.5087L87.4805 9.76822Z" fill="#3D3D3D"/>
<path d="M79.8537 13.4346C79.0681 15.2039 79.2726 17.9903 76.2216 18.0456C74.6074 18.0759 74.3531 16.5529 74.6746 15.3185C75.2208 13.2238 75.8012 10.7734 78.374 10.444C79.7374 10.2767 79.9156 12.0283 79.8537 13.4346Z" fill="#3D3D3D"/>
<path d="M43.3241 16.1498C44.0236 13.6131 44.9727 11.0474 48.0405 10.3485C49.4759 10.0192 49.5875 11.4124 49.2707 12.3313C48.4057 14.8627 47.4277 17.5351 44.475 18.3045C42.9623 18.7017 43.3712 17.1623 43.3241 16.1498Z" fill="#3D3D3D"/>
<path d="M17.3694 7.99823C17.2807 9.01712 16.8454 9.97742 16.1334 10.7254C15.4213 11.4733 14.4737 11.9657 13.4421 12.1237C12.9618 12.2265 12.0605 11.5698 12.5165 11.0632C13.8618 9.56795 13.284 6.8027 15.6939 6.18549C16.6665 5.93649 17.5403 6.73218 17.3694 7.99823Z" fill="#3D3D3D"/>
<path d="M32.4043 18.1931C30.977 18.3426 30.521 17.7603 30.5808 16.9686C30.6673 15.7095 31.0187 14.4816 31.613 13.362C32.2072 12.2423 33.0315 11.2552 34.034 10.4625C34.1685 10.3347 34.3316 10.2395 34.5104 10.1846C34.6892 10.1298 34.8786 10.1168 35.0635 10.1466C35.2483 10.1765 35.4235 10.2483 35.5748 10.3565C35.7261 10.4647 35.8495 10.6061 35.9348 10.7695C36.7729 12.3662 35.9584 13.8055 35.273 15.1986C34.5768 16.6149 33.7307 17.9408 32.4043 18.1931Z" fill="#3D3D3D"/>
</svg>
