<svg width="80" height="44" viewBox="0 0 80 44" fill="none" xmlns="http://www.w3.org/2000/svg">
<path fill-rule="evenodd" clip-rule="evenodd" d="M37.0896 1.18508C37.0111 1.31225 38.1335 2.09514 39.5837 2.92445C41.0342 3.75402 43.0684 5.10672 44.1041 5.93113C46.6057 7.92123 51.7464 12.9092 51.4115 13.0212C51.2657 13.0697 50.4817 12.9866 49.6696 12.8362C48.8573 12.6859 48.1553 12.6005 48.1094 12.6464C48.0149 12.7408 53.456 15.1477 53.7546 15.1436C54.1158 15.1387 53.9329 12.4377 53.4833 11.1428C52.8707 9.37737 51.3648 7.18272 49.4893 5.32237C47.4901 3.33898 44.5864 1.8524 41.7102 1.33934C39.3429 0.917072 37.2973 0.848715 37.0896 1.18508ZM28.6966 3.56366C27.7609 3.98308 27.2413 4.65582 26.6497 6.21411C26.4369 6.77412 26.5451 6.92218 27.7503 7.72261C28.4853 8.21065 31.5017 10.0233 34.4536 11.7508C37.4052 13.4783 40.3615 15.302 41.0231 15.8032C42.7433 17.1071 50.5987 24.4441 50.5987 24.7469C50.5987 24.8978 50.2071 24.9331 49.6325 24.8341C49.1013 24.7425 48.3186 24.613 47.8936 24.5462C47.1379 24.4276 47.1351 24.4312 47.7647 24.7069C48.119 24.8619 49.2989 25.3211 50.3871 25.7266L52.3655 26.4643L52.899 24.1887C53.1925 22.9369 53.4326 21.7456 53.4326 21.5411C53.4326 21.0987 45.8299 13.5451 43.2562 11.4304C42.2644 10.6153 39.3181 8.70824 36.7091 7.19226L31.9654 4.43605L33.3123 4.26864C34.0532 4.17655 34.7089 4.0517 34.7697 3.99108C34.8302 3.9302 33.7121 3.70914 32.2846 3.49943C29.8874 3.14758 29.6135 3.15248 28.6966 3.56366ZM25.6728 15.3538L25.7375 18.4279L29.2155 20.4941C31.1284 21.6306 33.8265 23.2211 35.2115 24.0285C38.2727 25.8133 39.9782 27.1595 44.1221 31.0634C47.2438 34.004 47.3152 34.053 47.7289 33.5325C47.9613 33.2405 48.6018 32.463 49.1526 31.8047C50.3536 30.369 50.7481 30.9767 45.3173 25.8961C40.4337 21.3275 39.017 20.2872 32.7579 16.672C29.9595 15.0557 27.6697 13.6436 27.6697 13.5343C27.6697 13.4249 28.3944 13.3245 29.2799 13.3111L30.8901 13.2869L29.0867 12.9348C28.0948 12.7411 26.9063 12.5146 26.4457 12.4313L25.6084 12.2801L25.6728 15.3538ZM1.26637 39.8399C0.871421 41.3649 0.493737 42.7581 0.427011 42.9353C0.344827 43.1543 0.590605 43.2578 1.19294 43.2578H2.07996L2.7789 40.6138C3.16329 39.1597 3.53788 37.7667 3.6113 37.5183C3.72028 37.1505 3.58219 37.0669 2.86469 37.0669H1.98463L1.26637 39.8399ZM5.64245 37.2524C5.35905 37.3215 4.92315 37.5594 4.6735 37.7809C4.22626 38.1782 3.39386 40.5152 3.05431 42.3278C2.8853 43.2302 2.90334 43.2578 3.66334 43.2578C4.39655 43.2578 4.47307 43.1634 4.86441 41.7745C5.55228 39.3323 5.66331 39.0377 5.92816 38.9492C6.06779 38.9025 6.55729 39.7842 7.01638 40.9081C7.47547 42.0322 8.03607 43.023 8.26253 43.11C8.93906 43.37 10.3295 42.9892 10.8751 42.3949C11.3384 41.8904 12.4696 38.3825 12.4696 37.451C12.4696 37.1974 12.2104 37.0669 11.7068 37.0669C10.8867 37.0669 10.938 36.964 10.1339 40.2268C9.96803 40.9009 9.69031 41.4521 9.51692 41.4521C9.34354 41.4521 8.88213 40.6362 8.49156 39.6392C7.51232 37.1407 7.19414 36.874 5.64245 37.2524ZM13.2685 37.6473C13.0549 38.2244 13.0701 38.2282 15.8646 38.3007C18.014 38.3567 18.7086 38.4606 18.8168 38.7426C19.0229 39.2801 18.1787 41.6391 17.7167 41.8166C17.4998 41.8999 16.5079 41.968 15.5125 41.968C13.894 41.968 13.7212 41.9203 13.877 41.5166C13.9729 41.2682 14.1174 40.7373 14.1983 40.3367C14.3379 39.6439 14.3037 39.6124 13.4965 39.6918C12.6891 39.7713 12.6252 39.8569 12.1813 41.4521C11.9247 42.3743 11.7106 43.1695 11.7057 43.2191C11.7008 43.2689 13.1956 43.2689 15.0273 43.2191C19.161 43.1071 19.5812 42.8804 20.2675 40.3937C20.5179 39.4863 20.6635 38.4939 20.5911 38.189C20.3971 37.3729 19.1888 37.0669 16.1586 37.0669C13.6199 37.0669 13.4726 37.0966 13.2685 37.6473ZM21.9158 37.2604C21.8519 37.3667 21.5405 38.4196 21.2236 39.6C20.4906 42.3304 20.6715 42.8845 22.3783 43.1407C23.0254 43.2379 24.3056 43.2696 25.223 43.2111C27.5581 43.0622 28.1625 42.553 28.8739 40.1347C29.6658 37.4433 29.6478 37.0669 28.7286 37.0669C28.0131 37.0669 27.9616 37.1505 27.4198 39.195C27.1096 40.3654 26.6688 41.4684 26.4405 41.6456C25.841 42.1114 22.7995 42.0745 22.6173 41.5991C22.5395 41.3964 22.717 40.3504 23.0118 39.2747C23.3065 38.1991 23.5476 37.2625 23.5476 37.1931C23.5476 36.9875 22.0426 37.0496 21.9158 37.2604ZM31.8775 37.2462C31.0052 37.4165 30.0499 38.4596 29.7521 39.5672C29.2085 41.5886 29.1776 42.0892 29.5651 42.6129C29.9075 43.0759 30.2455 43.1288 32.8658 43.1288C35.6969 43.1288 35.7876 43.1112 35.8674 42.5484C35.9476 41.983 35.8891 41.968 33.6049 41.968C30.8682 41.968 30.7556 41.863 31.4022 39.9137C31.8969 38.4225 31.9729 38.3884 35.0121 38.2927C36.9304 38.2321 37.0788 38.1875 37.1556 37.6473C37.236 37.079 37.188 37.0677 34.8369 37.102C33.5163 37.1214 32.1846 37.1864 31.8775 37.2462ZM41.0337 37.5532C40.6941 37.8207 39.5131 39.2136 38.4095 40.6486L36.4025 43.2578H37.3449C38.0475 43.2578 38.4182 43.0909 38.8029 42.6013C39.2702 42.0064 39.467 41.952 40.901 42.0209C42.3185 42.089 42.4919 42.1573 42.5658 42.6774C42.6353 43.1688 42.8059 43.2578 43.678 43.2578C44.5397 43.2578 44.6853 43.184 44.5696 42.8063C44.4936 42.5579 44.1919 41.3172 43.8993 40.0488C43.6064 38.7805 43.2408 37.5906 43.0867 37.4048C42.6856 36.9207 41.7512 36.9882 41.0337 37.5532ZM48.0984 37.3525C47.1245 37.6344 46.4766 38.4583 46.4766 39.4143C46.4766 40.4631 47.0465 40.7314 49.581 40.8761C51.5403 40.988 51.8979 41.075 51.8311 41.424C51.7647 41.7714 51.2705 41.8509 48.8019 41.9125C45.8714 41.9855 45.4597 42.1143 45.4499 42.9611C45.4468 43.2405 46.1005 43.2916 48.7427 43.2191C52.5579 43.1146 53.2971 42.8247 53.5786 41.3223C53.8448 39.9008 53.4802 39.6761 50.7682 39.5912C48.6051 39.5237 48.4088 39.4746 48.4088 39.0016C48.4088 38.52 48.6051 38.4808 51.3617 38.4121C54.2745 38.3397 54.7068 38.2078 54.7168 37.3894C54.7215 37.0004 49.4172 36.9707 48.0984 37.3525ZM56.9474 37.3321C56.5424 37.4536 55.9965 37.7474 55.7342 37.9852C55.1033 38.5569 54.408 40.6999 54.5105 41.7578C54.6262 42.9562 55.3813 43.2495 58.3618 43.2539C60.8059 43.2578 60.8456 43.248 60.9669 42.6129L61.0901 41.968H58.6998C56.0295 41.968 55.9529 41.9133 56.3469 40.2926C56.7789 38.5145 57.0592 38.3567 59.7844 38.3567C61.1086 38.3567 62.1919 38.2501 62.1919 38.1199C62.1919 37.9896 62.2623 37.6994 62.3483 37.475C62.4843 37.1198 62.1917 37.0698 60.0941 37.0891C58.7683 37.1012 57.3521 37.2106 56.9474 37.3321ZM64.5948 37.232C64.287 37.3001 63.7514 37.6396 63.4046 37.9868C62.6984 38.6938 61.8197 41.4583 62.0603 42.2167C62.3032 42.9838 63.8132 43.3419 66.18 43.194C69.2211 43.0039 69.5946 42.6771 70.2168 39.6619C70.6674 37.4771 70.4072 37.2454 67.4148 37.1675C66.1718 37.135 64.9027 37.1642 64.5948 37.232ZM72.552 37.4557C71.6575 37.8447 70.832 39.293 71.1025 39.9991C71.321 40.5686 71.8832 40.7185 74.3767 40.8707C76.276 40.9868 76.63 41.0763 76.5638 41.424C76.4981 41.7691 75.9637 41.8607 73.396 41.968C70.434 42.0916 70.3039 42.1207 70.2248 42.6774C70.1439 43.2487 70.1864 43.2578 72.9299 43.2562C76.3906 43.2544 77.5185 42.9701 78.0356 41.9688C78.9922 40.1167 78.4633 39.6464 75.4235 39.6464C73.0051 39.6464 72.4417 39.4321 73.0216 38.7323C73.261 38.4436 74.0122 38.3567 76.2641 38.3567C77.8764 38.3567 79.1954 38.2501 79.1954 38.1199C79.1954 37.9896 79.2658 37.6994 79.3518 37.475C79.4891 37.1167 79.1357 37.0682 76.4535 37.077C74.3935 37.084 73.1231 37.207 72.552 37.4557ZM64.8337 38.5218C64.3841 38.7111 63.6208 41.4382 63.9307 41.7485C64.0652 41.8831 64.9741 41.9587 65.9507 41.9162C67.6323 41.8432 67.7454 41.7988 68.0903 41.076C68.2908 40.6563 68.4657 39.9018 68.4791 39.3993L68.5038 38.4857L66.8293 38.4361C65.9082 38.4088 65.0101 38.4475 64.8337 38.5218ZM41.1218 39.5685C40.3857 40.6034 40.3994 40.6782 41.324 40.6782C42.1232 40.6782 42.1848 40.5335 41.8689 39.3996L41.6924 38.7661L41.1218 39.5685Z" fill="#3D3D3D"/>
</svg>
