<svg width="100" height="18" viewBox="0 0 100 18" fill="none" xmlns="http://www.w3.org/2000/svg">
<path fill-rule="evenodd" clip-rule="evenodd" d="M6.74413 0.528979C6.74413 0.684748 6.68604 0.704197 6.22157 0.704197C5.7571 0.704197 5.69901 0.723647 5.69901 0.879416C5.69901 0.9962 5.64092 1.05464 5.52482 1.05464C5.40873 1.05464 5.35064 1.11307 5.35064 1.22985C5.35064 1.3759 5.29255 1.40507 5.00226 1.40507C4.71198 1.40507 4.65389 1.43425 4.65389 1.58029C4.65389 1.69707 4.5958 1.75551 4.4797 1.75551C4.36361 1.75551 4.30552 1.81395 4.30552 1.93073C4.30552 2.04751 4.24742 2.10595 4.13133 2.10595C4.01523 2.10595 3.95714 2.16438 3.95714 2.28117C3.95714 2.39795 3.89905 2.45639 3.78295 2.45639C3.66686 2.45639 3.60877 2.51482 3.60877 2.6316C3.60877 2.74839 3.55068 2.80682 3.43458 2.80682C3.31849 2.80682 3.26039 2.86526 3.26039 2.98204C3.26039 3.09883 3.2023 3.15726 3.08621 3.15726C2.94102 3.15726 2.91202 3.2157 2.91202 3.5077C2.91202 3.7997 2.88302 3.85814 2.73783 3.85814C2.58298 3.85814 2.56365 3.91657 2.56365 4.38379C2.56365 4.85101 2.54431 4.90945 2.38946 4.90945C2.22494 4.90945 2.21527 4.96788 2.21527 5.96076C2.21527 6.95364 2.22494 7.01208 2.38946 7.01208C2.53464 7.01208 2.56365 7.07051 2.56365 7.36251C2.56365 7.65452 2.59265 7.71295 2.73783 7.71295C2.88302 7.71295 2.91202 7.77139 2.91202 8.06339C2.91202 8.35539 2.94102 8.41383 3.08621 8.41383C3.2023 8.41383 3.26039 8.47226 3.26039 8.58905C3.26039 8.70583 3.31849 8.76426 3.43458 8.76426C3.55068 8.76426 3.60877 8.8227 3.60877 8.93948C3.60877 9.05627 3.66686 9.1147 3.78295 9.1147C3.89905 9.1147 3.95714 9.17314 3.95714 9.28992C3.95714 9.43597 4.01523 9.46514 4.30552 9.46514C4.5958 9.46514 4.65389 9.49431 4.65389 9.64036C4.65389 9.7864 4.71198 9.81558 5.00226 9.81558C5.29255 9.81558 5.35064 9.84475 5.35064 9.9908C5.35064 10.1368 5.40873 10.166 5.69901 10.166C5.98929 10.166 6.04738 10.1952 6.04738 10.3412C6.04738 10.5018 6.10548 10.5165 6.74413 10.5165C7.38279 10.5165 7.44088 10.5311 7.44088 10.6917C7.44088 10.8474 7.49897 10.8669 7.96344 10.8669C8.42791 10.8669 8.486 10.8863 8.486 11.0421C8.486 11.1882 8.54409 11.2173 8.83438 11.2173C9.12466 11.2173 9.18275 11.2465 9.18275 11.3925C9.18275 11.5093 9.24084 11.5678 9.35694 11.5678C9.47303 11.5678 9.53112 11.6262 9.53112 11.743C9.53112 11.8598 9.58921 11.9182 9.70531 11.9182C9.86016 11.9182 9.8795 11.9766 9.8795 12.4439C9.8795 12.9111 9.86016 12.9695 9.70531 12.9695C9.56013 12.9695 9.53112 13.028 9.53112 13.32C9.53112 13.612 9.50212 13.6704 9.35694 13.6704C9.24084 13.6704 9.18275 13.7288 9.18275 13.8456C9.18275 13.9917 9.12466 14.0208 8.83438 14.0208C8.54409 14.0208 8.486 14.05 8.486 14.196C8.486 14.3615 8.42791 14.3713 7.44088 14.3713C6.45385 14.3713 6.39576 14.3615 6.39576 14.196C6.39576 14.0793 6.33767 14.0208 6.22157 14.0208C6.10548 14.0208 6.04738 13.9624 6.04738 13.8456C6.04738 13.7288 5.98929 13.6704 5.8732 13.6704C5.7571 13.6704 5.69901 13.612 5.69901 13.4952C5.69901 13.3784 5.64092 13.32 5.52482 13.32C5.36222 13.32 5.35064 13.2615 5.35064 12.4439V11.5678H4.13133C2.97011 11.5678 2.91202 11.5761 2.91202 11.743C2.91202 11.9085 2.85393 11.9182 1.8669 11.9182H0.821777V13.4952C0.821777 15.0137 0.828222 15.0721 0.995964 15.0721C1.14115 15.0721 1.17015 15.1306 1.17015 15.4226C1.17015 15.7146 1.19915 15.773 1.34434 15.773C1.48952 15.773 1.51853 15.8315 1.51853 16.1235C1.51853 16.4155 1.54753 16.4739 1.69271 16.4739C1.80881 16.4739 1.8669 16.5323 1.8669 16.6491C1.8669 16.7952 1.92499 16.8243 2.21527 16.8243C2.50556 16.8243 2.56365 16.8535 2.56365 16.9995C2.56365 17.1456 2.62174 17.1748 2.91202 17.1748C3.2023 17.1748 3.26039 17.2039 3.26039 17.35C3.26039 17.5058 3.31849 17.5252 3.78295 17.5252C4.24742 17.5252 4.30552 17.5447 4.30552 17.7004C4.30552 17.8714 4.36361 17.8756 6.74413 17.8756C9.12466 17.8756 9.18275 17.8714 9.18275 17.7004C9.18275 17.5398 9.24084 17.5252 9.8795 17.5252C10.5182 17.5252 10.5762 17.5106 10.5762 17.35C10.5762 17.2039 10.6343 17.1748 10.9246 17.1748C11.2149 17.1748 11.273 17.1456 11.273 16.9995C11.273 16.8828 11.3311 16.8243 11.4472 16.8243C11.5633 16.8243 11.6214 16.7659 11.6214 16.6491C11.6214 16.5323 11.6795 16.4739 11.7956 16.4739C11.9116 16.4739 11.9697 16.4155 11.9697 16.2987C11.9697 16.1526 12.0278 16.1235 12.3181 16.1235C12.6084 16.1235 12.6665 16.0943 12.6665 15.9482C12.6665 15.8315 12.7246 15.773 12.8407 15.773C12.9568 15.773 13.0149 15.7146 13.0149 15.5978C13.0149 15.481 13.073 15.4226 13.189 15.4226C13.3342 15.4226 13.3632 15.3641 13.3632 15.0721C13.3632 14.7801 13.3922 14.7217 13.5374 14.7217C13.6826 14.7217 13.7116 14.6633 13.7116 14.3713C13.7116 14.0793 13.7406 14.0208 13.8858 14.0208C14.031 14.0208 14.06 13.9624 14.06 13.6704C14.06 13.3784 14.089 13.32 14.2342 13.32C14.3938 13.32 14.4084 13.2615 14.4084 12.6191C14.4084 11.9766 14.4229 11.9182 14.5825 11.9182C14.7422 11.9182 14.7567 11.8598 14.7567 11.2173C14.7567 10.5749 14.7422 10.5165 14.5825 10.5165C14.4277 10.5165 14.4084 10.458 14.4084 9.9908C14.4084 9.52357 14.389 9.46514 14.2342 9.46514C14.089 9.46514 14.06 9.4067 14.06 9.1147C14.06 8.8227 14.031 8.76426 13.8858 8.76426C13.7697 8.76426 13.7116 8.70583 13.7116 8.58905C13.7116 8.47226 13.6535 8.41383 13.5374 8.41383C13.4213 8.41383 13.3632 8.35539 13.3632 8.23861C13.3632 8.12182 13.3051 8.06339 13.189 8.06339C13.073 8.06339 13.0149 8.00495 13.0149 7.88817C13.0149 7.77139 12.9568 7.71295 12.8407 7.71295C12.7246 7.71295 12.6665 7.65452 12.6665 7.53773C12.6665 7.39169 12.6084 7.36251 12.3181 7.36251C12.0278 7.36251 11.9697 7.33334 11.9697 7.18729C11.9697 7.03152 11.9116 7.01208 11.4472 7.01208C10.9827 7.01208 10.9246 6.99263 10.9246 6.83686C10.9246 6.68109 10.8665 6.66164 10.4021 6.66164C9.93759 6.66164 9.8795 6.64219 9.8795 6.48642C9.8795 6.33065 9.82141 6.3112 9.35694 6.3112C8.89247 6.3112 8.83438 6.29175 8.83438 6.13598C8.83438 5.97539 8.77628 5.96076 8.13763 5.96076C7.49897 5.96076 7.44088 5.94613 7.44088 5.78554C7.44088 5.66876 7.38279 5.61032 7.26669 5.61032C7.10705 5.61032 7.09251 5.55189 7.09251 4.90945C7.09251 4.26701 7.10705 4.20857 7.26669 4.20857C7.38279 4.20857 7.44088 4.15014 7.44088 4.03336C7.44088 3.91657 7.49897 3.85814 7.61507 3.85814C7.73116 3.85814 7.78925 3.7997 7.78925 3.68292C7.78925 3.51935 7.84735 3.5077 8.66019 3.5077C9.47303 3.5077 9.53112 3.51935 9.53112 3.68292C9.53112 3.7997 9.58921 3.85814 9.70531 3.85814C9.82141 3.85814 9.8795 3.91657 9.8795 4.03336C9.8795 4.15014 9.93759 4.20857 10.0537 4.20857C10.1698 4.20857 10.2279 4.26701 10.2279 4.38379C10.2279 4.50058 10.286 4.55901 10.4021 4.55901C10.5569 4.55901 10.5762 4.61745 10.5762 5.08467V5.61032H12.8407H15.1051V4.55901C15.1051 3.56613 15.0954 3.5077 14.9309 3.5077C14.7761 3.5077 14.7567 3.44926 14.7567 2.98204C14.7567 2.51482 14.7374 2.45639 14.5825 2.45639C14.4374 2.45639 14.4084 2.39795 14.4084 2.10595C14.4084 1.81395 14.3794 1.75551 14.2342 1.75551C14.1181 1.75551 14.06 1.69707 14.06 1.58029C14.06 1.46351 14.0019 1.40507 13.8858 1.40507C13.7697 1.40507 13.7116 1.34664 13.7116 1.22985C13.7116 1.08381 13.6535 1.05464 13.3632 1.05464C13.073 1.05464 13.0149 1.02546 13.0149 0.879416C13.0149 0.723647 12.9568 0.704197 12.4923 0.704197C12.0278 0.704197 11.9697 0.684748 11.9697 0.528979C11.9697 0.357615 11.9116 0.35376 9.35694 0.35376C6.80222 0.35376 6.74413 0.357615 6.74413 0.528979ZM65.9677 1.05464C65.9677 1.69707 65.9531 1.75551 65.7935 1.75551C65.6339 1.75551 65.6193 1.81395 65.6193 2.45639C65.6193 3.09883 65.6048 3.15726 65.4451 3.15726C65.2855 3.15726 65.2709 3.2157 65.2709 3.85814C65.2709 4.50058 65.2564 4.55901 65.0967 4.55901C64.9807 4.55901 64.9226 4.61745 64.9226 4.73423C64.9226 4.89482 64.8645 4.90945 64.2258 4.90945H63.5291V5.61032C63.5291 6.25276 63.5145 6.3112 63.3549 6.3112C63.1952 6.3112 63.1807 6.36964 63.1807 7.01208V7.71295H63.8774H64.5742V8.06339C64.5742 8.35539 64.5452 8.41383 64.4 8.41383C64.2374 8.41383 64.2258 8.47226 64.2258 9.28992C64.2258 10.1076 64.2142 10.166 64.0516 10.166C63.889 10.166 63.8774 10.2245 63.8774 11.0421C63.8774 11.8598 63.8659 11.9182 63.7033 11.9182C63.5407 11.9182 63.5291 11.9766 63.5291 12.7943C63.5291 13.612 63.5175 13.6704 63.3549 13.6704C63.1904 13.6704 63.1807 13.7288 63.1807 14.7217C63.1807 15.7146 63.1904 15.773 63.3549 15.773C63.5001 15.773 63.5291 15.8315 63.5291 16.1235C63.5291 16.4155 63.5581 16.4739 63.7033 16.4739C63.8193 16.4739 63.8774 16.5323 63.8774 16.6491C63.8774 16.7659 63.9355 16.8243 64.0516 16.8243C64.1677 16.8243 64.2258 16.8828 64.2258 16.9995C64.2258 17.1553 64.2839 17.1748 64.7484 17.1748C65.2128 17.1748 65.2709 17.1942 65.2709 17.35C65.2709 17.5155 65.329 17.5252 66.3161 17.5252C67.3031 17.5252 67.3612 17.5155 67.3612 17.35C67.3612 17.1894 67.4193 17.1748 68.0579 17.1748C68.6966 17.1748 68.7547 17.1601 68.7547 16.9995C68.7547 16.8828 68.8128 16.8243 68.9289 16.8243C69.0915 16.8243 69.103 16.7659 69.103 15.9482C69.103 15.1306 69.1146 15.0721 69.2772 15.0721C69.4369 15.0721 69.4514 15.0137 69.4514 14.3713V13.6704H68.5805H67.7096V12.6191C67.7096 11.6262 67.7192 11.5678 67.8837 11.5678C68.0463 11.5678 68.0579 11.5093 68.0579 10.6917C68.0579 9.87401 68.0695 9.81558 68.2321 9.81558C68.3947 9.81558 68.4063 9.75714 68.4063 8.93948C68.4063 8.12182 68.4179 8.06339 68.5805 8.06339C68.6966 8.06339 68.7547 8.00495 68.7547 7.88817C68.7547 7.72268 68.8128 7.71295 69.7998 7.71295H70.8449V7.36251C70.8449 7.07051 70.8739 7.01208 71.0191 7.01208C71.1836 7.01208 71.1933 6.95364 71.1933 5.96076V4.90945H70.3224H69.4514V4.55901C69.4514 4.26701 69.4804 4.20857 69.6256 4.20857C69.7853 4.20857 69.7998 4.15014 69.7998 3.5077C69.7998 2.86526 69.8143 2.80682 69.974 2.80682C70.1336 2.80682 70.1482 2.74839 70.1482 2.10595C70.1482 1.46351 70.1627 1.40507 70.3224 1.40507C70.4772 1.40507 70.4965 1.34664 70.4965 0.879416V0.35376H68.2321H65.9677V1.05464ZM96.973 3.68292C96.973 3.7997 96.9149 3.85814 96.7988 3.85814C96.6536 3.85814 96.6246 3.91657 96.6246 4.20857C96.6246 4.50058 96.5956 4.55901 96.4504 4.55901C96.2908 4.55901 96.2762 4.61745 96.2762 5.25989C96.2762 5.90233 96.2908 5.96076 96.4504 5.96076C96.5665 5.96076 96.6246 6.0192 96.6246 6.13598C96.6246 6.25276 96.6827 6.3112 96.7988 6.3112C96.9149 6.3112 96.973 6.36964 96.973 6.48642C96.973 6.64999 97.031 6.66164 97.8439 6.66164C98.6567 6.66164 98.7148 6.64999 98.7148 6.48642C98.7148 6.36964 98.7729 6.3112 98.889 6.3112C99.0051 6.3112 99.0632 6.25276 99.0632 6.13598C99.0632 6.0192 99.1213 5.96076 99.2374 5.96076C99.4 5.96076 99.4116 5.90233 99.4116 5.08467C99.4116 4.26701 99.4 4.20857 99.2374 4.20857C99.1213 4.20857 99.0632 4.15014 99.0632 4.03336C99.0632 3.91657 99.0051 3.85814 98.889 3.85814C98.7729 3.85814 98.7148 3.7997 98.7148 3.68292C98.7148 3.51935 98.6567 3.5077 97.8439 3.5077C97.031 3.5077 96.973 3.51935 96.973 3.68292ZM97.3213 4.03336C97.3213 4.15014 97.2632 4.20857 97.1471 4.20857C97.031 4.20857 96.973 4.26701 96.973 4.38379C96.973 4.50058 96.9149 4.55901 96.7988 4.55901C96.6439 4.55901 96.6246 4.61745 96.6246 5.08467C96.6246 5.55189 96.6439 5.61032 96.7988 5.61032C96.944 5.61032 96.973 5.66876 96.973 5.96076V6.3112H97.8439C98.6567 6.3112 98.7148 6.29955 98.7148 6.13598C98.7148 6.0192 98.7729 5.96076 98.889 5.96076C99.0487 5.96076 99.0632 5.90233 99.0632 5.25989C99.0632 4.61745 99.0487 4.55901 98.889 4.55901C98.7729 4.55901 98.7148 4.50058 98.7148 4.38379C98.7148 4.26701 98.6567 4.20857 98.5406 4.20857C98.4245 4.20857 98.3664 4.15014 98.3664 4.03336C98.3664 3.87759 98.3084 3.85814 97.8439 3.85814C97.3794 3.85814 97.3213 3.87759 97.3213 4.03336ZM97.3213 5.08467C97.3213 5.90233 97.3329 5.96076 97.4955 5.96076C97.6116 5.96076 97.6697 5.90233 97.6697 5.78554C97.6697 5.66876 97.7278 5.61032 97.8439 5.61032C97.96 5.61032 98.0181 5.66876 98.0181 5.78554C98.0181 5.93159 98.0762 5.96076 98.3664 5.96076C98.6567 5.96076 98.7148 5.93159 98.7148 5.78554C98.7148 5.66876 98.6567 5.61032 98.5406 5.61032C98.3955 5.61032 98.3664 5.55189 98.3664 5.25989C98.3664 4.96788 98.3955 4.90945 98.5406 4.90945C98.6567 4.90945 98.7148 4.85101 98.7148 4.73423C98.7148 4.61745 98.6567 4.55901 98.5406 4.55901C98.4245 4.55901 98.3664 4.50058 98.3664 4.38379C98.3664 4.22802 98.3084 4.20857 97.8439 4.20857H97.3213V5.08467ZM75.7222 4.73423C75.7222 4.89482 75.6641 4.90945 75.0254 4.90945C74.3867 4.90945 74.3287 4.92408 74.3287 5.08467C74.3287 5.23071 74.2706 5.25989 73.9803 5.25989C73.69 5.25989 73.6319 5.28906 73.6319 5.43511C73.6319 5.58115 73.5738 5.61032 73.2835 5.61032C72.9933 5.61032 72.9352 5.6395 72.9352 5.78554C72.9352 5.90233 72.8771 5.96076 72.761 5.96076C72.6449 5.96076 72.5868 6.0192 72.5868 6.13598C72.5868 6.25276 72.5287 6.3112 72.4126 6.3112C72.2965 6.3112 72.2384 6.36964 72.2384 6.48642C72.2384 6.6032 72.1803 6.66164 72.0642 6.66164C71.9481 6.66164 71.89 6.72007 71.89 6.83686C71.89 6.95364 71.8319 7.01208 71.7159 7.01208C71.5998 7.01208 71.5417 7.07051 71.5417 7.18729C71.5417 7.30408 71.4836 7.36251 71.3675 7.36251C71.2223 7.36251 71.1933 7.42095 71.1933 7.71295C71.1933 8.00495 71.1643 8.06339 71.0191 8.06339C70.903 8.06339 70.8449 8.12182 70.8449 8.23861C70.8449 8.35539 70.7868 8.41383 70.6707 8.41383C70.5159 8.41383 70.4965 8.47226 70.4965 8.93948C70.4965 9.4067 70.4772 9.46514 70.3224 9.46514C70.1627 9.46514 70.1482 9.52357 70.1482 10.166C70.1482 10.8085 70.1336 10.8669 69.974 10.8669C69.8081 10.8669 69.7998 10.9253 69.7998 12.0934C69.7998 13.2615 69.8081 13.32 69.974 13.32C70.1336 13.32 70.1482 13.3784 70.1482 14.0208C70.1482 14.6633 70.1627 14.7217 70.3224 14.7217C70.4675 14.7217 70.4965 14.7801 70.4965 15.0721C70.4965 15.3641 70.5255 15.4226 70.6707 15.4226C70.7868 15.4226 70.8449 15.481 70.8449 15.5978C70.8449 15.7146 70.903 15.773 71.0191 15.773C71.1352 15.773 71.1933 15.8315 71.1933 15.9482C71.1933 16.065 71.2514 16.1235 71.3675 16.1235C71.4836 16.1235 71.5417 16.1819 71.5417 16.2987C71.5417 16.4155 71.5998 16.4739 71.7159 16.4739C71.8319 16.4739 71.89 16.5323 71.89 16.6491C71.89 16.7659 71.9481 16.8243 72.0642 16.8243C72.1803 16.8243 72.2384 16.8828 72.2384 16.9995C72.2384 17.1553 72.2965 17.1748 72.761 17.1748C73.2254 17.1748 73.2835 17.1942 73.2835 17.35C73.2835 17.5215 73.3416 17.5252 76.0705 17.5252C78.7994 17.5252 78.8575 17.5215 78.8575 17.35C78.8575 17.1942 78.9156 17.1748 79.3801 17.1748C79.8445 17.1748 79.9026 17.1553 79.9026 16.9995C79.9026 16.8535 79.9607 16.8243 80.251 16.8243C80.5413 16.8243 80.5994 16.7952 80.5994 16.6491C80.5994 16.5323 80.6575 16.4739 80.7736 16.4739C80.8897 16.4739 80.9478 16.4155 80.9478 16.2987C80.9478 16.1819 81.0058 16.1235 81.1219 16.1235C81.238 16.1235 81.2961 16.065 81.2961 15.9482C81.2961 15.8315 81.3542 15.773 81.4703 15.773C81.5864 15.773 81.6445 15.7146 81.6445 15.5978C81.6445 15.481 81.7026 15.4226 81.8187 15.4226C81.9348 15.4226 81.9929 15.3641 81.9929 15.2474C81.9929 15.1306 82.051 15.0721 82.1671 15.0721C82.2832 15.0721 82.3413 15.0137 82.3413 14.8969C82.3413 14.7801 82.3993 14.7217 82.5154 14.7217C82.6606 14.7217 82.6896 14.6633 82.6896 14.3713V14.0208H81.8187C81.0058 14.0208 80.9478 14.0092 80.9478 13.8456C80.9478 13.6777 80.8897 13.6704 79.5543 13.6704C78.2189 13.6704 78.1608 13.6777 78.1608 13.8456C78.1608 13.9624 78.1027 14.0208 77.9866 14.0208C77.8705 14.0208 77.8124 14.0793 77.8124 14.196C77.8124 14.3421 77.7543 14.3713 77.464 14.3713C77.1737 14.3713 77.1156 14.4004 77.1156 14.5465C77.1156 14.7101 77.0576 14.7217 76.2447 14.7217C75.4319 14.7217 75.3738 14.7101 75.3738 14.5465C75.3738 14.4297 75.3157 14.3713 75.1996 14.3713C75.0835 14.3713 75.0254 14.3128 75.0254 14.196C75.0254 14.0793 74.9673 14.0208 74.8512 14.0208C74.6964 14.0208 74.677 13.9624 74.677 13.4952C74.677 13.028 74.6577 12.9695 74.5028 12.9695C74.3577 12.9695 74.3287 12.9111 74.3287 12.6191V12.2686H78.8575H83.3864V10.166C83.3864 8.12182 83.3815 8.06339 83.2122 8.06339C83.0573 8.06339 83.038 8.00495 83.038 7.53773C83.038 7.07051 83.0187 7.01208 82.8638 7.01208C82.7477 7.01208 82.6896 6.95364 82.6896 6.83686C82.6896 6.72007 82.6315 6.66164 82.5154 6.66164C82.3993 6.66164 82.3413 6.6032 82.3413 6.48642C82.3413 6.36964 82.2832 6.3112 82.1671 6.3112C82.051 6.3112 81.9929 6.25276 81.9929 6.13598C81.9929 6.0192 81.9348 5.96076 81.8187 5.96076C81.7026 5.96076 81.6445 5.90233 81.6445 5.78554C81.6445 5.66876 81.5864 5.61032 81.4703 5.61032C81.3542 5.61032 81.2961 5.55189 81.2961 5.43511C81.2961 5.28906 81.238 5.25989 80.9478 5.25989C80.6575 5.25989 80.5994 5.23071 80.5994 5.08467C80.5994 4.92408 80.5413 4.90945 79.9026 4.90945C79.264 4.90945 79.2059 4.89482 79.2059 4.73423C79.2059 4.56488 79.1478 4.55901 77.464 4.55901C75.7802 4.55901 75.7222 4.56488 75.7222 4.73423ZM89.6571 4.73423C89.6571 4.8978 89.599 4.90945 88.7862 4.90945C87.9733 4.90945 87.9152 4.9211 87.9152 5.08467C87.9152 5.23071 87.8571 5.25989 87.5669 5.25989C87.2766 5.25989 87.2185 5.28906 87.2185 5.43511C87.2185 5.58115 87.1604 5.61032 86.8701 5.61032C86.5798 5.61032 86.5217 5.6395 86.5217 5.78554C86.5217 5.90233 86.4636 5.96076 86.3476 5.96076C86.2315 5.96076 86.1734 6.0192 86.1734 6.13598C86.1734 6.25276 86.1153 6.3112 85.9992 6.3112C85.8831 6.3112 85.825 6.36964 85.825 6.48642C85.825 6.6032 85.7669 6.66164 85.6508 6.66164C85.5347 6.66164 85.4766 6.72007 85.4766 6.83686C85.4766 6.95364 85.4185 7.01208 85.3024 7.01208C85.1572 7.01208 85.1282 7.07051 85.1282 7.36251C85.1282 7.65452 85.0992 7.71295 84.9541 7.71295C84.838 7.71295 84.7799 7.77139 84.7799 7.88817C84.7799 8.00495 84.7218 8.06339 84.6057 8.06339C84.4508 8.06339 84.4315 8.12182 84.4315 8.58905C84.4315 9.05627 84.4122 9.1147 84.2573 9.1147C84.0947 9.1147 84.0831 9.17314 84.0831 9.9908C84.0831 10.8085 84.0715 10.8669 83.9089 10.8669C83.743 10.8669 83.7347 10.9253 83.7347 12.0934C83.7347 13.2615 83.743 13.32 83.9089 13.32C84.0686 13.32 84.0831 13.3784 84.0831 14.0208C84.0831 14.6633 84.0977 14.7217 84.2573 14.7217C84.4025 14.7217 84.4315 14.7801 84.4315 15.0721C84.4315 15.3641 84.4605 15.4226 84.6057 15.4226C84.7218 15.4226 84.7799 15.481 84.7799 15.5978C84.7799 15.7146 84.838 15.773 84.9541 15.773C85.0702 15.773 85.1282 15.8315 85.1282 15.9482C85.1282 16.065 85.1863 16.1235 85.3024 16.1235C85.4185 16.1235 85.4766 16.1819 85.4766 16.2987C85.4766 16.4155 85.5347 16.4739 85.6508 16.4739C85.7669 16.4739 85.825 16.5323 85.825 16.6491C85.825 16.7659 85.8831 16.8243 85.9992 16.8243C86.1153 16.8243 86.1734 16.8828 86.1734 16.9995C86.1734 17.1456 86.2315 17.1748 86.5217 17.1748C86.812 17.1748 86.8701 17.2039 86.8701 17.35C86.8701 17.5106 86.9282 17.5252 87.5669 17.5252C88.2055 17.5252 88.2636 17.5398 88.2636 17.7004C88.2636 17.8703 88.3217 17.8756 90.1797 17.8756C92.0376 17.8756 92.0957 17.8703 92.0957 17.7004C92.0957 17.5447 92.1538 17.5252 92.6183 17.5252C93.0828 17.5252 93.1408 17.5058 93.1408 17.35C93.1408 17.2039 93.1989 17.1748 93.4892 17.1748C93.7795 17.1748 93.8376 17.1456 93.8376 16.9995C93.8376 16.8828 93.8957 16.8243 94.0118 16.8243C94.1279 16.8243 94.186 16.7659 94.186 16.6491C94.186 16.5323 94.2441 16.4739 94.3602 16.4739C94.4762 16.4739 94.5343 16.4155 94.5343 16.2987C94.5343 16.1819 94.5924 16.1235 94.7085 16.1235C94.8246 16.1235 94.8827 16.065 94.8827 15.9482C94.8827 15.8315 94.9408 15.773 95.0569 15.773C95.173 15.773 95.2311 15.7146 95.2311 15.5978C95.2311 15.481 95.2892 15.4226 95.4053 15.4226C95.5505 15.4226 95.5795 15.3641 95.5795 15.0721C95.5795 14.7801 95.6085 14.7217 95.7536 14.7217C95.9085 14.7217 95.9278 14.6633 95.9278 14.196C95.9278 13.7288 95.9472 13.6704 96.102 13.6704C96.2569 13.6704 96.2762 13.612 96.2762 13.1447V12.6191H94.186H92.0957V12.9695C92.0957 13.2615 92.0667 13.32 91.9215 13.32C91.8054 13.32 91.7473 13.3784 91.7473 13.4952C91.7473 13.612 91.6893 13.6704 91.5732 13.6704C91.4571 13.6704 91.399 13.7288 91.399 13.8456C91.399 13.9624 91.3409 14.0208 91.2248 14.0208C91.1087 14.0208 91.0506 14.0793 91.0506 14.196C91.0506 14.3615 90.9925 14.3713 90.0055 14.3713C89.0184 14.3713 88.9604 14.3615 88.9604 14.196C88.9604 14.0793 88.9023 14.0208 88.7862 14.0208C88.641 14.0208 88.612 13.9624 88.612 13.6704C88.612 13.3784 88.583 13.32 88.4378 13.32C88.2694 13.32 88.2636 13.2615 88.2636 11.5678C88.2636 9.87401 88.2694 9.81558 88.4378 9.81558C88.583 9.81558 88.612 9.75714 88.612 9.46514C88.612 9.17314 88.641 9.1147 88.7862 9.1147C88.9023 9.1147 88.9604 9.05627 88.9604 8.93948C88.9604 8.8227 89.0184 8.76426 89.1345 8.76426C89.2506 8.76426 89.3087 8.70583 89.3087 8.58905C89.3087 8.47226 89.3668 8.41383 89.4829 8.41383C89.599 8.41383 89.6571 8.35539 89.6571 8.23861C89.6571 8.07802 89.7152 8.06339 90.3539 8.06339C90.9925 8.06339 91.0506 8.07802 91.0506 8.23861C91.0506 8.38465 91.1087 8.41383 91.399 8.41383H91.7473V8.76426C91.7473 9.05627 91.7763 9.1147 91.9215 9.1147C92.0667 9.1147 92.0957 9.17314 92.0957 9.46514V9.81558H94.3602H96.6246V8.76426C96.6246 7.77139 96.6149 7.71295 96.4504 7.71295C96.3052 7.71295 96.2762 7.65452 96.2762 7.36251C96.2762 7.07051 96.2472 7.01208 96.102 7.01208C95.9568 7.01208 95.9278 6.95364 95.9278 6.66164C95.9278 6.36964 95.8988 6.3112 95.7536 6.3112C95.6376 6.3112 95.5795 6.25276 95.5795 6.13598C95.5795 5.98994 95.5214 5.96076 95.2311 5.96076C94.9408 5.96076 94.8827 5.93159 94.8827 5.78554C94.8827 5.66876 94.8246 5.61032 94.7085 5.61032C94.5924 5.61032 94.5343 5.55189 94.5343 5.43511C94.5343 5.27934 94.4762 5.25989 94.0118 5.25989C93.5473 5.25989 93.4892 5.24044 93.4892 5.08467C93.4892 4.9211 93.4311 4.90945 92.6183 4.90945C91.8054 4.90945 91.7473 4.8978 91.7473 4.73423C91.7473 4.56874 91.6893 4.55901 90.7022 4.55901C89.7152 4.55901 89.6571 4.56874 89.6571 4.73423ZM97.6697 4.73423C97.6697 4.85101 97.7278 4.90945 97.8439 4.90945C97.96 4.90945 98.0181 4.85101 98.0181 4.73423C98.0181 4.61745 97.96 4.55901 97.8439 4.55901C97.7278 4.55901 97.6697 4.61745 97.6697 4.73423ZM37.401 5.08467C37.401 5.24044 37.3429 5.25989 36.8785 5.25989C36.414 5.25989 36.3559 5.27934 36.3559 5.43511C36.3559 5.55189 36.2978 5.61032 36.1817 5.61032C36.0656 5.61032 36.0075 5.66876 36.0075 5.78554C36.0075 5.93159 35.9494 5.96076 35.6592 5.96076C35.3689 5.96076 35.3108 5.98994 35.3108 6.13598C35.3108 6.25276 35.2527 6.3112 35.1366 6.3112C34.9817 6.3112 34.9624 6.25276 34.9624 5.78554V5.25989H33.0464C31.1884 5.25989 31.1303 5.26523 31.1303 5.43511C31.1303 5.55189 31.0722 5.61032 30.9561 5.61032C30.7935 5.61032 30.7819 5.66876 30.7819 6.48642C30.7819 7.30408 30.7703 7.36251 30.6077 7.36251C30.4451 7.36251 30.4336 7.42095 30.4336 8.23861C30.4336 9.05627 30.422 9.1147 30.2594 9.1147C30.0968 9.1147 30.0852 9.17314 30.0852 9.9908C30.0852 10.8085 30.0736 10.8669 29.911 10.8669C29.7484 10.8669 29.7368 10.9253 29.7368 11.743C29.7368 12.5606 29.7252 12.6191 29.5626 12.6191C29.403 12.6191 29.3884 12.6775 29.3884 13.32C29.3884 13.9624 29.3739 14.0208 29.2142 14.0208C29.0516 14.0208 29.0401 14.0793 29.0401 14.8969C29.0401 15.7146 29.0285 15.773 28.8659 15.773C28.7062 15.773 28.6917 15.8315 28.6917 16.4739V17.1748H30.7819C32.8141 17.1748 32.8722 17.1699 32.8722 16.9995C32.8722 16.8828 32.9303 16.8243 33.0464 16.8243C33.209 16.8243 33.2205 16.7659 33.2205 15.9482C33.2205 15.1306 33.2321 15.0721 33.3947 15.0721C33.5573 15.0721 33.5689 15.0137 33.5689 14.196C33.5689 13.3784 33.5805 13.32 33.7431 13.32C33.9057 13.32 33.9173 13.2615 33.9173 12.4439C33.9173 11.6262 33.9289 11.5678 34.0915 11.5678C34.2511 11.5678 34.2657 11.5093 34.2657 10.8669C34.2657 10.2245 34.2802 10.166 34.4399 10.166C34.585 10.166 34.614 10.1076 34.614 9.81558C34.614 9.52357 34.643 9.46514 34.7882 9.46514C34.9043 9.46514 34.9624 9.4067 34.9624 9.28992C34.9624 9.17314 35.0205 9.1147 35.1366 9.1147C35.2527 9.1147 35.3108 9.05627 35.3108 8.93948C35.3108 8.79344 35.3689 8.76426 35.6592 8.76426C35.9494 8.76426 36.0075 8.73509 36.0075 8.58905C36.0075 8.47226 36.0656 8.41383 36.1817 8.41383C36.2978 8.41383 36.3559 8.47226 36.3559 8.58905C36.3559 8.73509 36.414 8.76426 36.7043 8.76426H37.0527V9.1147C37.0527 9.4067 37.0817 9.46514 37.2268 9.46514C37.372 9.46514 37.401 9.52357 37.401 9.81558C37.401 10.1076 37.372 10.166 37.2268 10.166C37.0642 10.166 37.0527 10.2245 37.0527 11.0421C37.0527 11.8598 37.0411 11.9182 36.8785 11.9182C36.7159 11.9182 36.7043 11.9766 36.7043 12.7943C36.7043 13.612 36.6927 13.6704 36.5301 13.6704C36.3705 13.6704 36.3559 13.7288 36.3559 14.3713C36.3559 15.0137 36.3414 15.0721 36.1817 15.0721C36.0172 15.0721 36.0075 15.1306 36.0075 16.1235V17.1748H38.0978H40.188V16.6491C40.188 16.1819 40.2074 16.1235 40.3622 16.1235C40.5248 16.1235 40.5364 16.065 40.5364 15.2474C40.5364 14.4297 40.548 14.3713 40.7106 14.3713C40.8732 14.3713 40.8848 14.3128 40.8848 13.4952C40.8848 12.6775 40.8964 12.6191 41.059 12.6191C41.2216 12.6191 41.2331 12.5606 41.2331 11.743C41.2331 10.9253 41.2447 10.8669 41.4073 10.8669C41.5622 10.8669 41.5815 10.8085 41.5815 10.3412C41.5815 9.87401 41.6009 9.81558 41.7557 9.81558C41.9009 9.81558 41.9299 9.75714 41.9299 9.46514C41.9299 9.17314 41.9589 9.1147 42.1041 9.1147C42.2202 9.1147 42.2783 9.05627 42.2783 8.93948C42.2783 8.78371 42.3364 8.76426 42.8008 8.76426C43.2653 8.76426 43.3234 8.74481 43.3234 8.58905C43.3234 8.47226 43.3815 8.41383 43.4976 8.41383C43.6137 8.41383 43.6718 8.47226 43.6718 8.58905C43.6718 8.73509 43.7298 8.76426 44.0201 8.76426H44.3685V9.9908C44.3685 11.1589 44.3602 11.2173 44.1943 11.2173C44.0317 11.2173 44.0201 11.2758 44.0201 12.0934C44.0201 12.9111 44.0085 12.9695 43.8459 12.9695C43.6833 12.9695 43.6718 13.028 43.6718 13.8456C43.6718 14.6633 43.6602 14.7217 43.4976 14.7217C43.335 14.7217 43.3234 14.7801 43.3234 15.5978C43.3234 16.4155 43.3118 16.4739 43.1492 16.4739C43.004 16.4739 42.975 16.5323 42.975 16.8243V17.1748H45.2394H47.5039V16.2987C47.5039 15.481 47.5155 15.4226 47.6781 15.4226C47.8377 15.4226 47.8522 15.3641 47.8522 14.7217C47.8522 14.0793 47.8668 14.0208 48.0264 14.0208C48.189 14.0208 48.2006 13.9624 48.2006 13.1447C48.2006 12.3271 48.2122 12.2686 48.3748 12.2686C48.5374 12.2686 48.549 12.2102 48.549 11.3925C48.549 10.5749 48.5606 10.5165 48.7232 10.5165C48.8858 10.5165 48.8974 10.458 48.8974 9.64036C48.8974 8.8227 48.9089 8.76426 49.0716 8.76426C49.2312 8.76426 49.2457 8.70583 49.2457 8.06339C49.2457 7.42095 49.2312 7.36251 49.0716 7.36251C48.9167 7.36251 48.8974 7.30408 48.8974 6.83686C48.8974 6.36964 48.878 6.3112 48.7232 6.3112C48.578 6.3112 48.549 6.25276 48.549 5.96076C48.549 5.66876 48.52 5.61032 48.3748 5.61032C48.2587 5.61032 48.2006 5.55189 48.2006 5.43511C48.2006 5.28906 48.1425 5.25989 47.8522 5.25989C47.562 5.25989 47.5039 5.23071 47.5039 5.08467C47.5039 4.91593 47.4458 4.90945 45.9362 4.90945C44.4266 4.90945 44.3685 4.91593 44.3685 5.08467C44.3685 5.23071 44.3104 5.25989 44.0201 5.25989C43.7298 5.25989 43.6718 5.28906 43.6718 5.43511C43.6718 5.58115 43.6137 5.61032 43.3234 5.61032C43.0331 5.61032 42.975 5.6395 42.975 5.78554C42.975 5.90233 42.9169 5.96076 42.8008 5.96076C42.6847 5.96076 42.6266 6.0192 42.6266 6.13598C42.6266 6.25276 42.5685 6.3112 42.4525 6.3112C42.3364 6.3112 42.2783 6.36964 42.2783 6.48642C42.2783 6.63246 42.2202 6.66164 41.9299 6.66164H41.5815V6.3112C41.5815 6.0192 41.5525 5.96076 41.4073 5.96076C41.2912 5.96076 41.2331 5.90233 41.2331 5.78554C41.2331 5.66876 41.1751 5.61032 41.059 5.61032C40.9429 5.61032 40.8848 5.55189 40.8848 5.43511C40.8848 5.28906 40.8267 5.25989 40.5364 5.25989C40.2461 5.25989 40.188 5.23071 40.188 5.08467C40.188 4.91672 40.1299 4.90945 38.7945 4.90945C37.4591 4.90945 37.401 4.91672 37.401 5.08467ZM54.4713 5.08467C54.4713 5.24526 54.4133 5.25989 53.7746 5.25989C53.1359 5.25989 53.0779 5.27452 53.0779 5.43511C53.0779 5.58115 53.0198 5.61032 52.7295 5.61032C52.4392 5.61032 52.3811 5.6395 52.3811 5.78554C52.3811 5.90233 52.323 5.96076 52.2069 5.96076C52.0908 5.96076 52.0327 6.0192 52.0327 6.13598C52.0327 6.25276 51.9746 6.3112 51.8585 6.3112C51.7424 6.3112 51.6844 6.36964 51.6844 6.48642C51.6844 6.6032 51.6263 6.66164 51.5102 6.66164C51.3941 6.66164 51.336 6.72007 51.336 6.83686C51.336 6.95364 51.2779 7.01208 51.1618 7.01208C51.0457 7.01208 50.9876 7.07051 50.9876 7.18729C50.9876 7.30408 50.9295 7.36251 50.8134 7.36251C50.6682 7.36251 50.6392 7.42095 50.6392 7.71295C50.6392 8.00495 50.6102 8.06339 50.465 8.06339C50.3199 8.06339 50.2909 8.12182 50.2909 8.41383V8.76426H52.5553H54.8197V8.41383V8.06339H55.1681C55.4584 8.06339 55.5165 8.03421 55.5165 7.88817C55.5165 7.72127 55.5746 7.71295 56.7358 7.71295H57.9551V8.41383V9.1147H57.6067C57.3164 9.1147 57.2583 9.14388 57.2583 9.28992C57.2583 9.44569 57.2002 9.46514 56.7358 9.46514C56.2713 9.46514 56.2132 9.48459 56.2132 9.64036C56.2132 9.80095 56.1551 9.81558 55.5165 9.81558C54.8778 9.81558 54.8197 9.83021 54.8197 9.9908C54.8197 10.1544 54.7616 10.166 53.9488 10.166C53.1359 10.166 53.0779 10.1777 53.0779 10.3412C53.0779 10.497 53.0198 10.5165 52.5553 10.5165C52.0908 10.5165 52.0327 10.5359 52.0327 10.6917C52.0327 10.8474 51.9746 10.8669 51.5102 10.8669C51.0457 10.8669 50.9876 10.8863 50.9876 11.0421C50.9876 11.1882 50.9295 11.2173 50.6392 11.2173C50.349 11.2173 50.2909 11.2465 50.2909 11.3925C50.2909 11.5093 50.2328 11.5678 50.1167 11.5678C50.0006 11.5678 49.9425 11.6262 49.9425 11.743C49.9425 11.8598 49.8844 11.9182 49.7683 11.9182C49.6231 11.9182 49.5941 11.9766 49.5941 12.2686C49.5941 12.5606 49.5651 12.6191 49.4199 12.6191C49.2651 12.6191 49.2457 12.6775 49.2457 13.1447C49.2457 13.612 49.2264 13.6704 49.0716 13.6704C48.9089 13.6704 48.8974 13.7288 48.8974 14.5465C48.8974 15.3641 48.9089 15.4226 49.0716 15.4226C49.2167 15.4226 49.2457 15.481 49.2457 15.773C49.2457 16.065 49.2747 16.1235 49.4199 16.1235C49.536 16.1235 49.5941 16.1819 49.5941 16.2987C49.5941 16.4155 49.6522 16.4739 49.7683 16.4739C49.8844 16.4739 49.9425 16.5323 49.9425 16.6491C49.9425 16.7659 50.0006 16.8243 50.1167 16.8243C50.2328 16.8243 50.2909 16.8828 50.2909 16.9995C50.2909 17.1601 50.349 17.1748 50.9876 17.1748C51.6263 17.1748 51.6844 17.1894 51.6844 17.35C51.6844 17.5136 51.7424 17.5252 52.5553 17.5252C53.3681 17.5252 53.4262 17.5136 53.4262 17.35C53.4262 17.1894 53.4843 17.1748 54.123 17.1748C54.7616 17.1748 54.8197 17.1601 54.8197 16.9995C54.8197 16.8438 54.8778 16.8243 55.3423 16.8243C55.8068 16.8243 55.8648 16.8049 55.8648 16.6491C55.8648 16.5031 55.9229 16.4739 56.2132 16.4739C56.5035 16.4739 56.5616 16.4447 56.5616 16.2987C56.5616 16.1819 56.6197 16.1235 56.7358 16.1235C56.8519 16.1235 56.91 16.065 56.91 15.9482C56.91 15.8315 56.9681 15.773 57.0842 15.773C57.2438 15.773 57.2583 15.8315 57.2583 16.4739V17.1748H59.3486H61.4388V15.2474C61.4388 13.3784 61.4441 13.32 61.613 13.32C61.7756 13.32 61.7872 13.2615 61.7872 12.4439C61.7872 11.6262 61.7988 11.5678 61.9614 11.5678C62.1259 11.5678 62.1356 11.5093 62.1356 10.5165C62.1356 9.52357 62.1452 9.46514 62.3098 9.46514C62.4743 9.46514 62.4839 9.4067 62.4839 8.41383C62.4839 7.42095 62.4743 7.36251 62.3098 7.36251C62.1549 7.36251 62.1356 7.30408 62.1356 6.83686C62.1356 6.36964 62.1162 6.3112 61.9614 6.3112C61.8453 6.3112 61.7872 6.25276 61.7872 6.13598C61.7872 6.0192 61.7291 5.96076 61.613 5.96076C61.4969 5.96076 61.4388 5.90233 61.4388 5.78554C61.4388 5.66876 61.3807 5.61032 61.2646 5.61032C61.1485 5.61032 61.0904 5.55189 61.0904 5.43511C61.0904 5.27934 61.0324 5.25989 60.5679 5.25989C60.1034 5.25989 60.0453 5.24044 60.0453 5.08467C60.0453 4.91313 59.9872 4.90945 57.2583 4.90945C54.5294 4.90945 54.4713 4.91313 54.4713 5.08467ZM17.5437 5.78554C17.5437 6.25276 17.5244 6.3112 17.3695 6.3112C17.2099 6.3112 17.1953 6.36964 17.1953 7.01208C17.1953 7.65452 17.1808 7.71295 17.0212 7.71295C16.8615 7.71295 16.847 7.77139 16.847 8.41383C16.847 9.05627 16.8324 9.1147 16.6728 9.1147C16.5179 9.1147 16.4986 9.17314 16.4986 9.64036C16.4986 10.1076 16.4793 10.166 16.3244 10.166C16.1648 10.166 16.1502 10.2245 16.1502 10.8669C16.1502 11.5093 16.1357 11.5678 15.976 11.5678C15.8164 11.5678 15.8019 11.6262 15.8019 12.2686C15.8019 12.9111 15.7873 12.9695 15.6277 12.9695C15.4607 12.9695 15.4535 13.028 15.4535 14.3713C15.4535 15.7146 15.4607 15.773 15.6277 15.773C15.7728 15.773 15.8019 15.8315 15.8019 16.1235C15.8019 16.4155 15.8309 16.4739 15.976 16.4739C16.0921 16.4739 16.1502 16.5323 16.1502 16.6491C16.1502 16.7659 16.2083 16.8243 16.3244 16.8243C16.4405 16.8243 16.4986 16.8828 16.4986 16.9995C16.4986 17.1553 16.5567 17.1748 17.0212 17.1748C17.4856 17.1748 17.5437 17.1942 17.5437 17.35C17.5437 17.5136 17.6018 17.5252 18.4147 17.5252C19.2275 17.5252 19.2856 17.5136 19.2856 17.35C19.2856 17.1942 19.3437 17.1748 19.8082 17.1748C20.2726 17.1748 20.3307 17.1553 20.3307 16.9995C20.3307 16.8438 20.3888 16.8243 20.8533 16.8243C21.3177 16.8243 21.3758 16.8049 21.3758 16.6491C21.3758 16.5323 21.4339 16.4739 21.55 16.4739C21.6661 16.4739 21.7242 16.4155 21.7242 16.2987C21.7242 16.1819 21.7823 16.1235 21.8984 16.1235C22.0145 16.1235 22.0726 16.065 22.0726 15.9482C22.0726 15.8315 22.1307 15.773 22.2468 15.773C22.3629 15.773 22.421 15.7146 22.421 15.5978C22.421 15.481 22.479 15.4226 22.5951 15.4226C22.75 15.4226 22.7693 15.481 22.7693 15.9482C22.7693 16.4155 22.75 16.4739 22.5951 16.4739C22.45 16.4739 22.421 16.5323 22.421 16.8243V17.1748H24.5112H26.6014V16.6491C26.6014 16.1819 26.6208 16.1235 26.7756 16.1235C26.9305 16.1235 26.9498 16.065 26.9498 15.5978C26.9498 15.1306 26.9691 15.0721 27.124 15.0721C27.2836 15.0721 27.2982 15.0137 27.2982 14.3713C27.2982 13.7288 27.3127 13.6704 27.4724 13.6704C27.632 13.6704 27.6466 13.612 27.6466 12.9695C27.6466 12.3271 27.6611 12.2686 27.8207 12.2686C27.9804 12.2686 27.9949 12.2102 27.9949 11.5678C27.9949 10.9253 28.0095 10.8669 28.1691 10.8669C28.3288 10.8669 28.3433 10.8085 28.3433 10.166C28.3433 9.52357 28.3579 9.46514 28.5175 9.46514C28.6771 9.46514 28.6917 9.4067 28.6917 8.76426C28.6917 8.12182 28.7062 8.06339 28.8659 8.06339C29.0207 8.06339 29.0401 8.00495 29.0401 7.53773C29.0401 7.07051 29.0594 7.01208 29.2142 7.01208C29.3739 7.01208 29.3884 6.95364 29.3884 6.3112C29.3884 5.66876 29.403 5.61032 29.5626 5.61032C29.6787 5.61032 29.7368 5.55189 29.7368 5.43511C29.7368 5.26436 29.6787 5.25989 27.4724 5.25989H25.2079V5.61032C25.2079 5.90233 25.1789 5.96076 25.0338 5.96076C24.8741 5.96076 24.8596 6.0192 24.8596 6.66164C24.8596 7.30408 24.845 7.36251 24.6854 7.36251C24.5257 7.36251 24.5112 7.42095 24.5112 8.06339C24.5112 8.70583 24.4967 8.76426 24.337 8.76426C24.1822 8.76426 24.1628 8.8227 24.1628 9.28992C24.1628 9.75714 24.1435 9.81558 23.9886 9.81558C23.829 9.81558 23.8145 9.87401 23.8145 10.5165C23.8145 11.1589 23.7999 11.2173 23.6403 11.2173C23.4854 11.2173 23.4661 11.2758 23.4661 11.743C23.4661 12.2102 23.4467 12.2686 23.2919 12.2686C23.1758 12.2686 23.1177 12.3271 23.1177 12.4439C23.1177 12.5606 23.0596 12.6191 22.9435 12.6191C22.7983 12.6191 22.7693 12.6775 22.7693 12.9695V13.32H22.421C22.1307 13.32 22.0726 13.3491 22.0726 13.4952C22.0726 13.6558 22.0145 13.6704 21.3758 13.6704C20.7372 13.6704 20.6791 13.6558 20.6791 13.4952C20.6791 13.3784 20.621 13.32 20.5049 13.32C20.3404 13.32 20.3307 13.2615 20.3307 12.2686C20.3307 11.2758 20.3404 11.2173 20.5049 11.2173C20.6598 11.2173 20.6791 11.1589 20.6791 10.6917C20.6791 10.2245 20.6984 10.166 20.8533 10.166C21.0129 10.166 21.0275 10.1076 21.0275 9.46514C21.0275 8.8227 21.042 8.76426 21.2016 8.76426C21.3613 8.76426 21.3758 8.70583 21.3758 8.06339C21.3758 7.42095 21.3904 7.36251 21.55 7.36251C21.7097 7.36251 21.7242 7.30408 21.7242 6.66164C21.7242 6.0192 21.7388 5.96076 21.8984 5.96076C22.0436 5.96076 22.0726 5.90233 22.0726 5.61032V5.25989H19.8082H17.5437V5.78554ZM76.0705 7.88817C76.0705 8.00495 76.0124 8.06339 75.8963 8.06339C75.7802 8.06339 75.7222 8.12182 75.7222 8.23861C75.7222 8.35539 75.6641 8.41383 75.548 8.41383C75.4319 8.41383 75.3738 8.47226 75.3738 8.58905C75.3738 8.70583 75.3157 8.76426 75.1996 8.76426C75.0544 8.76426 75.0254 8.8227 75.0254 9.1147C75.0254 9.4067 74.9964 9.46514 74.8512 9.46514C74.7351 9.46514 74.677 9.52357 74.677 9.64036C74.677 9.81067 74.7351 9.81558 76.7673 9.81558H78.8575V9.1147C78.8575 8.47226 78.843 8.41383 78.6833 8.41383C78.5672 8.41383 78.5091 8.35539 78.5091 8.23861C78.5091 8.12182 78.4511 8.06339 78.335 8.06339C78.2189 8.06339 78.1608 8.00495 78.1608 7.88817C78.1608 7.72268 78.1027 7.71295 77.1156 7.71295C76.1286 7.71295 76.0705 7.72268 76.0705 7.88817ZM56.91 11.743C56.91 11.8988 56.8519 11.9182 56.3874 11.9182C55.9229 11.9182 55.8648 11.9377 55.8648 12.0934C55.8648 12.254 55.8068 12.2686 55.1681 12.2686C54.5294 12.2686 54.4713 12.2833 54.4713 12.4439C54.4713 12.5606 54.4133 12.6191 54.2972 12.6191C54.1811 12.6191 54.123 12.6775 54.123 12.7943C54.123 12.9111 54.0649 12.9695 53.9488 12.9695C53.8327 12.9695 53.7746 13.028 53.7746 13.1447C53.7746 13.2615 53.7165 13.32 53.6004 13.32C53.4456 13.32 53.4262 13.3784 53.4262 13.8456C53.4262 14.3128 53.4456 14.3713 53.6004 14.3713C53.7165 14.3713 53.7746 14.4297 53.7746 14.5465C53.7746 14.7101 53.8327 14.7217 54.6455 14.7217C55.4584 14.7217 55.5165 14.7101 55.5165 14.5465C55.5165 14.4004 55.5746 14.3713 55.8648 14.3713C56.1551 14.3713 56.2132 14.3421 56.2132 14.196C56.2132 14.0793 56.2713 14.0208 56.3874 14.0208C56.5035 14.0208 56.5616 13.9624 56.5616 13.8456C56.5616 13.7288 56.6197 13.6704 56.7358 13.6704C56.8519 13.6704 56.91 13.612 56.91 13.4952C56.91 13.3784 56.9681 13.32 57.0842 13.32C57.239 13.32 57.2583 13.2615 57.2583 12.7943C57.2583 12.3271 57.2777 12.2686 57.4325 12.2686C57.5777 12.2686 57.6067 12.2102 57.6067 11.9182V11.5678H57.2583C56.9681 11.5678 56.91 11.5969 56.91 11.743Z" fill="#3D3D3D"/>
</svg>
